<svg xmlns="http://www.w3.org/2000/svg" width="56.17" height="60.454" viewBox="0 0 56.17 60.454">
  <g id="Layer_2" data-name="Layer 2" transform="translate(0 0.027)">
    <g id="footer" transform="translate(0 2.495)">
      <path id="Path_306" data-name="Path 306" d="M40.308,97.578c1.9-6.03,3.75-11.917,5.623-17.791.556-1.743.544-3.521-.907-4.479a3.637,3.637,0,0,0-3.419-.318,5.854,5.854,0,0,0-1.972,3.486c-1.088,5.6-1.972,11.246-2.926,16.88-.134.771-.3,1.542-.457,2.383H34.109c.789-5.5,1.577-10.85,2.366-16.2.138-.932.3-1.861.394-2.793.28-2.353-.749-3.965-2.682-4.248-1.865-.275-3.462,1.085-3.632,3.346s-.114,4.5-.138,6.749q-.055,5.769-.083,11.542c0,.906,0,1.991-1.151,1.651A2.236,2.236,0,0,1,28.1,96.075c-.134-5.734-.075-11.477-.26-17.207-.039-1.246-.532-2.95-1.353-3.556a3.6,3.6,0,0,0-3.549-.187,4.706,4.706,0,0,0-1.353,3.656c.666,5.826,1.629,11.608,2.48,17.407.059.436.051.871.091,1.547l-2.007.122c-1.049-6.261-2.09-12.37-3.155-18.479-.327-1.93-.394-4.192-2.591-4.606a4.239,4.239,0,0,0-3.344.924c-1.577,1.481-.737,3.486-.177,5.255,1.491,4.723,3,9.438,4.5,14.157.252.806.453,1.63.682,2.444-1.495.719-2.161.122-2.63-1.307q-2.644-8.085-5.418-16.122c-1.723-5.037-3.454-6.161-8.6-5.525L6.722,85.561c2.232,4.606,4.492,9.19,6.668,13.826a2.373,2.373,0,0,0,2.453,1.621c8.936-.057,17.876,0,26.816-.065a2.451,2.451,0,0,0,1.944-.871c4.172-8.41,8.25-16.828,12.363-25.277-4.149-1.176-6.826.357-8.254,4.584-1.877,5.569-3.829,11.111-5.627,16.71C42.58,97.652,41.925,98.249,40.308,97.578Z" transform="translate(-1.41 -43.075)" fill="#f63242"/>
      <path id="Path_307" data-name="Path 307" d="M56.17,41.874H0S25.932,1.382,56.17,41.874Z" transform="translate(0 -14.561)" fill="#02c9a8"/>
      <circle id="Ellipse_10" data-name="Ellipse 10" cx="5.887" cy="5.887" r="5.887" transform="translate(7.673 8.826)" fill="#f63242"/>
      <path id="Path_308" data-name="Path 308" d="M126.571,11.813s-4.031-10.78-9.991-9.15" transform="translate(-115.369 -2.495)" fill="none" stroke="#02c9a8" stroke-miterlimit="10" stroke-width="5"/>
    </g>
  </g>
</svg>
