<svg id="Layer_2" data-name="Layer 2" xmlns="http://www.w3.org/2000/svg" width="113.573" height="87.191" viewBox="0 0 113.573 87.191">
  <g id="footer" transform="translate(0 0)">
    <path id="Path_309" data-name="Path 309" d="M49.95,80.248a60.012,60.012,0,0,0,2.533-10.581c.508-2.862,1.653-5.538,1.717-8.457,1.431-4.736,2.189-9.63,3.384-14.423.715-2.948,1.531-5.888,2.311-8.829.122-.458.093-1.045.715-1.188,3.148,5.073,6.768,9.8,10.209,14.659,1.045,1.431,2.1,2.912,3.162,4.357l-1.13.4a49.988,49.988,0,0,0-4.908-3.577l-.429-.293a3.527,3.527,0,0,0-1.438-1.159c-.351-.458-.715-.887-1.4-.751l-.1-.157c-.665-1.13-1.767-2.332-2.862-2.089-.83.186,0,1.781.043,2.747.386,6.017.758,12.027,1.209,18.044.6,7.963,1.173,15.919,1.96,23.882.1,1.016.143,2.032.193,3.048-2.7.715-5.437,1.295-8.2,1.774l-.394-.336c-.3-.243-.608-.479-.916-.715a9.008,9.008,0,0,0-.079-1.324c-.043-.243-.136-.565,0-.715,2.254-3.2.379-5.724-1.352-8.249A67.734,67.734,0,0,1,49.95,80.248Z" transform="translate(5.6 -10.463)" fill="#7b9f1b"/>
    <path id="Path_310" data-name="Path 310" d="M11.457,78.034c3.434-2.3,7.2-4.006,10.818-6,4.951-2.733,10.016-5.316,15.024-7.963a2.862,2.862,0,0,1,1.746-.6h0c1.145-1.345,2.991-1.531,4.293-2.6l-.358-.93a5.623,5.623,0,0,1-2.368.465l-1.474.286a3.277,3.277,0,0,1-1.967.508l-1.1.222a3.649,3.649,0,0,1-2.34.587l-.715.157a4.793,4.793,0,0,1-2.34.587l-1.1.222a4.743,4.743,0,0,1-2.719.615l-.715.172a7.741,7.741,0,0,1-1.653.859c-5.3,1.309-10.732,2.146-15.962,3.713-2.754.794-5.673,1.252-8.507,1.889a2.039,2.039,0,0,0,.608,1.731c1,1.238,1.967,2.5,2.94,3.763C4.76,77.325,6.485,78.577,7,80.659a.329.329,0,0,1,.215.057A.644.644,0,0,1,7.708,80a.715.715,0,0,1,.758-.4l.358-.072v.05l.429-.372a.715.715,0,0,1,.715-.386.844.844,0,0,1,.773-.4h0l.372-.272Z" transform="translate(70.236 -17.056)" fill="#aedd2c"/>
    <path id="Path_311" data-name="Path 311" d="M62.7,81.9c-.944.587-.436,1.867-.343,2.862.444,4.536.887,9.072,1.481,13.593,0,.243.057.487.079.715-1.488.5-2.991.944-4.507,1.352-.05-1.016-.093-2.032-.193-3.048-.787-7.949-1.359-15.919-1.953-23.882-.479-6.038-.823-12.048-1.195-18.065-.064-.966-.873-2.561-.043-2.747,1.073-.243,2.146.959,2.862,2.089l.1.157.157.766a6.3,6.3,0,0,0,.315,2.7l.136,1.51a4.636,4.636,0,0,0,.3,2.3l.064.715V63.3l.086.715a11.068,11.068,0,0,0,.594,4.042,2.039,2.039,0,0,0,.608,1.731c1,1.238,1.967,2.5,2.94,3.763-.207,2.018.086,4.057-.408,6.074C63.6,80.573,63.663,81.3,62.7,81.9Z" transform="translate(11.243 -14.981)" fill="#7b9f1b"/>
    <path id="Path_312" data-name="Path 312" d="M61.41,67.07v.386a1.552,1.552,0,0,0,.107-.286A.811.811,0,0,0,61.41,67.07Z" transform="translate(9.831 -19.085)" fill="#f2f2f2"/>
    <path id="Path_313" data-name="Path 313" d="M100.23,56.4l.286.422Z" transform="translate(-55.856 -16.049)" fill="#e5e5e5"/>
    <path id="Path_314" data-name="Path 314" d="M128.9,28.477l-.086-.114c-.258-1.431-.515-2.862-.816-4.293a15.682,15.682,0,0,1,.9,4.407Z" transform="translate(-103.315 -6.849)" fill="#7b9f1b"/>
    <path id="Path_315" data-name="Path 315" d="M130.392,9.816c-.451-.072-1.431.093-1.023.422,1.667,1.431.873,3.3,1.073,4.937v.193c-.3-1.273-.651-2.547-1.066-3.813C128.146,7.827,126.515,3.978,126.3,0a5.061,5.061,0,0,1,.272.436c.909,1.5,1.867,2.969,2.8,4.443a.179.179,0,0,0,.129.229c.444.715.594,1.61,1.431,2.01a.358.358,0,0,0,.072.293c-.064.272.1.365.308.429,0,.859.715,1.295,1.095,1.953h0c.186.458.379.923.565,1.388C131.873,11.232,131.423,9.973,130.392,9.816Z" transform="translate(-106.037 0)" fill="#7b9f1b"/>
    <path id="Path_316" data-name="Path 316" d="M124.243,30.7c1.431,2.5,1.8,5.352,2.661,8.042.129.415-.236.665-.651.751a11,11,0,0,0-.522-2.955c-.329-1.18-.766-2.332-1.087-3.513C124.522,32.245,124.386,31.473,124.243,30.7Z" transform="translate(-98.709 -8.736)" fill="#7b9f1b"/>
    <path id="Path_317" data-name="Path 317" d="M128.574,10.36c-.064.272.107.365.315.429Z" transform="translate(-103.705 -2.948)" fill="#e5e5e5"/>
    <path id="Path_318" data-name="Path 318" d="M94.306,110.787a9.008,9.008,0,0,1,.079,1.324,83.627,83.627,0,0,0-11.719-7.255c-2.06-1.116-4.035-2.4-6.01-3.656-.494-2.211-1.045-4.4-1.681-6.575-.05-.537.15-1.116-.286-1.588-.129-.587-.258-1.18-.379-1.767,3.169.651,6.088,2.06,9.158,3.019a34.634,34.634,0,0,0,5.266,1.467c1.188,2.146,2.819,4.035,4.214,6.06,1.731,2.5,3.577,5.051,1.352,8.249C94.171,110.222,94.264,110.544,94.306,110.787Z" transform="translate(-32.398 -25.971)" fill="#4c6312"/>
    <path id="Path_319" data-name="Path 319" d="M121.578,84.039c3.169.651,6.088,2.06,9.158,3.019A34.634,34.634,0,0,0,136,88.525a60.012,60.012,0,0,0,2.533-10.581c.508-2.862,1.653-5.538,1.717-8.457q-5.123-1.567-10.3-3.134a5.123,5.123,0,0,0-2.146-.494,24.633,24.633,0,0,0-2.976,1.2c-2.962,1.667-3.8-2.425-1.91.393.207.308-1.989-1.524-1.867-1.166a1.7,1.7,0,0,1-.458,2.082c-.715.558,0-.386-.837.5-1.6-2.4.043.265-3.126.859a13.136,13.136,0,0,1-4.529-.343c-10.252.172-20.476-.644-30.714-1.023a10.525,10.525,0,0,0-3.785.179l6.017,2.318c5.867,1.66,11.583,3.77,17.335,5.759q9.923,3.434,19.811,6.954a4.878,4.878,0,0,1,.816.465Z" transform="translate(-77.6 -18.741)" fill="#aedd2c"/>
    <path id="Path_320" data-name="Path 320" d="M59.5,55.259c-1.059-1.431-2.146-2.9-3.162-4.357C52.9,46.044,49.278,41.315,46.13,36.243c1.717-.715,3.577-.658,5.38-1.188a1.817,1.817,0,0,1,2.511,1.231c1.51,3.506,3.141,6.947,4.715,10.424q1.739,3.828,3.448,7.691C61.276,54.658,60.389,54.952,59.5,55.259Z" transform="translate(19.871 -9.936)" fill="#aedd2c"/>
    <path id="Path_321" data-name="Path 321" d="M61.213,56.591h1.2c-.351-.458-.715-.887-1.4-.751Z" transform="translate(9.22 -15.882)" fill="#e5e5e5"/>
    <path id="Path_322" data-name="Path 322" d="M124.467,19.039c-.215-.315-.429-.637-.637-.959C123.837,18.538,123.873,18.974,124.467,19.039Z" transform="translate(-96.022 -5.145)" fill="#4c6312"/>
    <path id="Path_323" data-name="Path 323" d="M126.128,16.448a.715.715,0,0,0-.429-.808C125.7,15.983,125.742,16.305,126.128,16.448Z" transform="translate(-98.989 -4.45)" fill="#4c6312"/>
    <path id="Path_324" data-name="Path 324" d="M122.389,22.337l-.529-.787C121.9,21.908,121.989,22.223,122.389,22.337Z" transform="translate(-92.594 -6.132)" fill="#4c6312"/>
    <path id="Path_325" data-name="Path 325" d="M122.989,21.315l-.429-.715Z" transform="translate(-93.678 -5.862)" fill="#4c6312"/>
    <path id="Path_326" data-name="Path 326" d="M125.628,17.136c-.079-.222-.15-.444-.458-.408Z" transform="translate(-98.11 -4.759)" fill="#4c6312"/>
    <path id="Path_327" data-name="Path 327" d="M123.523,20.322l-.343-.522Z" transform="translate(-94.64 -5.634)" fill="#4c6312"/>
    <path id="Path_328" data-name="Path 328" d="M52.559,107.4a4.659,4.659,0,0,0-.079-.715c-.594-4.514-1.037-9.05-1.481-13.593-.093-.966-.6-2.246.343-2.862s.9-1.324,1.109-2.146c.494-2.018.2-4.057.408-6.074,1.195,1.61,2.919,2.862,3.434,4.944-.486,6.654-1.588,13.25-2.146,19.9C53.611,107.043,53.074,107.222,52.559,107.4Z" transform="translate(22.432 -23.336)" fill="#7b9f1b"/>
    <path id="Path_329" data-name="Path 329" d="M49.82,88.715c.372-.1.458-.386.494-.715C49.934,88.079,49.849,88.365,49.82,88.715Z" transform="translate(29.009 -25.041)" fill="#f2f2f2"/>
    <path id="Path_330" data-name="Path 330" d="M45.56,86.17a.794.794,0,0,0,.773-.4.844.844,0,0,0-.773.4Z" transform="translate(35.921 -24.406)" fill="#f2f2f2"/>
    <path id="Path_331" data-name="Path 331" d="M47.69,87.242l.429-.372Z" transform="translate(32.667 -24.719)" fill="#f2f2f2"/>
    <path id="Path_332" data-name="Path 332" d="M48.26,87.392c.179.272.293.2.358-.072Z" transform="translate(31.775 -24.847)" fill="#f2f2f2"/>
    <path id="Path_333" data-name="Path 333" d="M45.06,85.682l.372-.272Z" transform="translate(37.161 -24.304)" fill="#f2f2f2"/>
    <path id="Path_334" data-name="Path 334" d="M96.09,13.713c1.016.15,1.431,1.381,2.568,1.388,0,.322.043.615.372.766l.451.408a.451.451,0,0,1,.322.558c0,.458.043.894.637.959a.193.193,0,0,1,.122.272l.343.522v.043l.429.715v-.036c.043.358.129.673.529.787q6.217,10.016,12.427,20.032c.83,1.331,1.746,2.6,2.626,3.906a.215.215,0,0,0,.136.229l.286.422h0c.937,2.289,2.511,4.2,3.735,6.325a24.632,24.632,0,0,0-2.976,1.2l-.973.558a5.208,5.208,0,0,0-.715.315,5.223,5.223,0,0,0-3.756,1.481,6.088,6.088,0,0,0-1.216.207,6.861,6.861,0,0,0-1.545.107,13.136,13.136,0,0,1-4.529-.343,194.554,194.554,0,0,0-5.588-19.1c-.1-.258-.193-.522-.293-.787.415-.086.78-.336.651-.751-.859-2.69-1.245-5.545-2.661-8.042v-.1a1.331,1.331,0,0,1,0-.236,15.683,15.683,0,0,0-.9-4.436q-.193-.916-.408-1.824v-.193c-.2-1.638.594-3.491-1.073-4.937C94.681,13.806,95.64,13.642,96.09,13.713Z" transform="translate(-72.068 -3.898)" fill="#7b9f1b"/>
  </g>
</svg>
