<svg xmlns="http://www.w3.org/2000/svg" width="133.725" height="30.968" viewBox="0 0 133.725 30.968">
  <g id="Layer_2" data-name="Layer 2" transform="translate(0 30.962) rotate(-90)">
    <g id="footer" transform="translate(-0.005)">
      <path id="Path_335" data-name="Path 335" d="M13.42,173.222s.512-53.188,7.379-79.782c0,0,6.651,50.045,5.918,79.782Z" transform="translate(-5.608 -93.44)" fill="#a72e30"/>
      <rect id="Rectangle_585" data-name="Rectangle 585" width="13.355" height="9.73" transform="translate(7.812 81.332)" fill="#fabd03"/>
      <path id="Path_336" data-name="Path 336" d="M8.634,41.59c3.026-1.56,4.376-5.36,3.945-8.729s-2.328-6.4-4.37-9.1S3.815,18.529,2.238,15.5A19.71,19.71,0,0,1,0,6.017C0,4.184.423,2.165,1.866,1.03,3.2-.023,5.061-.029,6.766.012l15.974.4c2.27.058,4.76.2,6.4,1.746C30.979,3.9,31.1,6.762,30.886,9.282c-1.28,13.867-10.2,25.36-22.253,32.308" transform="translate(0.005 92.135)" fill="#c96f74"/>
    </g>
  </g>
</svg>
