<svg id="Layer_2" data-name="Layer 2" xmlns="http://www.w3.org/2000/svg" width="74.048" height="68.05" viewBox="0 0 74.048 68.05">
  <g id="Layer_1" data-name="Layer 1" transform="translate(0)">
    <path id="Path_292" data-name="Path 292" d="M44.521,50.341c.885-2.428,1.619-4.705,2.53-5.7,1.543-1.67,4.161-2.719,6.438-4.376-2.681-1.48-5.312-3.048-7.918-4.68l-9.942,1.265c-2.391,5.148,4.123,13.647,5.844,15.57C43.142,52.643,42.851,50.113,44.521,50.341Z" transform="translate(9.298 9.423)" fill="#a57d51"/>
    <path id="Path_293" data-name="Path 293" d="M40.732,47.84c0,.911-.468,2.378-3.908,2.466-5.059.126-3.074,3.453-3.074,3.453,6.223,3.908,8.93-.708,10.789-5.477C43.275,48.118,42,48.042,40.732,47.84Z" transform="translate(8.836 12.669)" fill="#ccc8c8"/>
    <path id="Path_294" data-name="Path 294" d="M47.441,44.636c1.543-1.67,4.161-2.719,6.438-4.376-2.681-1.48-5.312-3.048-7.918-4.68L36.02,36.845c1.2,3.061,1.1,4.06,2.15,5.881A18.074,18.074,0,0,1,40.5,49.392c.089.519,0,.569.152,1.708,0,.911-.455,2.391-3.908,2.53a3.858,3.858,0,0,0-3.061,1.012,8.98,8.98,0,0,1,1.72,1.265,36.629,36.629,0,0,0,3.086,2.631c2.846.455,4.971-.822,6.64-3.5C47.644,51.947,46.05,46.129,47.441,44.636Z" transform="translate(8.919 9.423)" fill="#a57d51"/>
    <path id="Path_295" data-name="Path 295" d="M20.19,38.7s7.5,10.523,4.693,15.621,3.39,3.6,3.39,3.6C34.2,50.511,31,34.41,31,34.41" transform="translate(5.347 9.113)" fill="#ccc8c8"/>
    <path id="Path_296" data-name="Path 296" d="M20.19,38.716a41.663,41.663,0,0,1,5.262,12.9c1.543-1.429,4.25-1.708,6.122-2.77A55.513,55.513,0,0,0,31,34.34" transform="translate(5.347 9.094)" fill="#a57d51"/>
    <path id="Path_297" data-name="Path 297" d="M68.279,34.15c5.059-5.388,6.008-10.119,5.287-13.749-1.2-6.122-7.361-9.84-13.521-8.854-1.885.316-4.212.632-5.907,2.315C49.433,18.542,55.4,23.6,55.4,23.6c-2.8-3.794,3.794-13.192,10.991-3.3a10.928,10.928,0,0,1,.961,11.485c-1.505-2.593-4.971-4.617-16.595-4.288-17.037.468-20.048-6-20.048-6C31.789,10.878,23.77,6.893,23.77,6.893c0-3.769-3.6-6.893-3.6-6.893l-.759,6.994C7.137,7.108,6.758,13.458,5.088,18.833S1.1,23.248,1.1,23.248C-.4,32.721,13.487,30.47,13.487,30.47c-3.655,8.6,4.945,16.569,4.945,16.569s.43,12.914-4.781,15.608.86,4.844.86,4.844C23.555,64.582,29.8,49.4,29.8,49.4c8.386,1.265,20.882-1.176,20.882-1.176.531,6.881,10.574,9.575,10.574,9.575s2.53,2.049-1.72,4.629-.974,4.528-.974,4.528C70.3,67.491,63.485,53.5,64.459,49.4s6.134-8.07,4.047-14.419A5.361,5.361,0,0,0,68.279,34.15Z" transform="translate(0.262)" fill="#e8e3e3"/>
    <path id="Path_298" data-name="Path 298" d="M68.837,33.48c4.6-5.135,5.4-9.625,4.705-13.129-1.2-6.122-7.361-9.84-13.521-8.854-1.885.316-4.212.632-5.907,2.315-4.705,4.68,1.265,9.739,1.265,9.739-2.8-3.794,3.794-13.192,10.991-3.3a10.928,10.928,0,0,1,.961,11.485c-1.505-2.593-4.971-4.617-16.595-4.288a46.8,46.8,0,0,1-9.562-.582c-2.8,3.6-8.664.721-10.776-2.656-2.264-3.617-1.9-8.221-4.326-11.776-1.189-1.657-2.783-2.96-3.731-4.844a35.668,35.668,0,0,1-2.1-7.222.784.784,0,0,1,0-.291L20.141,0l-.759,6.994C7.113,7.108,6.734,13.458,5.064,18.833S1.08,23.248,1.08,23.248v.316a50.593,50.593,0,0,0,8.183-.379,6.324,6.324,0,0,1,2.631,0c1.417.519,1.67,1.986,1.885,3.326a7.222,7.222,0,0,1-.506,5.262A6.134,6.134,0,0,0,12.78,34.2a24.664,24.664,0,0,0,.1,3.149c5.262.936,7.589,5.059,5.565,9.676a42.03,42.03,0,0,1-2.808,13.685c2.074-.342,4.477.923,6.628,1.075a55.893,55.893,0,0,0,7.589-12.408C38.241,50.644,50.737,48.2,50.737,48.2c2.53,2.074,2.947,2.985,4.756,4.06a17.821,17.821,0,0,1,5.287,4.655c.329.4.3.481.974,1.417.468.772.772,2.3-2.188,4.073-1.492.9-2.049,1.708-2.163,2.391a8.74,8.74,0,0,1,2.112.24c.67.126,3.39.759,3.972.759,2.707-1,3.934-3.162,4.06-6.324.721-3.794-3.529-8.12-3.061-10.119.974-4.085,6.134-8.07,4.047-14.419Z" transform="translate(0.286)" fill="#d0a267"/>
    <ellipse id="Ellipse_8" data-name="Ellipse 8" cx="1.708" cy="1.708" rx="1.708" ry="1.708" transform="translate(0 22.299)" fill="#000300"/>
  </g>
</svg>
