<svg xmlns="http://www.w3.org/2000/svg" viewBox="0 0 133.77 158.03"><defs><style>.cls-1{fill:#9b2d81;}.cls-2{fill:#f46476;}.cls-3{fill:#401b7a;}.cls-4{fill:#933416;}.cls-5{fill:#fabd03;}.cls-6{fill:#fff;}.cls-7{fill:#1b63ff;}.cls-8{fill:#f40006;}.cls-9{fill:#00e308;}.cls-10{fill:#000300;}.cls-11{fill:#d0a267;}.cls-12{fill:#e8e3e3;}</style></defs><title>artist</title><g id="Layer_2" data-name="Layer 2"><g id="CampDrawing"><path class="cls-1" d="M58,24.81c-.7-.47-12.08-27.28-32.29-15S16.66,50.92,9.46,56.56.3,58.73,0,59,33.62,92.18,75.21,77.78c0,0-7.43-3.72-6.27-10.23S86.36,46,82,34.33C75.79,18.12,58,24.81,58,24.81Z"/><path class="cls-2" d="M34.66,109c-.27.6.52,43.75,5.21,48.67s2-46.92,1.29-47.63S34.66,109,34.66,109Z"/><path class="cls-2" d="M45.78,109.31c-.15.64,9.07,42.81,14.63,46.72s-7.2-46.41-8.06-47S45.78,109.31,45.78,109.31Z"/><path class="cls-2" d="M33.68,84.53c-6.59,5-18.87,20.19-18.1,26.86S38.43,88.72,38.43,88.72,40,79.79,33.68,84.53Z"/><path class="cls-2" d="M50.43,84.36c7.24-4,26.17-8.91,31.92-5.47s-30,11.51-30,11.51S43.52,88.15,50.43,84.36Z"/><path class="cls-3" d="M43.55,69.9c-.71.17-16.84,27.3-10.63,41.13s22.5,11.38,23.93.53C58.09,102.17,43.55,69.9,43.55,69.9Z"/><circle class="cls-2" cx="44.21" cy="51.36" r="23.33"/><path class="cls-4" d="M77.62,90.63s-4.69-17.94-2.8-25.25l5.4.18S81.61,71.61,77.62,90.63Z"/><path class="cls-5" d="M80.29,64.37l-5.15-.25s-4.39-3.79,1.29-6.52C80.15,55.81,74,51.29,74,51.29S88.27,54.75,80.29,64.37Z"/><path class="cls-6" d="M21.6,98.46a8.34,8.34,0,0,0-1.21-1.09c-2.73-2.14-5.83-3.34-9.19-2.71a12.31,12.31,0,0,0-8.65,7.52,13,13,0,0,0,.86,11.67,14.76,14.76,0,0,0,7.49,5.43c4.36,1.64,9.26,2.23,13.84.54a15.44,15.44,0,0,0,9.7-11.22c.33-1.78.27-3.72-.83-5a2.55,2.55,0,0,0-2.13-1c-1.68.12-2.62,1.86-3.68,3.22s-2.82,2.44-3.9,1.13a2,2,0,0,1-.38-.79c-.37-1.42-.05-2.92-.19-4A7.21,7.21,0,0,0,21.6,98.46Z"/><path class="cls-5" d="M20.79,102.13l-2.28-1a3.51,3.51,0,0,0-.91,2.16,3.66,3.66,0,0,0,.31,1.12l.57,1.39a2,2,0,0,0,.3.55.63.63,0,0,0,.55.23.84.84,0,0,0,.54-.49,1.81,1.81,0,0,1,.39-.64.45.45,0,0,1,.66,0,2,2,0,0,0,.58-2A2,2,0,0,0,20.06,102"/><path class="cls-7" d="M12.72,98.69,10.42,98a2,2,0,0,0-.32,3.32c.2.16.45.3.53.54.12.43-.34.77-.74,1a1.7,1.7,0,0,0,2.2.65,2.75,2.75,0,0,0,1.43-2,7.77,7.77,0,0,0,.08-1.93,4.23,4.23,0,0,0-.08-.79,2,2,0,0,0-.73-1.16l-.36,1.42"/><path class="cls-8" d="M7.47,109.6l-1.27-.42a5,5,0,0,0-.63,2.76c.11.68.63,1.38,1.32,1.34a2.32,2.32,0,0,0,1.19-.68,1.34,1.34,0,0,1,1.28-.36c.39.18.57.67,1,.85a1.09,1.09,0,0,0,1.29-.51,1.88,1.88,0,0,0-.77-2.74,1.45,1.45,0,0,1-1.84.42,15.27,15.27,0,0,1-1.73-1.15l-.91,1.43"/><path class="cls-9" d="M20.51,115a1.74,1.74,0,0,1,1.37-1.76,1.6,1.6,0,0,1,1.8,1.25,1.49,1.49,0,0,1-1.33,1.69,3.43,3.43,0,0,1,.23,1.26,1.24,1.24,0,0,1-.6,1.06,1.92,1.92,0,0,1-1.37-.08,7.08,7.08,0,0,1-1.81-.78,1.25,1.25,0,0,1-.69-1.2,1.54,1.54,0,0,1,.63-.8l.62-.48a2.34,2.34,0,0,1,.75-.46.83.83,0,0,1,.83.16"/><path class="cls-10" d="M83.89,34a86.31,86.31,0,0,0-22.8-23.53C64.31,10,69.47,9,66.31,7.38S60.89,8,59.68,9.54C47.29,1.17,34-2.9,25.87,2.33c-14.4,9.23,2.57,25,2.57,25l.51.16L28,30.62,68.18,44l1.37-3.73C70.41,40.72,97,54.91,83.89,34Z"/><rect class="cls-11" x="108.41" y="49.99" width="1.7" height="91.8"/><polygon class="cls-11" points="96.39 86.62 89.75 158.03 96.39 158.03 102.17 86.62 96.39 86.62"/><polygon class="cls-11" points="122.14 86.62 128.78 158.03 122.14 158.03 116.36 86.62 122.14 86.62"/><rect class="cls-11" x="95.96" y="129.94" width="26.61" height="3.27"/><polygon class="cls-12" points="89.86 63.15 128.67 63.15 133.77 124.17 84.75 124.17 89.86 63.15"/><rect class="cls-11" x="95.96" y="122.32" width="26.61" height="3.27"/><path class="cls-7" d="M109.86,93.67a7.57,7.57,0,0,0-2.75-.68,2.53,2.53,0,0,0-2.33,1.34,1.56,1.56,0,0,0,1.13,2.16c.91.06,1.66-.87,2.57-.83.73,0,1.26.65,1.74,1.19a2.1,2.1,0,0,0,1.85.93,1.9,1.9,0,0,0,1.13-1,7.72,7.72,0,0,0,1-3.37l-3.76-1.1a1.77,1.77,0,0,1-.77-.36c-.32-.28-.41-.75-.73-1a1.16,1.16,0,0,0-1.52.07,1.92,1.92,0,0,0-.56,1.52,5.72,5.72,0,0,0,.39,1.62"/><path class="cls-8" d="M111.71,87.4a1,1,0,0,1,.35-1.27,1.41,1.41,0,0,1,1.38,0,2.47,2.47,0,0,1,1,1,1.6,1.6,0,0,1,.11,1.76c-.23.28-.61.42-.82.71a1.55,1.55,0,0,0,.27,1.72,3.31,3.31,0,0,1,.85,1.62,1.74,1.74,0,0,1-1.78,1.57,5.1,5.1,0,0,1-2.46-.86l-3.79-2.12a4.57,4.57,0,0,1-1.17-.82,1.65,1.65,0,0,1-.51-1.28,1,1,0,0,1,.93-.92c.58,0,1,.58,1.3,1s.93.93,1.43.64.45-.86.37-1.35a1.64,1.64,0,0,1,.18-1.43c.42-.43,1.14-.22,1.68,0s1.19.56,1.69.23l-.33-.12"/></g></g></svg>