<svg xmlns="http://www.w3.org/2000/svg" xmlns:xlink="http://www.w3.org/1999/xlink" viewBox="0 0 1941.44 873.72"><defs><style>.cls-1{fill:none;}.cls-2{fill:#fabd03;stroke:#fff;stroke-miterlimit:10;stroke-width:4px;}.cls-3{clip-path:url(#clip-path);}.cls-4{fill:#383838;}</style><clipPath id="clip-path"><path class="cls-1" d="M0,672.34H1941.44l-.65,201.18c.7,10.46-906.28-381.73-1940.79,0Z"/></clipPath></defs><title>Asset 33</title><g id="Layer_2" data-name="Layer 2"><g id="Layer_1-2" data-name="Layer 1"><rect class="cls-2" x="23.26" y="315.24" width="179.91" height="357.33"/><rect class="cls-2" x="62.44" y="344.62" width="31.19" height="50.36"/><rect class="cls-2" x="132.81" y="344.62" width="31.19" height="50.36"/><rect class="cls-2" x="62.44" y="423.76" width="31.19" height="50.36"/><rect class="cls-2" x="132.81" y="423.76" width="31.19" height="50.36"/><rect class="cls-2" x="62.44" y="502.9" width="31.19" height="50.36"/><rect class="cls-2" x="132.81" y="502.9" width="31.19" height="50.36"/><rect class="cls-2" x="62.44" y="580.24" width="46.43" height="92.33"/><rect class="cls-2" x="117.57" y="580.24" width="46.43" height="92.33"/><rect class="cls-2" x="651.7" y="314.04" width="179.91" height="357.33"/><rect class="cls-2" x="690.88" y="343.42" width="31.19" height="50.36"/><rect class="cls-2" x="761.25" y="343.42" width="31.19" height="50.36"/><rect class="cls-2" x="690.88" y="422.56" width="31.19" height="50.36"/><rect class="cls-2" x="761.25" y="422.56" width="31.19" height="50.36"/><rect class="cls-2" x="690.88" y="501.7" width="31.19" height="50.36"/><rect class="cls-2" x="761.25" y="501.7" width="31.19" height="50.36"/><rect class="cls-2" x="690.88" y="579.04" width="46.43" height="92.33"/><rect class="cls-2" x="746.01" y="579.04" width="46.43" height="92.33"/><rect class="cls-2" x="203.18" y="250.49" width="165.79" height="422.08"/><rect class="cls-2" x="246.66" y="366.95" width="80.49" height="6.74"/><rect class="cls-2" x="258.5" y="294.56" width="54.59" height="72.4"/><rect class="cls-2" x="266.46" y="300.85" width="38.3" height="66.1"/><rect class="cls-2" x="246.66" y="467.38" width="80.49" height="6.74"/><rect class="cls-2" x="258.5" y="394.98" width="54.59" height="72.4"/><rect class="cls-2" x="266.46" y="401.28" width="38.3" height="66.1"/><rect class="cls-2" x="245.36" y="567.35" width="80.49" height="6.74"/><rect class="cls-2" x="257.21" y="494.96" width="54.59" height="72.4"/><rect class="cls-2" x="265.16" y="501.25" width="38.3" height="66.1"/><path class="cls-2" d="M258.5,672.57V610s3.09-18.38,28.4-18.38c20.08,0,26.19,17.58,26.19,17.58v63.35Z"/><rect class="cls-2" x="349.72" y="130.58" width="324.18" height="28.18"/><rect class="cls-2" x="368.97" y="158.76" width="282.73" height="513.81"/><rect class="cls-2" x="469.87" y="580.24" width="80.92" height="92.33"/><rect class="cls-2" x="394.38" y="179.34" width="72.53" height="9.19"/><rect class="cls-2" x="394.38" y="272.08" width="72.53" height="9.19"/><rect class="cls-2" x="402.77" y="188.54" width="54.28" height="83.54"/><rect class="cls-2" x="409.18" y="193.73" width="41.45" height="40.77"/><rect class="cls-2" x="409.18" y="240.1" width="41.45" height="25.58"/><rect class="cls-2" x="394.38" y="311.85" width="72.53" height="9.19"/><rect class="cls-2" x="394.38" y="404.58" width="72.53" height="9.19"/><rect class="cls-2" x="402.77" y="321.04" width="54.28" height="83.54"/><rect class="cls-2" x="409.18" y="326.23" width="41.45" height="40.77"/><rect class="cls-2" x="409.18" y="372.6" width="41.45" height="25.58"/><rect class="cls-2" x="394.38" y="451.94" width="72.53" height="9.19"/><rect class="cls-2" x="394.38" y="544.67" width="72.53" height="9.19"/><rect class="cls-2" x="402.77" y="461.13" width="54.28" height="83.54"/><rect class="cls-2" x="409.18" y="466.33" width="41.45" height="40.77"/><rect class="cls-2" x="409.18" y="512.69" width="41.45" height="25.58"/><rect class="cls-2" x="478.26" y="451.94" width="72.53" height="9.19"/><rect class="cls-2" x="478.26" y="544.67" width="72.53" height="9.19"/><rect class="cls-2" x="486.65" y="461.13" width="54.28" height="83.54"/><rect class="cls-2" x="493.06" y="466.33" width="41.45" height="40.77"/><rect class="cls-2" x="493.06" y="512.69" width="41.45" height="25.58"/><rect class="cls-2" x="563.87" y="451.94" width="72.53" height="9.19"/><rect class="cls-2" x="563.87" y="544.67" width="72.53" height="9.19"/><rect class="cls-2" x="572.26" y="461.13" width="54.28" height="83.54"/><rect class="cls-2" x="578.67" y="466.33" width="41.45" height="40.77"/><rect class="cls-2" x="578.67" y="512.69" width="41.45" height="25.58"/><rect class="cls-2" x="478.26" y="311.85" width="72.53" height="9.19"/><rect class="cls-2" x="478.26" y="404.58" width="72.53" height="9.19"/><rect class="cls-2" x="486.65" y="321.04" width="54.28" height="83.54"/><rect class="cls-2" x="493.06" y="326.23" width="41.45" height="40.77"/><rect class="cls-2" x="493.06" y="372.6" width="41.45" height="25.58"/><rect class="cls-2" x="564.61" y="311.85" width="72.53" height="9.19"/><rect class="cls-2" x="564.61" y="404.58" width="72.53" height="9.19"/><rect class="cls-2" x="573" y="321.04" width="54.28" height="83.54"/><rect class="cls-2" x="579.41" y="326.23" width="41.45" height="40.77"/><rect class="cls-2" x="579.41" y="372.6" width="41.45" height="25.58"/><rect class="cls-2" x="479" y="179.34" width="72.53" height="9.19"/><rect class="cls-2" x="479" y="272.08" width="72.53" height="9.19"/><rect class="cls-2" x="487.39" y="188.54" width="54.28" height="83.54"/><rect class="cls-2" x="493.8" y="193.73" width="41.45" height="40.77"/><rect class="cls-2" x="493.8" y="240.1" width="41.45" height="25.58"/><rect class="cls-2" x="565.35" y="179.34" width="72.53" height="9.19"/><rect class="cls-2" x="565.35" y="272.08" width="72.53" height="9.19"/><rect class="cls-2" x="573.74" y="188.54" width="54.28" height="83.54"/><rect class="cls-2" x="580.15" y="193.73" width="41.45" height="40.77"/><rect class="cls-2" x="580.15" y="240.1" width="41.45" height="25.58"/><rect class="cls-2" x="798.64" y="2" width="389.11" height="34.8"/><polygon class="cls-2" points="1155.04 36.8 830.68 36.8 830.68 671.39 1156.24 671.39 1155.04 36.8"/><rect class="cls-2" x="936.43" y="557.36" width="134.76" height="114.03"/><rect class="cls-2" x="863" y="62.23" width="120.79" height="11.35"/><rect class="cls-2" x="863" y="176.75" width="120.79" height="11.35"/><rect class="cls-2" x="876.96" y="73.58" width="90.39" height="103.17"/><rect class="cls-2" x="887.65" y="80" width="69.02" height="50.35"/><rect class="cls-2" x="887.65" y="137.26" width="69.02" height="31.59"/><rect class="cls-2" x="863" y="225.87" width="120.79" height="11.35"/><rect class="cls-2" x="863" y="340.4" width="120.79" height="11.35"/><rect class="cls-2" x="876.96" y="237.23" width="90.39" height="103.17"/><rect class="cls-2" x="887.65" y="243.64" width="69.02" height="50.35"/><rect class="cls-2" x="887.65" y="300.91" width="69.02" height="31.59"/><rect class="cls-2" x="863" y="398.9" width="120.79" height="11.35"/><rect class="cls-2" x="863" y="513.43" width="120.79" height="11.35"/><rect class="cls-2" x="876.96" y="410.25" width="90.39" height="103.17"/><rect class="cls-2" x="887.65" y="416.67" width="69.02" height="50.35"/><rect class="cls-2" x="887.65" y="473.93" width="69.02" height="31.59"/><rect class="cls-2" x="1002.68" y="398.9" width="120.79" height="11.35"/><rect class="cls-2" x="1002.68" y="513.43" width="120.79" height="11.35"/><rect class="cls-2" x="1016.65" y="410.25" width="90.39" height="103.17"/><rect class="cls-2" x="1027.33" y="416.67" width="69.02" height="50.35"/><rect class="cls-2" x="1027.33" y="473.93" width="69.02" height="31.59"/><rect class="cls-2" x="1002.68" y="225.87" width="120.79" height="11.35"/><rect class="cls-2" x="1002.68" y="340.4" width="120.79" height="11.35"/><rect class="cls-2" x="1016.65" y="237.23" width="90.39" height="103.17"/><rect class="cls-2" x="1027.33" y="243.64" width="69.02" height="50.35"/><rect class="cls-2" x="1027.33" y="300.91" width="69.02" height="31.59"/><rect class="cls-2" x="1003.91" y="62.23" width="120.79" height="11.35"/><rect class="cls-2" x="1003.91" y="176.75" width="120.79" height="11.35"/><rect class="cls-2" x="1017.88" y="73.58" width="90.39" height="103.17"/><rect class="cls-2" x="1028.57" y="80" width="69.02" height="50.35"/><rect class="cls-2" x="1028.57" y="137.26" width="69.02" height="31.59"/><rect class="cls-2" x="1157.11" y="313.91" width="402.65" height="357.33"/><rect class="cls-2" x="1244.78" y="343.28" width="69.81" height="50.36"/><rect class="cls-2" x="1402.27" y="343.28" width="69.81" height="50.36"/><rect class="cls-2" x="1244.78" y="422.42" width="69.81" height="50.36"/><rect class="cls-2" x="1402.27" y="422.42" width="69.81" height="50.36"/><rect class="cls-2" x="1244.78" y="501.56" width="69.81" height="50.36"/><rect class="cls-2" x="1402.27" y="501.56" width="69.81" height="50.36"/><rect class="cls-2" x="1244.78" y="578.91" width="103.91" height="92.33"/><rect class="cls-2" x="1368.17" y="578.91" width="103.91" height="92.33"/><rect class="cls-2" x="1559.75" y="256.78" width="165.56" height="415.11"/><rect class="cls-2" x="1603.18" y="371.32" width="80.38" height="6.63"/><rect class="cls-2" x="1615" y="300.12" width="54.51" height="71.2"/><rect class="cls-2" x="1622.95" y="306.31" width="38.25" height="65.01"/><rect class="cls-2" x="1603.18" y="470.09" width="80.38" height="6.63"/><rect class="cls-2" x="1615" y="398.89" width="54.51" height="71.2"/><rect class="cls-2" x="1622.95" y="405.08" width="38.25" height="65.01"/><rect class="cls-2" x="1601.88" y="568.41" width="80.38" height="6.63"/><rect class="cls-2" x="1613.71" y="497.21" width="54.51" height="71.2"/><rect class="cls-2" x="1621.65" y="503.4" width="38.25" height="65.01"/><path class="cls-2" d="M1615,671.9V610.38s3.08-18.09,28.37-18.09c20,0,26.14,17.3,26.14,17.3V671.9Z"/><rect class="cls-2" x="1706.1" y="219.92" width="233.34" height="23.5"/><polygon class="cls-2" points="1919.83 243.42 1725.32 243.42 1725.32 671.89 1920.55 671.89 1919.83 243.42"/><rect class="cls-2" x="1788.73" y="594.9" width="80.81" height="77"/><rect class="cls-2" x="1744.69" y="260.58" width="72.43" height="7.67"/><rect class="cls-2" x="1744.69" y="337.91" width="72.43" height="7.67"/><rect class="cls-2" x="1753.07" y="268.25" width="54.2" height="69.66"/><rect class="cls-2" x="1759.48" y="272.58" width="41.39" height="34"/><rect class="cls-2" x="1759.48" y="311.25" width="41.39" height="21.33"/><rect class="cls-2" x="1744.69" y="371.08" width="72.43" height="7.67"/><rect class="cls-2" x="1744.69" y="448.41" width="72.43" height="7.67"/><rect class="cls-2" x="1753.07" y="378.74" width="54.2" height="69.66"/><rect class="cls-2" x="1759.48" y="383.08" width="41.39" height="34"/><rect class="cls-2" x="1759.48" y="421.74" width="41.39" height="21.33"/><rect class="cls-2" x="1744.69" y="487.9" width="72.43" height="7.67"/><rect class="cls-2" x="1744.69" y="565.23" width="72.43" height="7.67"/><rect class="cls-2" x="1753.07" y="495.57" width="54.2" height="69.66"/><rect class="cls-2" x="1759.48" y="499.9" width="41.39" height="34"/><rect class="cls-2" x="1759.48" y="538.57" width="41.39" height="21.33"/><rect class="cls-2" x="1828.46" y="487.9" width="72.43" height="7.67"/><rect class="cls-2" x="1828.46" y="565.23" width="72.43" height="7.67"/><rect class="cls-2" x="1836.84" y="495.57" width="54.2" height="69.66"/><rect class="cls-2" x="1843.24" y="499.9" width="41.39" height="34"/><rect class="cls-2" x="1843.24" y="538.57" width="41.39" height="21.33"/><rect class="cls-2" x="1828.46" y="371.08" width="72.43" height="7.67"/><rect class="cls-2" x="1828.46" y="448.41" width="72.43" height="7.67"/><rect class="cls-2" x="1836.84" y="378.74" width="54.2" height="69.66"/><rect class="cls-2" x="1843.24" y="383.08" width="41.39" height="34"/><rect class="cls-2" x="1843.24" y="421.74" width="41.39" height="21.33"/><rect class="cls-2" x="1829.2" y="260.58" width="72.43" height="7.67"/><rect class="cls-2" x="1829.2" y="337.91" width="72.43" height="7.67"/><rect class="cls-2" x="1837.58" y="268.25" width="54.2" height="69.66"/><rect class="cls-2" x="1843.98" y="272.58" width="41.39" height="34"/><rect class="cls-2" x="1843.98" y="311.25" width="41.39" height="21.33"/><g class="cls-3"><rect class="cls-4" y="672.34" width="20.27" height="201.38"/><rect class="cls-4" x="29.42" y="672.34" width="20.27" height="201.38"/><rect class="cls-4" x="58.84" y="672.34" width="20.27" height="201.38"/><rect class="cls-4" x="88.26" y="672.34" width="20.27" height="201.38"/><rect class="cls-4" x="117.69" y="672.34" width="20.27" height="201.38"/><rect class="cls-4" x="147.11" y="672.34" width="20.27" height="201.38"/><rect class="cls-4" x="176.53" y="672.34" width="20.27" height="201.38"/><rect class="cls-4" x="205.95" y="672.34" width="20.27" height="201.38"/><rect class="cls-4" x="235.37" y="672.34" width="20.27" height="201.38"/><rect class="cls-4" x="264.79" y="672.34" width="20.27" height="201.38"/><rect class="cls-4" x="294.22" y="672.34" width="20.27" height="201.38"/><rect class="cls-4" x="323.64" y="672.34" width="20.27" height="201.38"/><rect class="cls-4" x="353.06" y="672.34" width="20.27" height="201.38"/><rect class="cls-4" x="382.48" y="672.34" width="20.27" height="201.38"/><rect class="cls-4" x="411.9" y="672.34" width="20.27" height="201.38"/><rect class="cls-4" x="441.32" y="672.34" width="20.27" height="201.38"/><rect class="cls-4" x="470.74" y="672.34" width="20.27" height="201.38"/><rect class="cls-4" x="500.17" y="672.34" width="20.27" height="201.38"/><rect class="cls-4" x="529.59" y="672.34" width="20.27" height="201.38"/><rect class="cls-4" x="559.01" y="672.34" width="20.27" height="201.38"/><rect class="cls-4" x="588.43" y="672.34" width="20.27" height="201.38"/><rect class="cls-4" x="617.85" y="672.34" width="20.27" height="201.38"/><rect class="cls-4" x="647.27" y="672.34" width="20.27" height="201.38"/><rect class="cls-4" x="676.69" y="672.34" width="20.27" height="201.38"/><rect class="cls-4" x="706.12" y="672.34" width="20.27" height="201.38"/><rect class="cls-4" x="735.54" y="672.34" width="20.27" height="201.38"/><rect class="cls-4" x="764.96" y="672.34" width="20.27" height="201.38"/><rect class="cls-4" x="794.38" y="672.34" width="20.27" height="201.38"/><rect class="cls-4" x="823.8" y="672.34" width="20.27" height="201.38"/><rect class="cls-4" x="853.22" y="672.34" width="20.27" height="201.38"/><rect class="cls-4" x="882.65" y="672.34" width="20.27" height="201.38"/><rect class="cls-4" x="912.07" y="672.34" width="20.27" height="201.38"/><rect class="cls-4" x="941.49" y="672.34" width="20.27" height="201.38"/><rect class="cls-4" x="970.91" y="672.34" width="20.27" height="201.38"/><rect class="cls-4" x="1000.33" y="672.34" width="20.27" height="201.38"/><rect class="cls-4" x="1029.75" y="672.34" width="20.27" height="201.38"/><rect class="cls-4" x="1059.17" y="672.34" width="20.27" height="201.38"/><rect class="cls-4" x="1088.6" y="672.34" width="20.27" height="201.38"/><rect class="cls-4" x="1118.02" y="672.34" width="20.27" height="201.38"/><rect class="cls-4" x="1147.44" y="672.34" width="20.27" height="201.38"/><rect class="cls-4" x="1176.86" y="672.34" width="20.27" height="201.38"/><rect class="cls-4" x="1206.28" y="672.34" width="20.27" height="201.38"/><rect class="cls-4" x="1235.7" y="672.34" width="20.27" height="201.38"/><rect class="cls-4" x="1265.13" y="672.34" width="20.27" height="201.38"/><rect class="cls-4" x="1294.55" y="672.34" width="20.27" height="201.38"/><rect class="cls-4" x="1323.97" y="672.34" width="20.27" height="201.38"/><rect class="cls-4" x="1353.39" y="672.34" width="20.27" height="201.38"/><rect class="cls-4" x="1382.81" y="672.34" width="20.27" height="201.38"/><rect class="cls-4" x="1412.23" y="672.34" width="20.27" height="201.38"/><rect class="cls-4" x="1441.65" y="672.34" width="20.27" height="201.38"/><rect class="cls-4" x="1471.08" y="672.34" width="20.27" height="201.38"/><rect class="cls-4" x="1500.5" y="672.34" width="20.27" height="201.38"/><rect class="cls-4" x="1529.92" y="672.34" width="20.27" height="201.38"/><rect class="cls-4" x="1559.34" y="672.34" width="20.27" height="201.38"/><rect class="cls-4" x="1588.76" y="672.34" width="20.27" height="201.38"/><rect class="cls-4" x="1618.18" y="672.34" width="20.27" height="201.38"/><rect class="cls-4" x="1647.6" y="672.34" width="20.27" height="201.38"/><rect class="cls-4" x="1677.03" y="672.34" width="20.27" height="201.38"/><rect class="cls-4" x="1706.45" y="672.34" width="20.27" height="201.38"/><rect class="cls-4" x="1735.87" y="672.34" width="20.27" height="201.38"/><rect class="cls-4" x="1765.29" y="672.34" width="20.27" height="201.38"/><rect class="cls-4" x="1794.71" y="672.34" width="20.27" height="201.38"/><rect class="cls-4" x="1824.13" y="672.34" width="20.27" height="201.38"/><rect class="cls-4" x="1853.56" y="672.34" width="20.27" height="201.38"/><rect class="cls-4" x="1882.98" y="672.34" width="20.27" height="201.38"/><rect class="cls-4" x="1912.4" y="672.34" width="20.27" height="201.38"/></g></g></g></svg>