<svg xmlns="http://www.w3.org/2000/svg" viewBox="0 0 101.89 155.66"><defs><style>.cls-1{fill:#e8496b;}.cls-2{fill:#401b7a;}.cls-3{fill:#f46476;}.cls-4{fill:#9b2d81;}.cls-5{fill:#35140c;}.cls-6{fill:#f99200;}.cls-7{fill:#383838;}.cls-8{font-size:4.7px;}.cls-8,.cls-9{font-family:Montserrat-ExtraLight, Montserrat;font-weight:200;}.cls-9{font-size:2.99px;}</style></defs><title>coder</title><g id="Layer_2" data-name="Layer 2"><g id="Layer_1-2" data-name="Layer 1"><path class="cls-1" d="M62.64,77.13s-4.84,15.23-9.29,15.5S36.5,92.2,34.19,95.24s10.73,6.42,22.69,2.61S72,60.73,62.64,77.13Z"/><path class="cls-1" d="M82.82,113.71a8,8,0,0,0-6.29-4.48c-7.39-1-25.3-2.6-30.72,3-6.89,7.15-7.66,36.51-1.28,37s5.25-24.61,7.66-28.08c5.19-7.49,25.91-.77,29.81-3.32C83.62,116.81,83.5,115.21,82.82,113.71Z"/><path class="cls-2" d="M59.36,58.28l4.33,43c.65,6.42,1.35,13,4.36,18.73s8.93,10.37,15.37,9.92c8.71-.62,14.41-10.38,13.85-19.09S91.75,94.38,86.93,87.1L65.19,54.25,58.05,57.8"/><path class="cls-3" d="M42.18,16.59C29.13,22.48,23,39.67,28.4,52.91S49.43,74,63.52,71.48c7-1.26,13.93-5.1,17.33-11.39,2.74-5.05,3-11.17,1.73-16.78A35.47,35.47,0,0,0,37.7,16.91"/><path class="cls-4" d="M31.26,22.78c.08-8.61,6-16.57,13.86-20.18S62.21-.65,70.27,2.39C85.6,8.17,96.65,23.83,97,40.21c.12,6-1.1,12-2.31,18-.7,3.43.46,4.72,7.24,5.6C90.7,74.5,80.62,66.57,77,61.75S71.72,51,69.14,45.6,62.65,34.83,56.89,33.12c-3.72-1.1-7.69-.54-11.57-.37s-8.08-.19-11-2.71S30.69,22.16,33.9,20"/><path class="cls-5" d="M94.85,69.12v83.74h3.83c-.77,0,0-83.74,0-83.74Z"/><path class="cls-5" d="M56.19,131.7H96.81V123c0,1.75-40.62,0-40.62,0Z"/><path class="cls-3" d="M86.16,117.29a8,8,0,0,0-6.29-4.48c-7.39-1-25.3-2.61-30.72,3-6.89,7.15-7.66,36.51-1.28,37s5.25-24.61,7.66-28.09c5.19-7.49,25.91-.76,29.81-3.32C87,120.38,86.84,118.79,86.16,117.29Z"/><path class="cls-5" d="M56.19,128v24.88h3.64c-.73,0,0-24.88,0-24.88Z"/><path class="cls-3" d="M66.47,81.86s-7,14.36-11.43,14S38.43,93,35.7,95.65s9.68,7.91,22.07,5.87S78.15,67,66.47,81.86Z"/><rect class="cls-6" y="103.3" width="57.27" height="52.36" rx="1.82"/><polygon class="cls-7" points="23.28 81.78 23.28 103.3 49.49 103.3 49.49 100.93 24.64 100.93 24.64 81.78 23.28 81.78"/><text class="cls-8" transform="matrix(0.95, -0.31, 0.31, 0.95, 10.51, 87.38)">click</text><text class="cls-9" transform="translate(31.26 86.86) rotate(26.28)">click</text><text class="cls-9" transform="matrix(0.86, -0.51, 0.51, 0.86, 13.97, 100.48)">click</text></g></g></svg>