<svg xmlns="http://www.w3.org/2000/svg" viewBox="0 0 142.29 135.42"><defs><style>.cls-1{fill:#f63242;}.cls-2{fill:#02c9a8;}.cls-3{fill:none;stroke:#02c9a8;stroke-miterlimit:10;stroke-width:5px;}</style></defs><title>cupcake</title><g id="Layer_2" data-name="Layer 2"><g id="footer"><path class="cls-1" d="M43.65,127.58c-4.83-13.84-9.51-27.35-14.26-40.83-1.41-4-1.38-8.08,2.3-10.28,2.32-1.39,6.54-2,8.67-.73,2.42,1.39,4.31,5,5,8,2.76,12.85,5,25.81,7.42,38.74.34,1.77.75,3.54,1.16,5.47h5.43c-2-12.63-4-24.9-6-37.18-.35-2.14-.75-4.27-1-6.41-.71-5.4,1.9-9.1,6.8-9.75,4.73-.63,8.78,2.49,9.21,7.68s.29,10.32.35,15.49q.14,13.24.21,26.49c0,2.08,0,4.57,2.92,3.79,1.22-.32,2.72-2.54,2.75-3.93.34-13.16.19-26.34.66-39.49.1-2.86,1.35-6.77,3.43-8.16,2.25-1.5,6.86-1.81,9-.43s3.78,5.66,3.43,8.39c-1.69,13.37-4.13,26.64-6.29,39.95-.15,1-.13,2-.23,3.55l5.09.28C92.36,113.85,95,99.83,97.7,85.81c.83-4.43,1-9.62,6.57-10.57a11.57,11.57,0,0,1,8.48,2.12c4,3.4,1.87,8,.45,12.06-3.78,10.84-7.61,21.66-11.4,32.49-.64,1.85-1.15,3.74-1.73,5.61,3.79,1.65,5.48.28,6.67-3,4.47-12.37,9.08-24.68,13.74-37,4.37-11.56,8.76-14.14,21.81-12.68L128.82,100c-5.66,10.57-11.39,21.09-16.91,31.73-1.41,2.71-3.12,3.74-6.22,3.72-22.66-.13-45.33,0-68-.15-1.69,0-4.25-.78-4.93-2C22.18,114,11.84,94.68,1.41,75.29c10.52-2.7,17.31.82,20.93,10.52,4.76,12.78,9.71,25.5,14.27,38.35C37.89,127.75,39.55,129.12,43.65,127.58Z"/><path class="cls-2" d="M0,65.18H142.29S76.6-27.75,0,65.18Z"/><circle class="cls-1" cx="111.17" cy="36.26" r="13.51"/><path class="cls-3" d="M116.58,23.88s9.25-24.74,22.93-21"/></g></g></svg>