<svg xmlns="http://www.w3.org/2000/svg" viewBox="0 0 101.89 155.66"><defs><style>.cls-1{fill:#e8496b;}.cls-2{fill:#401b7a;}.cls-3{fill:#f46476;}.cls-4{fill:#9b2d81;}.cls-5{fill:#f99200;}.cls-6{fill:#874133;}.cls-7{fill:#383838;}</style></defs><title>digitalArtist</title><g id="Layer_2" data-name="Layer 2"><g id="Layer_1-2" data-name="Layer 1"><path class="cls-1" d="M41.48,80.8s-.2,16,3.94,17.63,16.12,4.9,17.36,8.52-12.21,2.71-22.36-4.68S37.74,62.26,41.48,80.8Z"/><path class="cls-1" d="M19.07,113.71a8,8,0,0,1,6.29-4.48c7.39-1,25.3-2.6,30.72,3,6.89,7.15,7.66,36.51,1.27,37s-5.25-24.61-7.65-28.08c-5.2-7.49-25.91-.77-29.81-3.32C18.27,116.81,18.38,115.21,19.07,113.71Z"/><path class="cls-2" d="M42.53,58.28l-4.33,43c-.65,6.42-1.35,13-4.36,18.73s-8.94,10.37-15.37,9.92c-8.71-.62-14.41-10.38-13.86-19.09S10.14,94.38,15,87.1L36.7,54.25l7.13,3.55"/><path class="cls-3" d="M59.71,16.59c13.05,5.89,19.23,23.08,13.78,36.32S52.46,74,38.36,71.48c-7-1.26-13.93-5.1-17.33-11.39-2.73-5.05-3-11.17-1.72-16.78a35.46,35.46,0,0,1,44.87-26.4"/><path class="cls-4" d="M70.63,22.78c-.08-8.61-6-16.57-13.86-20.18S39.67-.65,31.62,2.39C16.29,8.17,5.23,23.83,4.92,40.21c-.11,6,1.11,12,2.32,18,.7,3.43-.46,4.72-7.24,5.6,11.19,10.72,21.27,2.79,24.84-2S30.17,51,32.75,45.6,39.24,34.83,45,33.12c3.72-1.1,7.69-.54,11.57-.37s8.08-.19,11-2.71S71.2,22.16,68,20"/><path class="cls-5" d="M7,69.12v83.74H3.21c.76,0,0-83.74,0-83.74Z"/><path class="cls-5" d="M45.69,131.7H5.08V123c0,1.75,40.61,0,40.61,0Z"/><path class="cls-3" d="M15.73,117.29A8,8,0,0,1,22,112.81c7.39-1,25.3-2.61,30.72,3,6.89,7.15,7.66,36.51,1.27,37s-5.25-24.61-7.65-28.09c-5.2-7.49-25.91-.76-29.81-3.32C14.93,120.38,15,118.79,15.73,117.29Z"/><path class="cls-5" d="M45.69,128v24.88H42.06c.72,0,0-24.88,0-24.88Z"/><polygon points="59.97 87.59 67.65 100.03 67.65 101.56 66.08 100.47 59.46 87.9 59.97 87.59"/><path class="cls-3" d="M35.41,81.86s7,14.36,11.44,14S63.46,93,66.19,95.65s-9.69,7.91-22.07,5.87S23.74,67,35.41,81.86Z"/><rect class="cls-6" x="44.61" y="103.3" width="57.27" height="52.36" rx="1.82"/><polygon class="cls-7" points="100.49 81.78 100.49 103.3 81.25 103.3 81.25 100.93 99.49 100.93 99.49 81.78 100.49 81.78"/><polygon points="78.36 103.3 78.36 101.81 63.55 101.81 63.55 103.22 78.36 103.3"/></g></g></svg>