<svg xmlns="http://www.w3.org/2000/svg" viewBox="0 0 35.96 63.36"><defs><style>.cls-1{fill:#e8e3e3;}.cls-2{fill:#d0a267;}.cls-3{fill:#000300;}</style></defs><title>dogFront</title><g id="Layer_2" data-name="Layer 2"><g id="Layer_1-2" data-name="Layer 1"><path class="cls-1" d="M28.64,56.23c3.66-1.75,5.65-4.62,2.66-9.1-6-9-10.53,1.85-10.53,1.85l.51-8.3-4.44-3.12v-.65l-.47.33-.46-.33v.65l-4.44,3.12L12,49S7.45,38.13,1.45,47.13c-3,4.45-1,7.31,2.58,9.06-1.54.64-3.12,1.72-2.67,3.38h9.45L9,57.8a38.21,38.21,0,0,0,6.91.8v0h.93v0a39.47,39.47,0,0,0,6.7-.75l-1.77,1.72h9.45C31.66,57.94,30.15,56.87,28.64,56.23Z"/><path class="cls-2" d="M24.92,59.57q2.35-1.41,4.68-2.86a8.59,8.59,0,0,0-1-.48c3.66-1.75,5.65-4.62,2.66-9.1-6-9-10.53,1.85-10.53,1.85l.51-8.3-4.44-3.12v-.65l-.47.33-.46-.33v.65l-4.44,3.12L12,49S7.45,38.13,1.45,47.13c-3,4.45-1,7.31,2.58,9.06A7.35,7.35,0,0,0,2.47,57a3.47,3.47,0,0,1,.45.26,21.17,21.17,0,0,0,3.85,2.27h4L9,57.8c.9.2,1.82.34,2.73.46a8.64,8.64,0,0,1-.06-3.85.43.43,0,0,1,0,0,3.36,3.36,0,0,1-2.74.87A10.78,10.78,0,0,1,4.4,53.34a3.43,3.43,0,0,1,4.22-5.4l.11.07a8.1,8.1,0,0,0,.92.38l.21,0a3.51,3.51,0,0,1,2.81,2.48A9,9,0,0,0,13,48.54c0-2.12-.82-4-.39-6.11.86-4.31,7.66-3.4,6.79.92-.39,1.94.58,4.16.42,6.2,0,.12,0,.23-.05.35l.13.23.07-.05.49-.34c.36-.26.71-.53,1.08-.78a10.6,10.6,0,0,1,3-1.51A3.54,3.54,0,0,1,29,49.37c.7,1.56-.18,4-1.91,4.45-.29.08-.55.18-.82.28l-.1,0c-.34.21-.67.43-1,.67a28.1,28.1,0,0,1-2.85,1.82,2.46,2.46,0,0,1-1.47.28,10.49,10.49,0,0,1-.2,1.4c.95-.12,1.92-.27,2.88-.46l-1.77,1.72Z"/><path class="cls-1" d="M16.44,26.4l-.76.51-.77-.51s-11.36-3-8.62,12.45,1.47,20.3,1.47,20.3S4.44,63.43,9,63.36s3.83-16.47,3.83-16.47-1-6.32,2.81-6.06c3.76-.26,2.8,6.06,2.8,6.06s-.76,16.41,3.83,16.47,1.28-4.21,1.28-4.21-1.28-4.85,1.47-20.3S16.44,26.4,16.44,26.4Z"/><path class="cls-2" d="M8.06,55.4a8.89,8.89,0,0,1,4.82-3.7c.08-2.7,0-4.81,0-4.81s-1-6.32,2.81-6.06c3.76-.26,2.8,6.06,2.8,6.06s-.1,2.23,0,5a10.3,10.3,0,0,1,4.82,2.79,98.45,98.45,0,0,1,1.76-15.87C27.8,23.4,16.44,26.4,16.44,26.4l-.76.51-.77-.51s-11.36-3-8.62,12.45A93.57,93.57,0,0,1,8.06,55.4Z"/><path class="cls-1" d="M7.76,26s10.19,3.44,16.1-.36S28.7,11.5,26.31,10.26C20,7,9.51,6.13,4.14,11.79S7.76,26,7.76,26Z"/><path class="cls-2" d="M7.68,25.74l-.18-.1.26.36Z"/><path class="cls-2" d="M23.59,26l.27-.36-.18.1Z"/><path class="cls-2" d="M26.48,7.53S26.31,2.09,23.68,0c0,0-2.69,1.06-3.2,5.83a6.16,6.16,0,0,0-4.8-.47,6.17,6.17,0,0,0-4.81.47C10.36,1.06,7.68,0,7.68,0,5,2.09,4.87,7.53,4.87,7.53-4.92,17.4,6,24.68,7.5,25.64,0,15.4,6.16,11.48,8.44,14.17c2.55,3,7.24,2.34,7.24,2.34s4.68.66,7.23-2.34c2.29-2.69,8.48,1.23.95,11.47C25.4,24.68,36.27,17.4,26.48,7.53Z"/><path class="cls-2" d="M22.14,42.76S36.81,41,30.87,28.25c0,0,15.7,15.36-8.07,17.33Z"/><path class="cls-3" d="M13.68,14.59h4c.56,0,.91.49.63.89l-2,2.8a.82.82,0,0,1-1.26,0l-2-2.8C12.77,15.08,13.12,14.59,13.68,14.59Z"/></g></g></svg>