<svg xmlns="http://www.w3.org/2000/svg" viewBox="0 0 58.55 53.72"><defs><style>.cls-1{fill:#a57d51;}.cls-2{fill:#ccc8c8;}.cls-3{fill:#e8e3e3;}.cls-4{fill:#d0a267;}.cls-5{fill:#000300;}</style></defs><title>dogWalkingRight</title><g id="Layer_2" data-name="Layer 2"><g id="Layer_1-2" data-name="Layer 1"><path class="cls-1" d="M16,47.25c-.7-1.92-1.27-3.72-2-4.51-1.23-1.32-3.3-2.15-5.1-3.46,2.12-1.17,4.21-2.41,6.26-3.7l7.86,1c1.9,4.07-3.26,10.79-4.61,12.31C17.09,49.07,17.31,47.07,16,47.25Z"/><path class="cls-2" d="M19.36,47.84c0,.72.36,1.88,3.09,1.95,4,.1,2.43,2.73,2.43,2.73C20,55.61,17.81,52,16.35,48.19,17.35,48.06,18.35,48,19.36,47.84Z"/><path class="cls-1" d="M14,42.74c-1.23-1.32-3.3-2.15-5.1-3.46,2.12-1.17,4.21-2.41,6.26-3.7l7.86,1c-.94,2.42-.87,3.21-1.7,4.65a14.29,14.29,0,0,0-1.84,5.27c-.07.41,0,.45-.11,1.35,0,.72.36,1.89,3.09,2a3.05,3.05,0,0,1,2.42.8,6.8,6.8,0,0,0-1.36,1c-.41.36-2,1.85-2.45,2.08-2.24.36-3.93-.65-5.25-2.77C13.82,48.52,15.08,43.92,14,42.74Z"/><path class="cls-2" d="M38.35,37.8s-5.93,8.32-3.7,12.35S32,53,32,53C27.28,47.1,29.8,34.37,29.8,34.37"/><path class="cls-1" d="M38.35,37.8A33.43,33.43,0,0,0,34.19,48c-1.22-1.13-3.35-1.35-4.83-2.19a44.09,44.09,0,0,1,.44-11.47"/><path class="cls-3" d="M4.36,27C.31,22.7-.4,19,.17,16.09c1-4.84,5.83-7.78,10.69-7,1.5.25,3.34.5,4.67,1.83,3.72,3.7-1,7.7-1,7.7,2.21-3-3-10.43-8.69-2.61a8.63,8.63,0,0,0-.75,9.08C6.29,23.06,9,21.46,18.23,21.72c13.45.39,15.83-4.7,15.83-4.7C33.21,8.6,39.59,5.45,39.59,5.45,39.51,2.47,42.4,0,42.4,0L43,5.53c9.7.09,10,5.11,11.31,9.36s3.15,3.49,3.15,3.49c1.19,7.49-9.78,5.71-9.78,5.71,2.89,6.8-3.92,13.1-3.92,13.1s-.34,10.21,3.75,12.34-.68,3.83-.68,3.83c-7.15-2.3-12.09-14.3-12.09-14.3-6.64,1-16.51-.93-16.51-.93-.43,5.44-8.36,7.57-8.36,7.57s-2,1.62,1.36,3.66.77,3.58.77,3.58c-9.28.42-3.9-10.64-4.66-13.88s-4.86-6.38-3.21-11.4C4.21,27.43,4.28,27.2,4.36,27Z"/><path class="cls-4" d="M3.9,26.47C.26,22.41-.37,18.86.17,16.09c1-4.84,5.83-7.78,10.69-7,1.5.25,3.34.5,4.67,1.83,3.72,3.7-1,7.7-1,7.7,2.21-3-3-10.43-8.69-2.61a8.63,8.63,0,0,0-.75,9.08C6.29,23.06,9,21.46,18.23,21.72a37,37,0,0,0,7.56-.46c2.21,2.85,6.85.57,8.52-2.1,1.78-2.86,1.5-6.5,3.42-9.31.91-1.33,2.18-2.36,2.93-3.82A28.2,28.2,0,0,0,42.32.29a.91.91,0,0,0,0-.23L42.4,0,43,5.53c9.7.09,10,5.11,11.31,9.36s3.15,3.49,3.15,3.49a2.42,2.42,0,0,1,0,.25,40,40,0,0,1-6.47-.3,5,5,0,0,0-2.08,0c-1.11.41-1.32,1.57-1.49,2.63a5.65,5.65,0,0,0,.41,4.16,4.67,4.67,0,0,1,.38,1.92c0,.94,0,2.23-.07,2.49-4.16.74-6.05,4-4.41,7.65A33.23,33.23,0,0,0,46,48c-1.64-.27-3.54.73-5.23.85a44.19,44.19,0,0,1-6-9.81c-6.64,1-16.51-.93-16.51-.93-2,1.64-2.33,2.36-3.77,3.21A14.05,14.05,0,0,0,10.27,45c-.26.32-.24.38-.77,1.12S8.89,48,11.23,49.36c1.17.71,1.62,1.35,1.71,1.89a6.85,6.85,0,0,0-1.67.19c-.53.1-2.68.6-3.15.6-2.13-.79-3.1-2.5-3.21-5-.57-3,2.8-6.42,2.43-8-.77-3.23-4.86-6.38-3.2-11.4Z"/><circle class="cls-5" cx="57.19" cy="18.98" r="1.35"/></g></g></svg>