<svg xmlns="http://www.w3.org/2000/svg" viewBox="0 0 58.55 53.72"><defs><style>.cls-1{fill:#a57d51;}.cls-2{fill:#ccc8c8;}.cls-3{fill:#e8e3e3;}.cls-4{fill:#d0a267;}.cls-5{fill:#000300;}</style></defs><title>dogWalkingLeft</title><g id="Layer_2" data-name="Layer 2"><g id="Layer_1-2" data-name="Layer 1"><path class="cls-1" d="M42.55,47.25c.7-1.92,1.28-3.72,2-4.51,1.22-1.32,3.29-2.15,5.09-3.46-2.12-1.17-4.2-2.41-6.26-3.7l-7.86,1c-1.89,4.07,3.26,10.79,4.62,12.31C41.46,49.07,41.23,47.07,42.55,47.25Z"/><path class="cls-2" d="M39.19,47.84c0,.72-.37,1.88-3.09,1.95-4,.1-2.43,2.73-2.43,2.73,4.92,3.09,7.06-.56,8.53-4.33C41.2,48.06,40.19,48,39.19,47.84Z"/><path class="cls-1" d="M44.56,42.74c1.22-1.32,3.29-2.15,5.09-3.46-2.12-1.17-4.2-2.41-6.26-3.7l-7.86,1c.95,2.42.87,3.21,1.7,4.65a14.29,14.29,0,0,1,1.84,5.27c.07.41,0,.45.12,1.35,0,.72-.36,1.89-3.09,2a3.05,3.05,0,0,0-2.42.8,7.1,7.1,0,0,1,1.36,1c.41.36,2,1.85,2.44,2.08,2.25.36,3.93-.65,5.25-2.77C44.72,48.52,43.46,43.92,44.56,42.74Z"/><path class="cls-2" d="M20.19,37.8s5.93,8.32,3.71,12.35S26.58,53,26.58,53c4.69-5.86,2.16-18.59,2.16-18.59"/><path class="cls-1" d="M20.19,37.8A32.94,32.94,0,0,1,24.35,48c1.22-1.13,3.36-1.35,4.84-2.19a43.89,43.89,0,0,0-.45-11.47"/><path class="cls-3" d="M54.19,27c4-4.26,4.75-8,4.18-10.87-.95-4.84-5.82-7.78-10.69-7-1.49.25-3.33.5-4.67,1.83-3.72,3.7,1,7.7,1,7.7-2.21-3,3-10.43,8.69-2.61a8.64,8.64,0,0,1,.76,9.08c-1.19-2.05-3.93-3.65-13.12-3.39C26.87,22.11,24.49,17,24.49,17,25.34,8.6,19,5.45,19,5.45,19,2.47,16.15,0,16.15,0l-.6,5.53c-9.7.09-10,5.11-11.32,9.36s-3.15,3.49-3.15,3.49c-1.19,7.49,9.79,5.71,9.79,5.71-2.89,6.8,3.91,13.1,3.91,13.1S15.12,47.4,11,49.53s.68,3.83.68,3.83c7.15-2.3,12.09-14.3,12.09-14.3,6.63,1,16.51-.93,16.51-.93.42,5.44,8.36,7.57,8.36,7.57s2,1.62-1.36,3.66-.77,3.58-.77,3.58c9.28.42,3.89-10.64,4.66-13.88s4.85-6.38,3.2-11.4C54.33,27.43,54.26,27.2,54.19,27Z"/><path class="cls-4" d="M54.65,26.47c3.64-4.06,4.27-7.61,3.72-10.38-.95-4.84-5.82-7.78-10.69-7-1.49.25-3.33.5-4.67,1.83-3.72,3.7,1,7.7,1,7.7-2.21-3,3-10.43,8.69-2.61a8.64,8.64,0,0,1,.76,9.08c-1.19-2.05-3.93-3.65-13.12-3.39a37,37,0,0,1-7.56-.46c-2.21,2.85-6.85.57-8.52-2.1-1.79-2.86-1.5-6.5-3.42-9.31C19.9,8.52,18.64,7.49,17.89,6A28.2,28.2,0,0,1,16.23.29a.62.62,0,0,1,0-.23L16.15,0l-.6,5.53c-9.7.09-10,5.11-11.32,9.36s-3.15,3.49-3.15,3.49l0,.25a40,40,0,0,0,6.47-.3,5,5,0,0,1,2.08,0c1.12.41,1.32,1.57,1.49,2.63a5.71,5.71,0,0,1-.4,4.16,4.85,4.85,0,0,0-.39,1.92c0,.94,0,2.23.08,2.49,4.16.74,6,4,4.4,7.65A33.23,33.23,0,0,1,12.59,48c1.64-.27,3.54.73,5.24.85a44.19,44.19,0,0,0,6-9.81c6.63,1,16.51-.93,16.51-.93,2,1.64,2.33,2.36,3.76,3.21A14.09,14.09,0,0,1,48.28,45c.26.32.24.38.77,1.12.37.61.61,1.82-1.73,3.22-1.18.71-1.62,1.35-1.71,1.89a6.91,6.91,0,0,1,1.67.19c.53.1,2.68.6,3.14.6,2.14-.79,3.11-2.5,3.21-5,.57-3-2.79-6.42-2.42-8,.77-3.23,4.85-6.38,3.2-11.4Z"/><circle class="cls-5" cx="1.35" cy="18.98" r="1.35"/></g></g></svg>