<svg xmlns="http://www.w3.org/2000/svg" xmlns:xlink="http://www.w3.org/1999/xlink" viewBox="0 0 653.28 689.31"><defs><style>.cls-1{opacity:0.37;}.cls-2{fill:url(#radial-gradient);}.cls-3{fill:url(#radial-gradient-2);}.cls-4{fill:url(#radial-gradient-3);}.cls-5{fill:url(#radial-gradient-4);}.cls-6{fill:url(#radial-gradient-5);}.cls-7{fill:#1b063d;}.cls-8{fill:#ff8b78;}.cls-9{fill:#d34a75;}.cls-10{fill:#51239b;}.cls-11{fill:#591b7a;}.cls-12{fill:#2e1059;}.cls-13{fill:#f24e41;}.cls-14{fill:#f46353;}.cls-15{opacity:0.29;fill:url(#linear-gradient);}.cls-16{fill:#f46476;}.cls-17{fill:#9b2d81;}.cls-18{fill:#2b0f60;}.cls-19{fill:#401b7a;}</style><radialGradient id="radial-gradient" cx="944.38" cy="1454.59" r="353.21" gradientTransform="translate(-1149.29 -497.25) rotate(-26.84)" gradientUnits="userSpaceOnUse"><stop offset="0.68" stop-color="#2e1059"/><stop offset="1" stop-color="#1b063d"/></radialGradient><radialGradient id="radial-gradient-2" cx="944.57" cy="1449.74" r="223.99" gradientTransform="translate(-1149.29 -497.25) rotate(-26.84)" gradientUnits="userSpaceOnUse"><stop offset="0.56" stop-color="#591b7a"/><stop offset="0.84" stop-color="#3a1362"/><stop offset="1" stop-color="#2e1059"/></radialGradient><radialGradient id="radial-gradient-3" cx="944.38" cy="1463.57" r="149.42" gradientTransform="translate(-1149.29 -497.25) rotate(-26.84)" gradientUnits="userSpaceOnUse"><stop offset="0" stop-color="#8c32c6"/><stop offset="1" stop-color="#591b7a"/></radialGradient><radialGradient id="radial-gradient-4" cx="356.63" cy="370.02" r="233" gradientTransform="matrix(1, 0, 0, 1, 0, 0)" xlink:href="#radial-gradient-2"/><radialGradient id="radial-gradient-5" cx="356.43" cy="384.4" r="155.43" gradientTransform="matrix(1, 0, 0, 1, 0, 0)" xlink:href="#radial-gradient-3"/><linearGradient id="linear-gradient" x1="283.3" y1="395.74" x2="117.07" y2="566.5" gradientUnits="userSpaceOnUse"><stop offset="0.17" stop-color="#fff"/><stop offset="0.7" stop-color="#2e1059" stop-opacity="0"/></linearGradient></defs><title>meOnADesk_1</title><g id="Layer_2" data-name="Layer 2"><g id="roomDrawing"><g class="cls-1"><path class="cls-2" d="M572.66,146.1c-25.83-19.57-45.44-22.41-76.11-30.44l-.31-.44C474.17,79.59,450.09,43.94,417,17.54l-.28-.22A80,80,0,0,0,356.21.73C295,9,244.32,34.37,210.57,87.12a1.67,1.67,0,0,1-.2.08c-16.28,35.43-32.55,72.06-63.93,94.47-19.84,14.17-44.22,21.43-65.92,32.93-37.37,19.81-67,53.54-77,95S4.87,400.11,36.46,434c12,12.91,26.76,23.67,36.29,38.37C96.85,509.56,83,563.82,117.4,592.32c26.51,22,64.51,13.35,96.28,25.27,21.21,7.95,37.84,24.24,52.81,42.15a80.78,80.78,0,0,0,54,28.84c70.29,6.85,122.7-34.89,163.17-109.09,9.64-18,22.74-33.58,41.18-42.3,18.77-8.89,41.08-9.7,61-16.37a99.18,99.18,0,0,0,63.71-66.67c8.78-31.13,2.09-67.57-17.71-96.45-18.64-27.2-49.8-53.1-45.65-83.64,2.36-17.32,16.12-29.93,21.47-46.3C616.81,199.57,598.49,165.67,572.66,146.1Z"/><path class="cls-3" d="M224.66,197.56c13.61-18.37,20.78-30.73,40.83-42.76s47.65-15.18,64-1.44c9.52,8,14.27,20.58,25.23,26.82,19.32,11,45-2.92,68.25-8.08,24.65-5.49,50.84-.17,69.31,14.07a71.53,71.53,0,0,1,27.5,60.57c-.87,15.09-6.33,30.25-5.43,45.2,1.37,22.6,17,41.12,34.24,55.76s37,27.12,50.58,44.92,19.81,43.15,7.38,63.68c-11.87,19.6-36.45,28.87-59.08,35.39s-47.2,12.91-62.93,30.12c-16.52,18.06-21,45.81-42.79,57.64-28.33,15.37-60.93-8.48-92.28-2.35-12.41,2.43-23.57,9.4-35.44,14-31.18,12-67,6.45-92.11-11.39S182.27,533,179.05,502.61c-1.86-17.61-.17-35.88-4.32-53-7.31-30.07-31.42-52.36-52.54-75.09s-40.95-50.37-37.07-81.88c3.46-28.12,25.93-53.23,52.49-68.26s56.89-21.57,86.66-26.76Z"/><path class="cls-4" d="M249.75,306.66c4.9-13.56,7-22.3,16.87-33.37s25.86-18.36,38.12-13.43c7.12,2.85,12.2,9.39,19.87,10.93,13.52,2.71,26.46-10.58,39.45-18.2,13.8-8.09,30.43-10.09,44-5.28a42.75,42.75,0,0,1,27.23,30.49c2.15,9.11,1.58,19.17,4.77,27.85,4.83,13.13,17.47,21,30.41,26.31s27,8.81,38.28,16.68,19.53,21.69,15.73,36.29c-3.63,13.95-16.71,24.28-29.12,32.58s-26,16.93-32.35,30.22c-6.69,13.95-4.43,31.27-15.4,42.57-14.24,14.67-38,6.95-55.71,16.74-7,3.88-12.45,10.2-18.75,15.25-16.54,13.26-39,17-57.2,11.35s-32.08-19.9-39.39-37.24c-4.24-10.07-6.47-21.23-12-30.54-9.72-16.39-28.13-24.86-44.81-34.18s-33.48-21.8-36.75-41.23c-2.92-17.35,6.09-36.65,19.33-50.77s30.25-24,47.17-32.9Z"/></g><path class="cls-5" d="M323,152.15c21.27-10.66,33.72-18.76,58-20.51s51.36,8.29,60.12,28.74c5.09,11.88,3.57,25.81,10.82,36.74,12.77,19.27,43.16,18.45,67.14,24.55,25.46,6.49,47.27,23.73,57.72,45.62a74.4,74.4,0,0,1-2.92,69.13c-7.9,13.6-20.08,25.1-26.26,39.4-9.36,21.63-3.56,46.14,5.59,67.84S574.79,486.21,579,509.1s-1.88,49.36-23,62.57c-20.22,12.63-47.39,9.69-71.46,5.1s-49.88-10.18-72.56-1.6c-23.81,9-41,32.67-66.79,33.41-33.5,1-52.56-36.49-84.54-45.52-12.65-3.57-26.29-2.35-39.46-3.67-34.59-3.48-65.25-25.49-80.14-53.83s-14.89-62-3.63-91.69c6.54-17.22,16.7-33.38,20.87-51.19,7.34-31.35-4.57-63.36-13.5-94.38s-14.35-66,4-93.4c16.43-24.48,49.08-37.23,80.79-38.71s62.93,6.7,93,15.86Z"/><path class="cls-6" d="M295,265.19c10.92-10.28,17-17.4,31.33-23s32.62-4.9,41.69,5.43c5.27,6,6.91,14.45,13.31,19.48,11.28,8.87,29.53,2.61,45.17,1.64,16.6-1,33,4.93,43.34,15.78a44.44,44.44,0,0,1,10.95,41.08c-2.28,9.47-7.54,18.53-8.65,28.09-1.68,14.46,6.34,27.73,15.87,38.71S509,413.2,515.74,425.82s7.94,29.29-2.44,41.06c-9.92,11.25-26.91,14.69-42.33,16.57S438.9,487,426.75,496.3c-12.76,9.81-18.8,26.94-34.29,32.28-20.1,6.93-38.53-11.4-59.56-10.62-8.32.31-16.34,3.62-24.57,5.35-21.58,4.53-44.19-2.55-58.42-16.34s-20.43-33.53-19.07-53.06c.79-11.34,4-22.75,3.21-34-1.32-19.77-14.42-36.28-25.53-52.76s-20.84-36-14.75-55.54c5.44-17.47,22.86-31.15,41.79-38s39.33-8,59.23-8.38Z"/><path class="cls-7" d="M266.72,403s7.62,1.78,12.29,0c0,0,3.16,10.4-5.41,11.87-7.23,1.25-9.22-5.44-7.93-9.77A6.18,6.18,0,0,1,266.72,403Z"/><path class="cls-7" d="M267.29,410.27s-3.12,3.86-6,.45,2-8,5.44-5.21-4.75-1.86-4.46,2.67c.26,4.14,5.37.77,5.37.77Z"/><rect class="cls-8" x="289.21" y="389.31" width="19.86" height="7.74"/><rect class="cls-7" x="286.42" y="393.18" width="15.92" height="19.71"/><rect class="cls-7" x="287.37" y="387.19" width="1.89" height="9.62" transform="translate(-157.37 196.68) rotate(-30)"/><rect class="cls-7" x="290.05" y="383.09" width="0.95" height="16.41" transform="translate(-135.19 154.06) rotate(-24.28)"/><rect class="cls-7" x="291.94" y="384.09" width="1" height="12.72" transform="translate(-134.67 154.77) rotate(-24.28)"/><rect class="cls-7" x="293.73" y="381.57" width="1.37" height="16.66" transform="translate(122.45 -67.41) rotate(16.45)"/><rect class="cls-7" x="296.2" y="377.73" width="1.94" height="24.44" transform="translate(87.41 -53.19) rotate(11.98)"/><rect class="cls-7" x="298.88" y="382.46" width="2.26" height="25.43" transform="translate(60.61 -39.4) rotate(8.36)"/><rect class="cls-8" x="333.51" y="328.3" width="28.85" height="27.43"/><rect class="cls-8" x="375.98" y="349.26" width="33.36" height="38.78"/><rect class="cls-9" x="266.5" y="323.72" width="40.04" height="60.22"/><rect class="cls-10" x="370.85" y="287.62" width="41.48" height="48.82"/><rect class="cls-11" x="245.22" y="324.99" width="16.71" height="27.12"/><rect class="cls-8" x="250.27" y="356.52" width="11.67" height="9.77"/><rect class="cls-11" x="243.96" y="371.81" width="17.97" height="8.83"/><rect class="cls-12" x="236.71" y="332.08" width="5.36" height="8.51"/><rect class="cls-11" x="310.65" y="313.63" width="15.29" height="31.53"/><rect class="cls-11" x="416.43" y="380.95" width="50.76" height="25.07"/><rect class="cls-11" x="414.22" y="363.45" width="21.76" height="14.35"/><rect class="cls-8" x="426.21" y="289.67" width="44.46" height="69.68"/><rect class="cls-12" x="319" y="283.52" width="46.65" height="23.02"/><rect class="cls-9" x="338.39" y="313" width="19.86" height="8.51"/><rect class="cls-9" x="290.15" y="291.56" width="24.12" height="18.45"/><rect class="cls-10" x="384.27" y="260.19" width="64.16" height="22.39"/><rect class="cls-9" x="476.02" y="292.04" width="15.13" height="9.46"/><rect class="cls-9" x="308.1" y="172.54" width="67.87" height="104.05"/><rect class="cls-8" x="226.15" y="221.57" width="59.91" height="91.44"/><rect class="cls-7" x="271.13" y="419" width="119.61" height="116.24"/><rect class="cls-13" x="254.1" y="414.44" width="217.98" height="4.56"/><rect class="cls-13" x="265.66" y="419" width="5.47" height="116.24"/><rect class="cls-13" x="390.73" y="419" width="71.89" height="116.24"/><rect class="cls-14" x="390.73" y="419" width="71.89" height="35.42"/><rect class="cls-7" x="392.17" y="394.73" width="11.66" height="19.71"/><polygon class="cls-7" points="395.91 397.3 394.72 398.18 392.18 391.61 393.38 390.73 395.91 397.3"/><polygon class="cls-7" points="394.49 399.56 395.23 399.59 399.53 384.43 398.79 384.4 394.49 399.56"/><polygon class="cls-7" points="398.82 397.59 398.16 398 394.33 386.41 395 386 398.82 397.59"/><polygon class="cls-7" points="402.76 402.98 401.05 403.25 395.68 385.09 397.39 384.82 402.76 402.98"/><polygon class="cls-7" points="401.58 409.47 399.23 409.02 402.28 378.59 404.64 379.04 401.58 409.47"/><rect class="cls-7" x="416.43" y="434.87" width="21.91" height="1.84"/><rect class="cls-7" x="400.14" y="474.12" width="2.58" height="35.79"/><path class="cls-15" d="M201.9,572.43c8.62-5.17,16.31-11.67,25.27-16.3s19.18-7,26.83-13.84c3.21-2.86,5.81-6.47,10-8,3.27-1.16,7.47.14,10.79.43,10.21.89,20.46.8,30.7.77l110.93-189-13.67-21.44L76.46,445.64,190.9,579.22C194.53,576.93,198.19,574.65,201.9,572.43Z"/><polygon class="cls-7" points="401.25 324.45 414.23 350.77 444.34 320.93 401.25 324.45"/><polygon class="cls-7" points="443.7 321.34 449.38 361.23 429.62 389.13 429.62 409.78 445.18 409.78 445.18 414.26 413.36 414.26 413.36 409.57 427.31 409.57 427.31 389.13 447.07 361.23 441.81 321.91 443.7 321.34"/><path class="cls-16" d="M372.73,402.91a5.77,5.77,0,0,0-3.81-1.21s-3.75,1.69-1.22-.89c2.16-2.21,4.28-.11,4.84.54Z"/><polygon class="cls-11" points="379.92 387.34 364.63 407.52 365.81 414.71 379.92 387.34"/><path class="cls-16" d="M365.36,468.91s16.75-10.13,22.16-1.52-3.89,14-3.89,14-11.25,8-23.36,9.33S365.36,468.91,365.36,468.91Z"/><path class="cls-16" d="M287.56,405.37A182.26,182.26,0,0,0,314,407.8c16.27.48,0,11.2,0,11.2Z"/><path class="cls-9" d="M311.66,414.71s-24.88-11-31.71-10.95c-3.48,0-4.44.41-8.46,3.1-3.47,2.31,4.62,9.62,4.62,9.62s8.62,6.83,42.41,12.29S311.66,414.71,311.66,414.71Z"/><path class="cls-16" d="M371.88,402.76c.07.06,0,.09.09.15l-3.51-.5s-1.61.15-1.27,1.07S371,405,371,405s0,1.81,3.08,1.79l4.24,1,17.47-1.3s3.6-6.17-6.77-4.4-16.79.19-16.79.19,0,.36-.13.25Z"/><path class="cls-16" d="M311.41,468.91s-16.75-10.13-22.16-1.52,3.89,14,3.89,14,11.25,8,23.36,9.33S311.41,468.91,311.41,468.91Z"/><path class="cls-9" d="M365.36,412.4s24.88-11,31.71-10.95c3.48,0,4.43.41,8.46,3.1,3.47,2.31-4.63,9.61-4.63,9.61s-8.62,6.84-42.41,12.3S365.36,412.4,365.36,412.4Z"/><path class="cls-17" d="M346,352.82c-.67-.23-15.7-19.92-29.77-5.58s1.2,35.81-3.54,42-7.09,3.71-7.29,4,34.7,20.28,65.93-.35c0,0-6.91-1.49-7.32-7.1s9.8-21.47,3.72-30.11C359.27,343.57,346,352.82,346,352.82Z"/><path class="cls-18" d="M312.71,485.21s-7.39,10.35,6,13,39.45-.23,43.8-1c1.94-.34,9.39-2.21,2.9-12"/><path class="cls-19" d="M308.56,405.19s27.46-14,56.8-.16v80.44s-23.3,10.19-52.64-.26Z"/><polygon class="cls-18" points="314.01 495.03 318.54 544 324.49 544 326.64 495.03 314.01 495.03"/><polygon class="cls-18" points="318.54 544.75 324.56 544.75 323.96 547.65 319.21 547.65 318.54 544.75"/><polygon class="cls-18" points="352.72 495.03 357.26 544 363.2 544 365.36 495.03 352.72 495.03"/><polygon class="cls-18" points="357.26 544.75 363.28 544.75 362.68 547.65 357.93 547.65 357.26 544.75"/><polygon class="cls-18" points="324.4 498.86 327.11 528.1 330.66 528.1 331.94 498.86 324.4 498.86"/><polygon class="cls-18" points="327.11 528.55 330.7 528.55 330.35 530.28 327.51 530.28 327.11 528.55"/><polygon class="cls-18" points="346.62 498.25 349.33 527.49 352.88 527.49 354.17 498.25 346.62 498.25"/><polygon class="cls-18" points="349.33 527.93 352.92 527.93 352.57 529.66 349.73 529.66 349.33 527.93"/><rect class="cls-19" x="308.56" y="394.68" width="5.04" height="14.6" rx="2.47"/><rect class="cls-19" x="360.31" y="394.68" width="5.04" height="14.6" rx="2.47"/></g></g></svg>