<svg xmlns="http://www.w3.org/2000/svg" xmlns:xlink="http://www.w3.org/1999/xlink" viewBox="0 0 1933.47 692.88"><defs><style>.cls-1{opacity:0.47;}.cls-2{fill:#0da9ff;}.cls-3{fill:url(#radial-gradient);}.cls-4{fill:#f4f4a2;}.cls-5{fill:#23607d;}.cls-6{fill:#338ba0;}.cls-7{fill:#3c9cba;}.cls-8{fill:#2c7591;}.cls-9{fill:#4abdd8;}.cls-10{fill:#54cee2;}.cls-11{fill:url(#linear-gradient);}.cls-12{fill:#2f7d9b;}.cls-13{fill:url(#linear-gradient-2);}.cls-14{fill:#06264c;}.cls-15{fill:url(#linear-gradient-3);}.cls-16{fill:#2f6c70;}.cls-17{fill:#2a6f7a;}.cls-18{fill:url(#linear-gradient-4);}.cls-19{fill:#f07c41;}.cls-20{fill:#d8571e;}.cls-21{fill:#ad4218;}.cls-22{fill:#184759;}.cls-23{fill:url(#linear-gradient-5);}</style><radialGradient id="radial-gradient" cx="833.59" cy="294.3" r="54.64" gradientUnits="userSpaceOnUse"><stop offset="0.56" stop-color="#f4f4a2"/><stop offset="0.68" stop-color="#e7f7bf" stop-opacity="0.68"/><stop offset="0.79" stop-color="#dbfbda" stop-opacity="0.39"/><stop offset="0.89" stop-color="#d2fded" stop-opacity="0.18"/><stop offset="0.96" stop-color="#ccfef9" stop-opacity="0.05"/><stop offset="1" stop-color="#cafffe" stop-opacity="0"/></radialGradient><linearGradient id="linear-gradient" x1="1058.22" y1="480.28" x2="1059.68" y2="332.49" gradientUnits="userSpaceOnUse"><stop offset="0.14" stop-color="#fff" stop-opacity="0"/><stop offset="0.34" stop-color="#e2e2e2" stop-opacity="0.11"/><stop offset="0.77" stop-color="#adadad" stop-opacity="0.32"/><stop offset="1" stop-color="#999" stop-opacity="0.4"/></linearGradient><linearGradient id="linear-gradient-2" x1="519.51" y1="491.65" x2="521.11" y2="330.41" gradientUnits="userSpaceOnUse"><stop offset="0.15" stop-color="#fff" stop-opacity="0"/><stop offset="0.35" stop-color="#e2e2e2" stop-opacity="0.11"/><stop offset="0.77" stop-color="#adadad" stop-opacity="0.32"/><stop offset="1" stop-color="#999" stop-opacity="0.4"/></linearGradient><linearGradient id="linear-gradient-3" x1="949.91" y1="573.62" x2="951.1" y2="454.02" gradientUnits="userSpaceOnUse"><stop offset="0.24" stop-color="#fff" stop-opacity="0"/><stop offset="0.42" stop-color="#e2e2e2" stop-opacity="0.11"/><stop offset="0.79" stop-color="#adadad" stop-opacity="0.32"/><stop offset="1" stop-color="#999" stop-opacity="0.4"/></linearGradient><linearGradient id="linear-gradient-4" x1="483.06" y1="692.05" x2="484.81" y2="516.11" gradientUnits="userSpaceOnUse"><stop offset="0.24" stop-color="#fff" stop-opacity="0"/><stop offset="0.62" stop-color="#fcfcfc" stop-opacity="0.01"/><stop offset="0.75" stop-color="#f1f1f1" stop-opacity="0.06"/><stop offset="0.85" stop-color="#ddd" stop-opacity="0.13"/><stop offset="0.93" stop-color="#c1c1c1" stop-opacity="0.24"/><stop offset="0.99" stop-color="#9d9d9d" stop-opacity="0.38"/><stop offset="1" stop-color="#999" stop-opacity="0.4"/></linearGradient><linearGradient id="linear-gradient-5" x1="1340.71" y1="781.29" x2="1335.25" y2="512.88" gradientUnits="userSpaceOnUse"><stop offset="0" stop-color="#fff" stop-opacity="0"/><stop offset="0.59" stop-color="#fff" stop-opacity="0.01"/><stop offset="0.8" stop-color="#fff" stop-opacity="0.03"/><stop offset="0.96" stop-color="#fff" stop-opacity="0.08"/><stop offset="1" stop-color="#fff" stop-opacity="0.1"/></linearGradient></defs><title>mountains</title><g id="Layer_2" data-name="Layer 2"><g id="CampDrawing"><g class="cls-1"><path class="cls-2" d="M585.19,246.42c-1.13-3.11.32-6.72,2.8-8.91s5.78-3.21,9-3.77a43.08,43.08,0,0,1,36.82,11.43c7.54-6,19.57-5.34,26.39,1.47a14.63,14.63,0,0,1,24.32-7.34c-1.72-6.1,1.74-12.89,7.15-16.2s12.27-3.55,18.4-2c14.32,3.71,25.33,17.64,25.62,32.44,6.33-5.56,17.6-3.71,21.82,3.58a10.5,10.5,0,0,1,18,7.37c-3.93,1.65-7.69,3.79-11.93,4.16l-22.06,1.91c-3.73.32-7.59.63-11.14-.57-4.76-1.6-8.68-5.81-13.7-5.94-6.12-.16-10.77,5.76-16.78,6.9-7.56,1.42-14.38-5-22-5.93-8.79-1.11-17.09,5.09-26,4.86s-16.35-6.74-25-8.4c-5.6-1.07-11.35-.07-17,.59s-11.63.93-16.81-1.46-9.17-8.2-7.7-13.7"/><path class="cls-2" d="M1733.2,353.62a10.37,10.37,0,0,1,8.24-12.68c9.16-2.28,19,2.11,25.64,11.43,5.25-6,13.63-5.34,18.38,1.47.8-5,3.56-9.25,7-10.74s7.36-.14,10,3.4c-1.2-6.1,1.21-12.9,5-16.21s8.54-3.55,12.81-2c10,3.71,17.64,17.65,17.84,32.44,4.41-5.55,12.25-3.7,15.19,3.59,2-2.93,5.31-3.89,8-2.32s4.52,5.56,4.53,9.69c-2.73,1.64-5.35,3.79-8.3,4.16l-15.37,1.9c-2.6.33-5.28.64-7.75-.56-3.32-1.6-6-5.81-9.54-5.94-4.26-.16-7.5,5.76-11.69,6.89-5.26,1.43-10-5-15.33-5.92-6.12-1.11-11.9,5.09-18.07,4.86s-11.38-6.75-17.43-8.41c-3.9-1.06-7.91-.06-11.85.6s-8.09.93-11.7-1.46-6.39-8.2-5.36-13.7"/><path class="cls-2" d="M366.57,153.75c.41-.71-.12-1.54-1-2a9.22,9.22,0,0,0-3.33-.86,22.65,22.65,0,0,0-13.54,2.62,11.23,11.23,0,0,0-9.71.33c-.42-1.14-1.88-2.12-3.68-2.45a8.05,8.05,0,0,0-5.26.77c.63-1.4-.64-3-2.63-3.71a13.72,13.72,0,0,0-6.77-.45c-5.27.85-9.31,4-9.42,7.43-2.33-1.27-6.47-.85-8,.82a5.84,5.84,0,0,0-4.21-.53c-1.4.36-2.39,1.28-2.4,2.22a21.31,21.31,0,0,0,4.39.95l8.11.44a16,16,0,0,0,4.1-.13c1.75-.37,3.19-1.33,5-1.36,2.25,0,4,1.32,6.17,1.58,2.78.33,5.29-1.14,8.1-1.36,3.23-.25,6.29,1.17,9.54,1.12s6-1.55,9.21-1.93a33.63,33.63,0,0,1,6.26.14,18.14,18.14,0,0,0,6.18-.34c1.9-.54,3.37-1.88,2.83-3.14"/><path class="cls-2" d="M168.74,266.71a7.07,7.07,0,0,0-1.88-6.82,11.44,11.44,0,0,0-6.09-2.88c-8.86-1.75-18.38,1.61-24.81,8.75a12.61,12.61,0,0,0-17.78,1.12,10.92,10.92,0,0,0-6.75-8.21,9.2,9.2,0,0,0-9.63,2.59A12.2,12.2,0,0,0,97,248.86c-3.64-2.53-8.26-2.72-12.39-1.5-9.65,2.84-17.07,13.51-17.26,24.83-4.27-4.25-11.86-2.84-14.7,2.75a6.62,6.62,0,0,0-7.71-1.78,8.3,8.3,0,0,0-4.38,7.41c2.64,1.27,5.18,2.91,8,3.19l14.86,1.46c2.52.25,5.12.48,7.51-.43,3.21-1.23,5.85-4.45,9.23-4.55,4.12-.12,7.26,4.41,11.3,5.28,5.1,1.09,9.69-3.8,14.84-4.54,5.92-.85,11.51,3.9,17.48,3.72s11-5.16,16.87-6.43c3.77-.82,7.64,0,11.46.45s7.83.71,11.32-1.11,6.18-6.28,5.19-10.49"/><path class="cls-2" d="M1279.7,234c.41-.71-.12-1.54-1-2a9.22,9.22,0,0,0-3.33-.86,22.72,22.72,0,0,0-13.54,2.61,11.26,11.26,0,0,0-9.71.34c-.42-1.14-1.88-2.12-3.68-2.46a8.06,8.06,0,0,0-5.26.78c.63-1.4-.64-3-2.63-3.71a13.72,13.72,0,0,0-6.77-.45c-5.27.85-9.31,4-9.42,7.43-2.33-1.27-6.47-.85-8,.82a5.8,5.8,0,0,0-4.2-.53c-1.41.36-2.39,1.27-2.4,2.22a21.31,21.31,0,0,0,4.39,1l8.11.44a16.44,16.44,0,0,0,4.1-.13c1.75-.37,3.19-1.33,5-1.36,2.25,0,4,1.32,6.17,1.58,2.78.32,5.29-1.14,8.1-1.36,3.23-.25,6.28,1.17,9.54,1.11s6-1.54,9.21-1.92a32.79,32.79,0,0,1,6.26.13,17.9,17.9,0,0,0,6.18-.33c1.9-.55,3.37-1.88,2.83-3.14"/><path class="cls-2" d="M1146.94,194.46c.83-1.42-.24-3.08-2.06-4.08a18.19,18.19,0,0,0-6.65-1.73c-9.67-1-20.06,1-27.08,5.24-5.55-2.75-14.4-2.45-19.42.67-.84-2.29-3.76-4.23-7.37-4.91a16.08,16.08,0,0,0-10.51,1.55c1.26-2.79-1.29-5.91-5.26-7.42s-9-1.63-13.54-.9c-10.53,1.7-18.63,8.08-18.85,14.86-4.65-2.55-12.94-1.7-16,1.64a11.67,11.67,0,0,0-8.42-1.06c-2.8.72-4.78,2.55-4.78,4.44,2.88.75,5.65,1.74,8.77,1.9l16.23.88a32.39,32.39,0,0,0,8.19-.26c3.5-.73,6.39-2.66,10.08-2.72,4.5-.08,7.92,2.64,12.34,3.15,5.56.66,10.58-2.27,16.2-2.71,6.46-.51,12.57,2.33,19.08,2.23s12-3.09,18.43-3.85c4.11-.49,8.34,0,12.5.27s8.56.42,12.37-.67,6.75-3.76,5.66-6.28"/></g><circle class="cls-3" cx="833.59" cy="294.3" r="54.64"/><circle class="cls-4" cx="834.8" cy="294.3" r="28.15"/><path class="cls-5" d="M462,388.82,461.2,390a4.14,4.14,0,0,1,5.63-6.07,3.8,3.8,0,0,1,3.95-3.7,16.36,16.36,0,0,1-1.52-14.06c.65-1.81,1.8-3.63,3.63-4.2s4,.39,5.75,1.53a32.5,32.5,0,0,1,7.77,7.26,18.9,18.9,0,0,1,1.76-4.76,6.46,6.46,0,0,1,3.85-3.13,3.94,3.94,0,0,1,4.37,1.77,2.72,2.72,0,1,1,5.08-1.83,1.82,1.82,0,0,1,2.74.16,2.91,2.91,0,0,1,.13,3,8,8,0,0,1-2,2.4,125,125,0,0,1-30.52,20.27c-2.83,1.32-6,2.56-9,1.6a1.74,1.74,0,0,1-1-.66.75.75,0,0,1,.2-1.06"/><path class="cls-5" d="M554.2,334.57l-.61,1a3.39,3.39,0,0,1,4.6-5,3.11,3.11,0,0,1,3.23-3,13.36,13.36,0,0,1-1.24-11.5,5.2,5.2,0,0,1,3-3.44c1.6-.5,3.3.33,4.7,1.25a26.76,26.76,0,0,1,6.35,5.94,16.08,16.08,0,0,1,1.44-3.89,5.28,5.28,0,0,1,3.15-2.55,3.22,3.22,0,0,1,3.58,1.44,2.23,2.23,0,1,1,4.16-1.49,1.47,1.47,0,0,1,2.23.12,2.38,2.38,0,0,1,.11,2.46,6.51,6.51,0,0,1-1.67,2,101.84,101.84,0,0,1-25,16.58c-2.31,1.08-4.92,2.1-7.34,1.31a1.53,1.53,0,0,1-.83-.54.62.62,0,0,1,.17-.87"/><path class="cls-5" d="M500.88,338.35l1.35,26.11a4.86,4.86,0,0,0,.76,2.86,1.69,1.69,0,0,0,2.58.17c-.15-10.24-.31-20.59-2.88-30.5-1.09.37-.73,1-1.81,1.36"/><path class="cls-6" d="M494.14,304.23a24.56,24.56,0,0,0-20.4,22.65c-.25,4,.72,8.43,3.95,10.78a16,16,0,0,0,5.55,2.2l12.53,3.21c2.57.66,5.37,1.3,7.81.25,2.8-1.21,4.25-4.25,6.48-6.34,3.62-3.39,9.4-4.32,12-8.53,2-3.27,1.44-7.67-.56-11s-5.16-5.7-8.35-7.87c-4.16-2.83-8.66-5.47-13.66-6s-10.6,1.43-12.9,5.9"/><path class="cls-5" d="M504.94,349.89a17.12,17.12,0,0,0,8.49-5.72c.33-.42.83-.9,1.31-.68a.78.78,0,0,1,.36.89,1.92,1.92,0,0,1-.53.87c-2.24,2.54-5.34,4.14-8.44,5.51a2.11,2.11,0,0,1-.94.26.77.77,0,0,1-.75-.54c-.06-.32.3-.68.59-.53"/><path class="cls-7" d="M513.47,345.23a1.39,1.39,0,0,1-2-.94,2.26,2.26,0,0,1,1-2.2,6.54,6.54,0,0,1,2.35-.95l5.17-1.35c1.78-.46,3.85-.87,5.29.27a3.06,3.06,0,0,1,1.14,2.33,3,3,0,0,1-1.12,2.33,6,6,0,0,1-2.32,1l-4.27,1.1a13.83,13.83,0,0,1-3.05.53,3.58,3.58,0,0,1-2.68-.94,1.92,1.92,0,0,1-.07-2.62"/><path class="cls-5" d="M546.76,299l4.49,37.66,5.32-1.07-3.71-33.82a4.17,4.17,0,0,0-.71-2.26,2.79,2.79,0,0,0-2.47-.81,8.06,8.06,0,0,0-2.54.91"/><path class="cls-5" d="M530.1,329.7l1.21,23.07c1.6.5,3.33-.69,4-2.22a10.29,10.29,0,0,0,.52-4.94L535,329.7l-5.76.82"/><path class="cls-7" d="M533,332.58a14.43,14.43,0,0,1-16.65-4.16c-3.13-4-3.87-9.54-2.6-14.45a20.25,20.25,0,0,1,27-13.79,13,13,0,0,1,5.7,4,7.52,7.52,0,0,1,1.36,6.65c-.81,2.56-3.28,4.52-3.44,7.2-.18,3,2.63,5.53,2.54,8.53a6.21,6.21,0,0,1-3.49,5,18.22,18.22,0,0,1-6.1,1.64,16.79,16.79,0,0,1-4.74.24,5.62,5.62,0,0,1-4-2.32"/><path class="cls-5" d="M549.57,311.69c-3.57.24-7.43.4-10.4-1.6a8.28,8.28,0,0,1-3.58-6.36,1.53,1.53,0,0,0-1.34,1.41,3.6,3.6,0,0,0,.53,2,12.65,12.65,0,0,0,13.08,6.4,2.67,2.67,0,0,0,1.68-.8,1.07,1.07,0,0,0-.26-1.61"/><path class="cls-6" d="M539.11,304a10.45,10.45,0,0,0-4-3.54c-1.67-.67-3.94-.21-4.64,1.45a11.24,11.24,0,0,1-.69,2c-.86,1.31-3.13,1.16-3.8,2.58a2.23,2.23,0,0,0,1.17,2.72,6.16,6.16,0,0,0,3.19.44c1.2-.06,2.39-.16,3.58-.25a11,11,0,0,0,4.51-1,3.13,3.13,0,0,0,1.69-2.06,1.7,1.7,0,0,0-1.41-2"/><path class="cls-7" d="M547.68,300.82l-12.86-4.19a18.51,18.51,0,0,1-6.62-3.2c-1.85-1.63-3-4.32-2.13-6.63.71-1.86,2.56-3.09,3.35-4.91.72-1.66.47-3.55.59-5.35a13.1,13.1,0,0,1,19.9-10.35c2,1.2,3.66,2.95,5.87,3.61,3.43,1,7-.8,10.58-1.2a13.28,13.28,0,0,1,6.16,25.63c-2.18.82-4.78,1.21-6.1,3.12-.87,1.26-.95,2.89-1.6,4.28a7.68,7.68,0,0,1-6,3.94,22.63,22.63,0,0,1-7.45-.61,13,13,0,0,1-5.28-1.85c-1.52-1.11-2.53-3.16-1.84-4.91"/><path class="cls-8" d="M979,293.2l.22,19.55a3.64,3.64,0,0,1-.43,2.17,1.26,1.26,0,0,1-1.92.25c-.37-7.65-.73-15.38.72-22.9.82.22.59.71,1.41.93"/><path class="cls-9" d="M982.47,267.41a18.36,18.36,0,0,1,16.3,16c.37,3-.15,6.32-2.45,8.23a11.77,11.77,0,0,1-4,1.9l-9.21,3c-1.89.62-4,1.23-5.82.56-2.15-.77-3.38-3-5.13-4.43-2.87-2.36-7.23-2.78-9.38-5.81-1.68-2.34-1.44-5.66-.1-8.21a20.13,20.13,0,0,1,5.86-6.27c3-2.3,6.21-4.49,9.92-5.15s8,.57,9.9,3.8"/><path class="cls-5" d="M1023.34,296.27a13.09,13.09,0,0,1-6.47-4.36c-.25-.32-.63-.69-1-.52a.6.6,0,0,0-.27.68,1.54,1.54,0,0,0,.4.67,18.25,18.25,0,0,0,6.44,4.2,1.68,1.68,0,0,0,.72.19.56.56,0,0,0,.56-.41c0-.24-.22-.52-.45-.41"/><path class="cls-7" d="M1016.84,292.72a1.05,1.05,0,0,0,1.49-.72,1.71,1.71,0,0,0-.74-1.68,5.18,5.18,0,0,0-1.79-.72l-3.95-1c-1.35-.35-2.93-.66-4,.21a2.27,2.27,0,0,0,0,3.55,4.57,4.57,0,0,0,1.76.73l3.26.84a10.24,10.24,0,0,0,2.33.4,2.72,2.72,0,0,0,2-.71,1.46,1.46,0,0,0,0-2"/><path class="cls-8" d="M1025.67,274.64l1.34,37.9-5.43-.24-1.51-34a4.17,4.17,0,0,1,.36-2.35,2.79,2.79,0,0,1,2.32-1.18,8.31,8.31,0,0,1,2.64.52"/><path class="cls-8" d="M1045.26,305.88,1044,329c-1.6.5-3.33-.7-4-2.22a10.54,10.54,0,0,1-.52-4.94l.88-15.91,5.75.82"/><path class="cls-10" d="M1042.38,308.76A14.42,14.42,0,0,0,1059,304.6c3.14-4,3.88-9.54,2.61-14.45a20.26,20.26,0,0,0-27-13.79,12.85,12.85,0,0,0-5.69,4,7.51,7.51,0,0,0-1.37,6.66c.82,2.56,3.28,4.51,3.44,7.19.18,3-2.63,5.54-2.54,8.54a6.24,6.24,0,0,0,3.49,5,18.51,18.51,0,0,0,6.11,1.64,16.36,16.36,0,0,0,4.73.23,5.54,5.54,0,0,0,4-2.31"/><path class="cls-5" d="M1042.56,314.6c3.56.24,7.43.4,10.39-1.6a8.28,8.28,0,0,0,3.58-6.36,1.53,1.53,0,0,1,1.34,1.41,3.6,3.6,0,0,1-.53,2,12.64,12.64,0,0,1-13.07,6.4,2.62,2.62,0,0,1-1.68-.8,1.07,1.07,0,0,1,.25-1.62"/><path class="cls-6" d="M1054.69,306.92a10.44,10.44,0,0,1,4-3.54c1.67-.67,3.94-.21,4.64,1.44a11.08,11.08,0,0,0,.69,2c.86,1.3,3.13,1.16,3.8,2.57a2.21,2.21,0,0,1-1.17,2.72,6,6,0,0,1-3.19.44c-1.19-.06-2.38-.15-3.57-.24a11.2,11.2,0,0,1-4.52-1,3.12,3.12,0,0,1-1.69-2.07,1.69,1.69,0,0,1,1.41-2"/><path class="cls-9" d="M1029.45,277l12.85-4.19a18.37,18.37,0,0,0,6.62-3.21c1.86-1.63,3-4.32,2.13-6.62-.71-1.86-2.55-3.09-3.35-4.92-.71-1.65-.47-3.54-.58-5.34a13.09,13.09,0,0,0-19.9-10.35c-2,1.2-3.66,2.94-5.87,3.61-3.44,1-7-.8-10.58-1.2a13.28,13.28,0,0,0-6.16,25.63c2.18.82,4.77,1.2,6.09,3.12.87,1.26,1,2.89,1.6,4.27a7.71,7.71,0,0,0,6,3.95,22.63,22.63,0,0,0,7.45-.61,12.94,12.94,0,0,0,5.28-1.86c1.52-1.1,2.53-3.15,1.85-4.91"/><path class="cls-9" d="M816.71,388.33S871.38,373.56,927,335s72-35.05,90.82-27.11S1184,426.05,1301.17,426.05l-205,164.28Z"/><path class="cls-11" d="M816.71,388.33S871.38,373.56,927,335s72-35.05,90.82-27.11S1184,426.05,1301.17,426.05l-205,164.28Z"/><path class="cls-5" d="M752.77,339.32a8.67,8.67,0,0,1-1-3.22,2.87,2.87,0,0,1,1.56-2.78,1.77,1.77,0,0,1,2.42,1.48,1.77,1.77,0,1,1,3.54-.16c-.17-1.7,0-3.61,1.31-4.74a4,4,0,0,1,5.17.26,6.6,6.6,0,0,1,2,5.12,19.07,19.07,0,0,1-1.19,5.5,1.29,1.29,0,0,1,1.87-.89,2.1,2.1,0,0,1,1,2.11,6.24,6.24,0,0,1-.91,2.28,1.41,1.41,0,1,1,2.38,1.41,1.41,1.41,0,0,1,2,.33,2.28,2.28,0,0,1,.11,2.18A6.41,6.41,0,0,1,771.6,350c-1.1,1.17-2.34,2.39-3.93,2.62-1.84.28-3.58-.84-5.11-1.9a25.56,25.56,0,0,1-6.3-5.5,32.46,32.46,0,0,0-2.56-3.56,7.22,7.22,0,0,1-1.47-1.66,1.48,1.48,0,0,1,.39-2"/><path class="cls-5" d="M810.2,378.31a8.47,8.47,0,0,1-1-3.22,2.88,2.88,0,0,1,1.55-2.78,1.77,1.77,0,0,1,2.43,1.48,1.77,1.77,0,1,1,3.53-.16c-.16-1.7,0-3.61,1.31-4.74a4.06,4.06,0,0,1,5.17.25,6.6,6.6,0,0,1,2,5.12,19.75,19.75,0,0,1-1.19,5.51,1.3,1.3,0,0,1,1.87-.9,2.1,2.1,0,0,1,.94,2.12,6.22,6.22,0,0,1-.9,2.28,1.41,1.41,0,1,1,2.37,1.41,1.41,1.41,0,0,1,2,.33,2.25,2.25,0,0,1,.12,2.18A6.44,6.44,0,0,1,829,389c-1.09,1.17-2.34,2.38-3.92,2.62-1.85.28-3.58-.84-5.12-1.91a25.45,25.45,0,0,1-6.29-5.49,30.4,30.4,0,0,0-2.57-3.56,7.46,7.46,0,0,1-1.47-1.66,1.5,1.5,0,0,1,.4-2"/><path class="cls-5" d="M782.33,318.07a444.8,444.8,0,0,1-.36,46.19l3.61-.2a235,235,0,0,0,0-44.62L781,319"/><path class="cls-7" d="M781.72,335.43a9,9,0,0,1-10.41-3.19,34.89,34.89,0,0,0-2.1-3.35c-2.91-3.36-9-2.76-11.38-6.48-1.49-2.29-1-5.29-.35-8l2.88-12.89c.9-4.07,1.93-8.36,4.83-11.35s7.12-4.12,11.21-4.06,8.07,1.26,12,2.48,7.54,2.4,11.29,3.67a18.83,18.83,0,0,1,6.06,2.89,11.66,11.66,0,0,1,4,8.55,19.19,19.19,0,0,1-2.27,9.36c-2.57,5.13-6.72,9.53-8.13,15.09a26.5,26.5,0,0,1-1.37,5.16c-1.7,3.54-6,5.18-9.93,4.91s-7.53-2.06-11-3.81"/><path class="cls-5" d="M802.8,351.45l.42,23.11,2.5.12-.2-22.89-2.65.34"/><path class="cls-7" d="M802.18,356a20.11,20.11,0,0,1-7.25-2.18,6.37,6.37,0,0,1-2.45-2,2.74,2.74,0,0,1-.14-3c.47-.68,1.31-1,1.77-1.71.92-1.33,0-3.1-.76-4.52a11.76,11.76,0,0,1-1.7-4.91,5.31,5.31,0,0,1,1.93-4.64,8.2,8.2,0,0,1,2.78-1.09l6-1.55a11.59,11.59,0,0,1,5.14-.52,8,8,0,0,1,5.21,4.44,18.09,18.09,0,0,0,1.8,3.4,16.53,16.53,0,0,0,3.13,2.5,5,5,0,0,1,2.25,3.19c.19,1.56-.85,3-2,4.08s-2.43,2.11-3,3.57c-.68,1.64-.36,3.67-1.44,5.08-.88,1.14-2.4,1.52-3.79,1.82a11.47,11.47,0,0,1-4.79.36,5.81,5.81,0,0,1-4.18-3.69"/><path class="cls-5" d="M806,369.57a5.73,5.73,0,0,0,3.41-5.78.91.91,0,0,1,.92.42,2,2,0,0,1,.28,1,5.33,5.33,0,0,1-6.09,5.54,2,2,0,0,1,2.48-1.45"/><path class="cls-12" d="M808.93,365.59a1.94,1.94,0,0,1-2.27-1.68,2.68,2.68,0,0,1,1.58-2.56,4.38,4.38,0,0,1,3.13-.1,3.57,3.57,0,0,0,1.72.3c.42-.1.77-.39,1.19-.52a2,2,0,0,1,2.41,1.73,3,3,0,0,1-1.51,2.83,7.68,7.68,0,0,1-3.58.89,6.8,6.8,0,0,1-2.34-.12,2.42,2.42,0,0,1-1.7-1.51"/><path class="cls-5" d="M764.15,478.3l1.35,26.1a4.85,4.85,0,0,0,.76,2.86c.63.78,2,1,2.58.17-.15-10.23-.31-20.58-2.88-30.49-1.09.36-.73,1-1.81,1.36"/><path class="cls-9" d="M757.41,444.18A24.54,24.54,0,0,0,737,466.83c-.25,4,.72,8.43,4,10.78a15.85,15.85,0,0,0,5.54,2.2L759,483c2.57.65,5.37,1.3,7.81.25,2.8-1.21,4.25-4.26,6.48-6.34,3.62-3.39,9.4-4.32,12-8.54,2-3.27,1.44-7.67-.55-11s-5.16-5.7-8.35-7.87c-4.16-2.83-8.67-5.47-13.66-6s-10.6,1.43-12.91,5.9"/><path class="cls-5" d="M804.51,472.47l1,18.55a3.52,3.52,0,0,0,.54,2,1.2,1.2,0,0,0,1.84.12c-.11-7.27-.22-14.63-2.05-21.67-.77.26-.51.7-1.29,1"/><path class="cls-9" d="M803.06,455.42a17.44,17.44,0,0,0-14.5,16.1c-.18,2.83.52,6,2.81,7.66a11.18,11.18,0,0,0,3.94,1.56l8.91,2.28c1.83.47,3.82.93,5.55.18,2-.86,3-3,4.61-4.5,2.57-2.42,6.68-3.08,8.55-6.07,1.44-2.32,1-5.45-.4-7.8a19.45,19.45,0,0,0-5.93-5.59c-3-2-6.16-3.88-9.72-4.29s-7.53,1-9.16,4.19"/><path class="cls-5" d="M768.21,489.84a17.23,17.23,0,0,0,8.49-5.72c.33-.42.83-.91,1.31-.68a.78.78,0,0,1,.36.89,2.13,2.13,0,0,1-.53.87c-2.24,2.54-5.34,4.13-8.44,5.51a2.29,2.29,0,0,1-.95.26.77.77,0,0,1-.74-.54c-.06-.33.3-.68.59-.54"/><path class="cls-9" d="M776.74,485.18a1.39,1.39,0,0,1-2-.94,2.28,2.28,0,0,1,1-2.21,6.71,6.71,0,0,1,2.35-.94l5.17-1.35c1.78-.46,3.85-.87,5.29.27a3,3,0,0,1,0,4.66,6,6,0,0,1-2.32,1L782,486.72a12.75,12.75,0,0,1-3.06.53,3.58,3.58,0,0,1-2.67-.94,1.91,1.91,0,0,1-.07-2.61"/><path class="cls-7" d="M154,601.38S477,378.6,535,343.88c59.56-35.64,77.25-45.77,129.54-43.53,73.06,3.12,226.61,147,234.1,141.09-47.47,37-96.38,60.56-146.86,69.48Z"/><path class="cls-13" d="M139.71,607.53S477,378.6,535,343.88c59.56-35.64,77.25-45.77,129.54-43.53,73.06,3.12,226.61,147,234.1,141.09-47.47,37-96.38,60.56-146.86,69.48Z"/><path class="cls-14" d="M128.41,609.65c-8.87-2.6-13.69-14.23-9.26-22.34S136,577,143,583A16.69,16.69,0,0,1,160.31,560a30.34,30.34,0,0,1,31.24-48.47A31.19,31.19,0,0,1,214.14,539a20.06,20.06,0,0,1,36-7.88c-.56-12.34,9.66-24.21,21.95-25.48s24.72,8.25,26.69,20.45A16.13,16.13,0,0,1,310,556.29c-.95,13.29-13.78,24.56-27.08,23.79-5.86-.34-12-2.64-17.39-.31s-8,8.48-11.79,13a26.06,26.06,0,0,1-24.06,8.75c-4.35-.77-9-2.64-13-.71-6.64,3.22-5.57,13.86-11.4,18.4-3.71,2.89-9,2.33-13.56,1.17s-9.31-2.81-13.86-1.62c-5.54,1.44-9.17,6.6-13.82,9.94a23.2,23.2,0,0,1-36.57-21.63"/><path class="cls-12" d="M740.28,510.74c-2-.58,56.06-10.85,119-47.09,52.4-33.35,62.63-35.62,101.84-31.92,66.38,6.26,136.72,50.8,199.62,93.18L928,662.16Z"/><path class="cls-15" d="M740.28,510.74c-2-.58,56.06-10.85,119-47.09,52.4-33.35,62.63-35.62,101.84-31.92,66.38,6.26,136.72,50.8,199.62,93.18L928,662.16Z"/><path class="cls-14" d="M221.44,367.42S202.59,576.47,215.25,604l19.7,1.41s3.65-110,0-229Z"/><path class="cls-14" d="M230.63,475.08s31.23,2.91,62.74-6.37v6.8s-52.61,19.77-64.15,6.12Z"/><path class="cls-16" d="M283.1,464.5a4.66,4.66,0,0,1,.18,6.6,12.61,12.61,0,0,0-2.3,3.36,14.46,14.46,0,0,0-.23,11.94c3,6.51,10.3,10.27,17.45,10.5s14.08-2.56,20.21-6.25,11.66-8.29,17.65-12.19,12.65-7.17,19.78-7.72c11.58-.88,24.06,5.32,34.34-.11,4.94-2.6,8.31-7.5,13.06-10.44,5.8-3.59,13.05-3.92,19.3-6.68a26.3,26.3,0,0,0,4.89-45.36,26.56,26.56,0,0,0-26.21-2.52c-9.78,4.54-15.84,14.67-25.11,20.16-8.71,5.15-19.35,5.72-29.46,5.28s-20.34-1.72-30.27.23a48.22,48.22,0,0,0-34.38,28,4.64,4.64,0,0,0,1.1,5.2Z"/><path class="cls-16" d="M284.9,411.68a20.07,20.07,0,0,1-2.75,1.36c-28.12,11.21-60.7,11.57-88.79.08-13.52-5.52-26.59-14.29-34-27.21-8.06-14.12-5-30.11.57-44.51,5.38-14,11.63-28.3,8.26-43.59-3.56-16.16-15.32-29-25.43-41.44-10.49-12.92-20.59-27.6-20.86-44.89-.24-15,6.85-29.33,16.74-40.22,21-23.08,54.14-33.55,84.54-35,27.19-1.27,56.15,9.28,70.65,33.48,7.74,12.91,11.64,28.89,25.45,37,11.8,6.93,25.93,6.64,39,8.85,26.54,4.48,49.47,24.89,51.69,52.58A58.15,58.15,0,0,1,397,309.28c-9.93,12.1-24.76,19.22-34.17,31.77-8.77,11.7-10.38,26.95-18.51,39S321,394.31,308,400.05C298.1,404.4,295.33,405.56,284.9,411.68Z"/><path class="cls-14" d="M890.4,541.87,893,592.73c.1,2,.25,4,1.48,5.58s3.94,2,5,.33c-.29-19.94-.61-40.12-5.61-59.43-2.11.72-1.41,1.94-3.53,2.66"/><path class="cls-17" d="M877.28,475.39a47.79,47.79,0,0,0-39.76,44.13c-.49,7.77,1.41,16.42,7.7,21,3.15,2.3,7,3.31,10.8,4.28l24.43,6.25c5,1.28,10.46,2.54,15.21.49,5.46-2.35,8.3-8.29,12.63-12.35,7.06-6.61,18.32-8.42,23.44-16.63,4-6.37,2.8-15-1.09-21.37s-10-11.1-16.26-15.33c-8.11-5.51-16.89-10.66-26.63-11.77s-20.66,2.78-25.14,11.5"/><path class="cls-14" d="M898.33,564.36a33.55,33.55,0,0,0,16.53-11.15c.65-.82,1.62-1.77,2.56-1.33a1.54,1.54,0,0,1,.7,1.73,4.08,4.08,0,0,1-1,1.71c-4.37,4.94-10.42,8-16.45,10.73a4.19,4.19,0,0,1-1.84.5,1.49,1.49,0,0,1-1.45-1c-.13-.63.57-1.32,1.15-1"/><path class="cls-7" d="M915,555.28c-1.38.91-3.45-.22-3.82-1.83a4.39,4.39,0,0,1,1.9-4.3,13,13,0,0,1,4.58-1.85l10.08-2.63c3.46-.9,7.5-1.69,10.31.53a5.81,5.81,0,0,1,0,9.09,11.78,11.78,0,0,1-4.5,1.86l-8.32,2.13a25.34,25.34,0,0,1-6,1,7,7,0,0,1-5.2-1.83c-1.3-1.38-1.54-3.82-.14-5.1"/><path class="cls-14" d="M979.81,465.18l8.75,73.38,10.37-2.08-7.24-65.89a8,8,0,0,0-1.39-4.41,5.39,5.39,0,0,0-4.81-1.58,15.83,15.83,0,0,0-4.94,1.78"/><path class="cls-14" d="M947.34,525,949.7,570c3.12,1,6.49-1.35,7.84-4.32s1.2-6.37,1-9.63q-.85-15.5-1.72-31l-11.21,1.6"/><path class="cls-7" d="M952.93,530.62c-11,4.84-25,1.33-32.44-8.1-6.1-7.77-7.54-18.59-5.07-28.16A39.46,39.46,0,0,1,968,467.49a25.18,25.18,0,0,1,11.1,7.84c2.76,3.67,4.06,8.61,2.66,13-1.59,5-6.39,8.79-6.71,14-.35,5.84,5.13,10.78,4.95,16.63-.13,4.12-3.17,7.71-6.8,9.67s-7.81,2.59-11.9,3.19a32.16,32.16,0,0,1-9.23.46,10.89,10.89,0,0,1-7.77-4.51"/><path class="cls-5" d="M985.27,489.93c-6.95.45-14.47.77-20.25-3.13a16.07,16.07,0,0,1-7-12.39,3,3,0,0,0-2.62,2.75,7,7,0,0,0,1,3.95A24.64,24.64,0,0,0,982,493.58a5.25,5.25,0,0,0,3.27-1.55c.77-1,.64-2.69-.5-3.16"/><path class="cls-17" d="M964.91,475c-2.18-2.75-4.5-5.6-7.75-6.91s-7.67-.4-9,2.82c-.54,1.27-.57,2.76-1.33,3.91-1.69,2.54-6.1,2.26-7.41,5-.91,1.91.39,4.3,2.27,5.3s4.11,1,6.23.85c2.32-.12,4.64-.29,7-.47,3-.23,6.13-.49,8.78-1.93a6.08,6.08,0,0,0,3.31-4c.3-1.77-.95-3.82-2.75-3.88"/><path class="cls-17" d="M981.59,468.75l-25-8.18c-4.58-1.5-9.29-3.07-12.91-6.24s-5.87-8.42-4.15-12.91c1.39-3.62,5-6,6.53-9.57,1.4-3.23.92-6.91,1.14-10.42a25.52,25.52,0,0,1,38.78-20.17c3.84,2.34,7.13,5.74,11.44,7,6.69,2,13.67-1.56,20.61-2.34a25.88,25.88,0,0,1,12,49.94c-4.24,1.59-9.3,2.35-11.88,6.08-1.69,2.45-1.85,5.63-3.11,8.33-2.07,4.42-6.91,7-11.73,7.69s-9.73-.26-14.51-1.19c-3.6-.7-7.33-1.46-10.29-3.62s-4.93-6.15-3.6-9.56"/><path class="cls-5" d="M679.57,488.14c-26-6-68.11-5.64-98.69-4.88-40.81,1-86.73,15.6-127.54,16.79C270.61,505.39,3.17,689.83,0,691.28H961.05a32.26,32.26,0,0,1,5.09-.18C880.55,606.9,814.47,519.26,679.57,488.14Z"/><path class="cls-18" d="M679.57,488.14c-26-6-68.11-5.64-98.69-4.88-40.81,1-86.73,15.6-127.54,16.79C270.61,505.39,3.17,689.83,0,691.28H961.05a32.26,32.26,0,0,1,5.09-.18C880.55,606.9,814.47,519.26,679.57,488.14Z"/><path class="cls-14" d="M1336.21,318.87l3,49.46c.24,4,1.23,8.91,5.09,9.89,2.91.74,5.91-1.53,7.06-4.31s.9-5.9.65-8.9l-4.25-49.79-13.84,4.65"/><path class="cls-16" d="M1344.46,323.87c-8,.46-17.14.43-22.35-5.6-3.44-4-4.16-9.59-6.59-14.25-5.06-9.68-16.57-13.89-27.27-16.08s-22.16-3.43-30.85-10c-9.51-7.23-13.81-20.06-12.35-31.91s8.07-22.66,16.74-30.87,19.3-14.08,30.19-19c10-4.49,20.64-8.3,31.61-8.18s22.41,4.84,28.18,14.17c3.75,6.07,4.78,13.36,6.46,20.3s4.42,14.16,10.31,18.19c5.19,3.55,12.58,4.5,15.66,10,2.79,5,.59,11.08-.09,16.74-.8,6.65.63,13.35.7,20,.12,11.78-4.37,23.83-13.23,31.59S1355.17,328.76,1344.46,323.87Z"/><path class="cls-19" d="M726.69,510.85l-176.37,35.2L318.83,533.26l53.61-129.11s131.62-2.42,289.87-55.07C662.31,349.08,681.54,444.49,726.69,510.85Z"/><polygon class="cls-14" points="618.94 532.38 693.38 517.5 660.24 355.25 618.94 532.38"/><path class="cls-20" d="M726.68,510.85c.22-.05-50-87.28-64.37-161.77-1.25,24.74,9.76,103.58,18.18,171Z"/><path class="cls-20" d="M660.33,352.34s-21.35,66.2-110,193.71l88.14-17.59Z"/><path class="cls-21" d="M661.44,350.51s-1.83,142.85,19,169.56c0,0,15-22.74,25.5-24.05C706,496,664.51,413.37,661.44,350.51Z"/><polygon class="cls-14" points="307.4 502.64 319.85 503.06 322.86 543.37 318.5 543.22 307.4 502.64"/><polygon class="cls-14" points="537.19 510.38 549.64 510.8 552.65 551.12 548.29 550.97 537.19 510.38"/><polygon class="cls-14" points="739.3 476.99 726.85 476.57 721.14 516.59 725.5 516.73 739.3 476.99"/><polygon class="cls-20" points="662.06 349.17 656.48 362.56 668.09 372.99 662.06 349.17"/><path class="cls-14" d="M1605.17,208.58s17,188.58,5.59,213.45L1593,423.3s-3.3-99.24,0-206.59Z"/><path class="cls-14" d="M1596.88,305.7s-28.17,2.63-56.59-5.75v6.14s47.46,17.83,57.86,5.52Z"/><path class="cls-16" d="M1549.55,296.16a4.2,4.2,0,0,0-.16,5.95,11.58,11.58,0,0,1,2.08,3,13.06,13.06,0,0,1,.21,10.77c-2.68,5.87-9.3,9.27-15.75,9.47s-12.7-2.31-18.23-5.64-10.52-7.47-15.92-11-11.41-6.47-17.84-7c-10.45-.8-21.71,4.79-31-.1-4.45-2.35-7.49-6.77-11.78-9.42-5.23-3.24-11.77-3.54-17.41-6a23.73,23.73,0,0,1-4.41-40.92,24,24,0,0,1,23.65-2.27c8.81,4.1,14.28,13.23,22.65,18.19,7.85,4.65,17.45,5.16,26.57,4.76s18.35-1.55,27.3.21a43.5,43.5,0,0,1,31,25.25,4.2,4.2,0,0,1-1,4.7Z"/><path class="cls-16" d="M1547.93,248.51a18.38,18.38,0,0,0,2.48,1.22c25.37,10.12,54.75,10.44,80.1.08,12.19-5,24-12.89,30.63-24.55,7.28-12.73,4.5-27.16-.51-40.15-4.85-12.61-10.49-25.53-7.45-39.32,3.21-14.57,13.82-26.14,22.94-37.38,9.46-11.66,18.58-24.9,18.82-40.5.21-13.49-6.18-26.45-15.1-36.27C1660.92,10.81,1631,1.37,1603.58.09c-24.53-1.14-50.65,8.37-63.73,30.2-7,11.65-10.5,26.06-23,33.38-10.64,6.26-23.39,6-35.21,8-23.94,4-44.62,22.45-46.63,47.43a52.42,52.42,0,0,0,11.8,37c9,10.93,22.33,17.34,30.82,28.67,7.91,10.55,9.37,24.31,16.7,35.15s21,12.89,32.75,18.07A149.86,149.86,0,0,1,1547.93,248.51Z"/><path class="cls-14" d="M1180.78,445.88a5.86,5.86,0,0,1,.83-6.1,5.18,5.18,0,0,1,5.72-1.35,3.36,3.36,0,0,1,.24-3.76,3,3,0,0,1,3.52-.67,24.27,24.27,0,0,1-6.09-9.72c-1.06-3.72-.56-8,2-10.65s7.29-2.87,9.82,0a4.13,4.13,0,0,1,1.91-4.51,4,4,0,0,1,4.76,1c-.14-3,3.33-5.25,5.91-3.85-1.57-4.95-1.9-10.4-.22-15.16s5.53-8.67,10.31-9.63a12.07,12.07,0,0,1,12.74,6.06,7.39,7.39,0,0,1,6-6.63,8,8,0,0,1,8.06,4.55,4,4,0,0,1,2.91-3.56,4.22,4.22,0,0,1,4.35,1.77c-2-6-1.84-12.81,1.21-18s9.13-8.43,15-7.26,11,7.1,10.89,13.34a5.43,5.43,0,0,1,3.5-5.35,5.52,5.52,0,0,1,6.15,1.83,7.45,7.45,0,0,1,13.05-5.49c-1.22-6.29,1.62-13,6.8-16.07s12.33-2.23,17.08,2a17,17,0,0,1,4.82,17.42,9.7,9.7,0,0,1,4.55-5.37,6.63,6.63,0,0,1,6.84.57,5.81,5.81,0,0,1,1.92,6.7c1.8-4.79,5.29-8.91,9.87-10.74a14,14,0,0,1,14.21,2.32c3.93,3.43,5.64,9.61,3.5,14.23Z"/><path class="cls-14" d="M1616.05,399.57a4.44,4.44,0,0,1,4.15-2,3.9,3.9,0,0,1,3.24,3,2.52,2.52,0,0,1,2.44-1.42,2.21,2.21,0,0,1,1.9,1.91,18.1,18.1,0,0,1,3.5-7.87c1.87-2.22,4.76-3.72,7.46-3.23a5.13,5.13,0,0,1,4.09,6.12,3.13,3.13,0,0,1,3.62-.7,3,3,0,0,1,1.39,3.37,3.14,3.14,0,0,1,4.87,2.07,18.19,18.19,0,0,1,9.35-6.49,10.87,10.87,0,0,1,10.33,2.38,9.07,9.07,0,0,1,1.56,10.47,5.56,5.56,0,0,1,6.66,1,6,6,0,0,1,.54,6.92,3,3,0,0,1,3.45.33,3.18,3.18,0,0,1,.71,3.45c2.87-3.78,7.21-6.52,11.73-6.8a11,11,0,0,1,10.82,6.33,10.49,10.49,0,0,1-3.74,12.37,4.05,4.05,0,0,1,4.79-.06,4.11,4.11,0,0,1,1.44,4.6,5.59,5.59,0,0,1,8.89,5.82,11.64,11.64,0,0,1,12.86-2.5,11.19,11.19,0,0,1,5.93,11.47,12.81,12.81,0,0,1-8.83,10.3,7.24,7.24,0,0,1,5.25.58,5,5,0,0,1,2.52,4.5,4.36,4.36,0,0,1-3.37,4,13.71,13.71,0,0,1,10.82,1.65,10.54,10.54,0,0,1,4.51,9.82c-.49,3.88-3.62,7.54-7.39,8.15Z"/><path class="cls-22" d="M744.29,690.21s490.62-336.13,716.12-341.27c215.27-4.91,473.06,343.94,473.06,343.94Z"/><path class="cls-23" d="M744.29,690.21s490.62-336.13,716.12-341.27c215.27-4.91,473.06,343.94,473.06,343.94Z"/></g></g></svg>