<svg xmlns="http://www.w3.org/2000/svg" xmlns:xlink="http://www.w3.org/1999/xlink" width="1640" height="721.642" viewBox="0 0 1640 721.642">
  <defs>
    <radialGradient id="radial-gradient" cx="0.5" cy="0.5" r="0.5" gradientTransform="translate(0)" gradientUnits="objectBoundingBox">
      <stop offset="0.56" stop-color="#f4f4a2"/>
      <stop offset="0.68" stop-color="#e7f7bf" stop-opacity="0.678"/>
      <stop offset="0.79" stop-color="#dbfbda" stop-opacity="0.388"/>
      <stop offset="0.89" stop-color="#d2fded" stop-opacity="0.18"/>
      <stop offset="0.96" stop-color="#ccfef9" stop-opacity="0.051"/>
      <stop offset="1" stop-color="#cafffe" stop-opacity="0"/>
    </radialGradient>
    <linearGradient id="linear-gradient" x1="0.499" y1="0.617" x2="0.502" y2="0.103" gradientUnits="objectBoundingBox">
      <stop offset="0.14" stop-color="#fff" stop-opacity="0"/>
      <stop offset="0.34" stop-color="#e2e2e2" stop-opacity="0.11"/>
      <stop offset="0.77" stop-color="#adadad" stop-opacity="0.322"/>
      <stop offset="1" stop-color="#999" stop-opacity="0.4"/>
    </linearGradient>
    <linearGradient id="linear-gradient-2" x1="0.5" y1="0.623" x2="0.503" y2="0.099" gradientUnits="objectBoundingBox">
      <stop offset="0.15" stop-color="#fff" stop-opacity="0"/>
      <stop offset="0.35" stop-color="#e2e2e2" stop-opacity="0.11"/>
      <stop offset="0.77" stop-color="#adadad" stop-opacity="0.322"/>
      <stop offset="1" stop-color="#999" stop-opacity="0.4"/>
    </linearGradient>
    <linearGradient id="linear-gradient-3" x1="0.499" y1="0.618" x2="0.501" y2="0.102" gradientUnits="objectBoundingBox">
      <stop offset="0.24" stop-color="#fff" stop-opacity="0"/>
      <stop offset="0.42" stop-color="#e2e2e2" stop-opacity="0.11"/>
      <stop offset="0.79" stop-color="#adadad" stop-opacity="0.322"/>
      <stop offset="1" stop-color="#999" stop-opacity="0.4"/>
    </linearGradient>
    <linearGradient id="linear-gradient-4" x1="0.5" y1="1.004" x2="0.502" y2="0.16" gradientUnits="objectBoundingBox">
      <stop offset="0.24" stop-color="#fff" stop-opacity="0"/>
      <stop offset="0.62" stop-color="#fcfcfc" stop-opacity="0.012"/>
      <stop offset="0.75" stop-color="#f1f1f1" stop-opacity="0.059"/>
      <stop offset="0.85" stop-color="#ddd" stop-opacity="0.129"/>
      <stop offset="0.93" stop-color="#c1c1c1" stop-opacity="0.239"/>
      <stop offset="0.99" stop-color="#9d9d9d" stop-opacity="0.38"/>
      <stop offset="1" stop-color="#999" stop-opacity="0.4"/>
    </linearGradient>
    <linearGradient id="linear-gradient-5" x1="0.502" y1="1.257" x2="0.497" y2="0.477" gradientUnits="objectBoundingBox">
      <stop offset="0" stop-color="#fff" stop-opacity="0"/>
      <stop offset="0.59" stop-color="#fff" stop-opacity="0.012"/>
      <stop offset="0.8" stop-color="#fff" stop-opacity="0.031"/>
      <stop offset="0.96" stop-color="#fff" stop-opacity="0.078"/>
      <stop offset="1" stop-color="#fff" stop-opacity="0.102"/>
    </linearGradient>
  </defs>
  <g id="Group_241" data-name="Group 241" transform="translate(-140 -2654.482)">
    <g id="Group_240" data-name="Group 240">
      <path id="Path_337" data-name="Path 337" d="M1780,3240c-744.787,199.625-932.495,162.421-1636.541,0C393.914,3190.843,1780,3240,1780,3240Z" fill="#19485a"/>
      <g id="Layer_2" data-name="Layer 2" transform="translate(140 2654.482)">
        <g id="CampDrawing" transform="translate(0 0)">
          <g id="Group_81" data-name="Group 81" transform="translate(34.403 125.342)" opacity="0.47">
            <path id="Path_85" data-name="Path 85" d="M585.131,242.437c-.958-2.638.271-5.7,2.375-7.558a15.328,15.328,0,0,1,7.634-3.2,36.541,36.541,0,0,1,31.231,9.7,17.435,17.435,0,0,1,22.385,1.247,12.409,12.409,0,0,1,20.629-6.226c-1.459-5.174,1.476-10.934,6.065-13.741s10.408-3.011,15.607-1.7c12.146,3.147,21.485,14.963,21.731,27.516,5.369-4.716,14.928-3.147,18.508,3.037a8.906,8.906,0,0,1,15.268,6.251c-3.333,1.4-6.523,3.215-10.119,3.529l-18.712,1.62c-3.164.271-6.438.534-9.449-.483-4.038-1.357-7.363-4.928-11.621-5.038-5.191-.136-9.135,4.886-14.233,5.853-6.413,1.2-12.2-4.241-18.661-5.03-7.456-.942-14.5,4.317-22.053,4.122s-13.868-5.717-21.206-7.125c-4.75-.908-9.627-.059-14.42.5s-9.865.789-14.259-1.238-7.778-6.955-6.531-11.621" transform="translate(-123.167 -158.76)" fill="#0da9ff"/>
            <path id="Path_86" data-name="Path 86" d="M1733.154,349.635a8.8,8.8,0,0,1,6.989-10.755c7.77-1.934,16.116,1.79,21.748,9.7,4.454-5.089,11.562-4.53,15.59,1.247.679-4.241,3.02-7.846,5.938-9.11s6.243-.119,8.482,2.884c-1.017-5.174,1.027-10.942,4.242-13.75s7.244-3.011,10.865-1.7c8.482,3.147,14.963,14.971,15.133,27.516,3.74-4.708,10.39-3.138,12.884,3.045,1.7-2.485,4.5-3.3,6.786-1.968s3.833,4.716,3.843,8.219c-2.316,1.391-4.539,3.215-7.041,3.529l-13.037,1.612c-2.205.28-4.479.543-6.573-.475-2.816-1.357-5.089-4.928-8.092-5.038-3.613-.136-6.361,4.886-9.916,5.844-4.462,1.213-8.482-4.241-13-5.022-5.19-.941-10.094,4.317-15.327,4.122s-9.653-5.725-14.785-7.134c-3.308-.9-6.709-.051-10.051.509s-6.862.789-9.924-1.238-5.42-6.955-4.546-11.621" transform="translate(-297.43 -175.03)" fill="#0da9ff"/>
            <path id="Path_87" data-name="Path 87" d="M355.953,152.842c.348-.6-.1-1.306-.848-1.7a7.82,7.82,0,0,0-2.825-.729,19.212,19.212,0,0,0-11.485,2.222,9.525,9.525,0,0,0-8.236.28,4.021,4.021,0,0,0-3.121-2.078,6.828,6.828,0,0,0-4.462.653c.534-1.187-.543-2.545-2.231-3.147a11.637,11.637,0,0,0-5.742-.382c-4.47.721-7.9,3.393-7.99,6.3-1.976-1.077-5.488-.721-6.786.7a4.954,4.954,0,0,0-3.571-.45c-1.187.305-2.027,1.086-2.036,1.883a18.074,18.074,0,0,0,3.724.806l6.879.373a13.576,13.576,0,0,0,3.478-.11c1.484-.314,2.706-1.128,4.241-1.154,1.909,0,3.393,1.12,5.234,1.34,2.358.28,4.487-.967,6.871-1.154,2.74-.212,5.335.992,8.092.95s5.089-1.315,7.812-1.637a28.526,28.526,0,0,1,5.31.119,15.387,15.387,0,0,0,5.242-.288c1.611-.458,2.858-1.595,2.4-2.663" transform="translate(-79.425 -147.77)" fill="#0da9ff"/>
            <path id="Path_88" data-name="Path 88" d="M149.284,263.662a6,6,0,0,0-1.595-5.785,9.7,9.7,0,0,0-5.166-2.443,22.744,22.744,0,0,0-21.044,7.422,10.7,10.7,0,0,0-15.081.95,9.263,9.263,0,0,0-5.725-6.964,7.8,7.8,0,0,0-8.168,2.2,10.348,10.348,0,0,0-4.071-10.518,12.247,12.247,0,0,0-10.509-1.272c-8.185,2.409-14.479,11.459-14.64,21.061-3.622-3.6-10.06-2.409-12.469,2.333a5.615,5.615,0,0,0-6.54-1.51,7.04,7.04,0,0,0-3.715,6.285c2.239,1.077,4.394,2.468,6.786,2.706l12.6,1.238A13.912,13.912,0,0,0,66.32,279c2.723-1.043,4.962-3.775,7.829-3.859,3.495-.1,6.158,3.741,9.585,4.479,4.326.925,8.219-3.223,12.587-3.851,5.021-.721,9.763,3.308,14.827,3.155s9.33-4.377,14.309-5.454c3.2-.7,6.48,0,9.721.382s6.642.6,9.6-.941,5.242-5.327,4.4-8.9" transform="translate(-40.559 -162.775)" fill="#0da9ff"/>
            <path id="Path_89" data-name="Path 89" d="M1269.084,233.092c.348-.6-.1-1.306-.849-1.7a7.816,7.816,0,0,0-2.824-.729,19.272,19.272,0,0,0-11.485,2.214,9.551,9.551,0,0,0-8.236.289,4.048,4.048,0,0,0-3.122-2.087,6.834,6.834,0,0,0-4.461.662c.534-1.187-.543-2.545-2.231-3.147a11.639,11.639,0,0,0-5.743-.382c-4.47.721-7.9,3.393-7.99,6.3-1.976-1.077-5.488-.721-6.786.7a4.92,4.92,0,0,0-3.562-.45c-1.2.305-2.027,1.077-2.036,1.883a18.075,18.075,0,0,0,3.723.848l6.879.373a13.944,13.944,0,0,0,3.478-.11c1.484-.314,2.706-1.128,4.241-1.154,1.909,0,3.393,1.12,5.234,1.34,2.358.271,4.487-.967,6.87-1.154,2.74-.212,5.327.992,8.092.942s5.09-1.306,7.813-1.629a27.823,27.823,0,0,1,5.31.11,15.182,15.182,0,0,0,5.242-.28c1.612-.467,2.858-1.595,2.4-2.663" transform="translate(-218.025 -159.95)" fill="#0da9ff"/>
            <path id="Path_90" data-name="Path 90" d="M1125.7,192.636c.7-1.2-.2-2.613-1.747-3.461a15.431,15.431,0,0,0-5.641-1.467c-8.2-.848-17.015.848-22.97,4.445-4.707-2.333-12.214-2.078-16.472.568-.713-1.942-3.189-3.588-6.252-4.165a13.64,13.64,0,0,0-8.915,1.315c1.069-2.367-1.094-5.013-4.462-6.294a23.256,23.256,0,0,0-11.485-.763c-8.932,1.442-15.8,6.854-15.989,12.6-3.944-2.163-10.976-1.442-13.572,1.391a9.9,9.9,0,0,0-7.142-.9c-2.375.611-4.055,2.163-4.055,3.766a36.389,36.389,0,0,0,7.439,1.612l13.767.746a27.475,27.475,0,0,0,6.947-.221c2.969-.619,5.42-2.256,8.55-2.307,3.817-.068,6.718,2.239,10.467,2.672,4.716.56,8.974-1.925,13.741-2.3,5.479-.433,10.662,1.976,16.184,1.891s10.179-2.621,15.633-3.266a58.375,58.375,0,0,1,10.6.229c3.528.229,7.261.356,10.492-.568s5.726-3.189,4.8-5.327" transform="translate(-187.25 -153.033)" fill="#0da9ff"/>
          </g>
          <ellipse id="Ellipse_3" data-name="Ellipse 3" cx="46.347" cy="46.347" rx="46.347" ry="46.347" transform="translate(660.718 203.285)" fill="url(#radial-gradient)"/>
          <ellipse id="Ellipse_4" data-name="Ellipse 4" cx="23.877" cy="23.877" rx="23.877" ry="23.877" transform="translate(684.213 225.754)" fill="#f4f4a2"/>
          <path id="Path_91" data-name="Path 91" d="M461.677,384.551l-.679,1a3.511,3.511,0,1,1,4.776-5.149,3.223,3.223,0,0,1,3.35-3.138,13.877,13.877,0,0,1-1.289-11.926,5.383,5.383,0,0,1,3.079-3.562c1.552-.484,3.393.331,4.877,1.3a27.567,27.567,0,0,1,6.591,6.158,16.03,16.03,0,0,1,1.493-4.037,5.48,5.48,0,0,1,3.266-2.655,3.342,3.342,0,0,1,3.707,1.5,2.307,2.307,0,1,1,4.309-1.552,1.544,1.544,0,0,1,2.324.136,2.468,2.468,0,0,1,.11,2.545,6.787,6.787,0,0,1-1.7,2.036A106.031,106.031,0,0,1,470.007,384.4c-2.4,1.12-5.089,2.171-7.634,1.357a1.476,1.476,0,0,1-.848-.56.636.636,0,0,1,.17-.9" transform="translate(-69.802 -54.746)" fill="#23607d"/>
          <path id="Path_92" data-name="Path 92" d="M553.941,331.077l-.517.848a2.881,2.881,0,1,1,3.9-4.241,2.638,2.638,0,0,1,2.74-2.545,11.333,11.333,0,0,1-1.052-9.755,4.412,4.412,0,0,1,2.545-2.918c1.357-.424,2.8.28,3.987,1.06a22.7,22.7,0,0,1,5.386,5.038,13.641,13.641,0,0,1,1.221-3.3,4.48,4.48,0,0,1,2.672-2.163,2.731,2.731,0,0,1,3.037,1.221,1.892,1.892,0,1,1,3.529-1.264,1.247,1.247,0,0,1,1.891.1,2.019,2.019,0,0,1,.094,2.087,5.524,5.524,0,0,1-1.417,1.7,86.388,86.388,0,0,1-21.206,14.063c-1.959.916-4.173,1.781-6.226,1.111a1.3,1.3,0,0,1-.7-.458.526.526,0,0,1,.144-.738" transform="translate(-83.86 -47.289)" fill="#23607d"/>
          <path id="Path_93" data-name="Path 93" d="M500.88,338.144l1.145,22.147a4.123,4.123,0,0,0,.645,2.426,1.433,1.433,0,0,0,2.188.144c-.127-8.686-.263-17.465-2.443-25.87-.925.314-.619.848-1.535,1.154" transform="translate(-76.026 -51.149)" fill="#23607d"/>
          <path id="Path_94" data-name="Path 94" d="M491.038,304.119a20.832,20.832,0,0,0-17.3,19.212c-.212,3.393.611,7.15,3.35,9.144a13.574,13.574,0,0,0,4.708,1.866l10.628,2.723c2.18.56,4.555,1.1,6.625.212,2.375-1.026,3.6-3.6,5.5-5.378,3.071-2.876,7.973-3.664,10.179-7.235,1.7-2.774,1.221-6.506-.475-9.331s-4.377-4.835-7.083-6.675c-3.529-2.4-7.346-4.64-11.587-5.089s-8.991,1.213-10.942,5" transform="translate(-71.901 -46.065)" fill="#338ba0"/>
          <path id="Path_95" data-name="Path 95" d="M504.863,348.91a14.522,14.522,0,0,0,7.2-4.852c.28-.356.7-.763,1.111-.577a.661.661,0,0,1,.305.755,1.628,1.628,0,0,1-.45.738,20.038,20.038,0,0,1-7.159,4.674,1.788,1.788,0,0,1-.8.221.653.653,0,0,1-.636-.458c-.051-.271.254-.577.5-.45" transform="translate(-76.565 -52.127)" fill="#23607d"/>
          <path id="Path_96" data-name="Path 96" d="M513.163,344.333a1.179,1.179,0,0,1-1.7-.8,1.917,1.917,0,0,1,.848-1.866,5.547,5.547,0,0,1,1.993-.806l4.385-1.145c1.51-.39,3.266-.738,4.487.229a2.6,2.6,0,0,1,.967,1.976,2.543,2.543,0,0,1-.95,1.976,5.087,5.087,0,0,1-1.968.848l-3.622.933a11.728,11.728,0,0,1-2.587.45,3.036,3.036,0,0,1-2.273-.8,1.628,1.628,0,0,1-.059-2.222" transform="translate(-77.63 -51.503)" fill="#3c9cba"/>
          <path id="Path_97" data-name="Path 97" d="M546.76,298.949l3.809,31.944,4.512-.908L551.934,301.3a3.537,3.537,0,0,0-.6-1.917,2.367,2.367,0,0,0-2.1-.687,6.837,6.837,0,0,0-2.154.772" transform="translate(-82.989 -45.331)" fill="#23607d"/>
          <path id="Path_98" data-name="Path 98" d="M529.969,329.7,531,349.268a3.011,3.011,0,0,0,3.393-1.883,8.729,8.729,0,0,0,.441-4.19l-.7-13.495-4.885.7" transform="translate(-80.33 -50.042)" fill="#23607d"/>
          <path id="Path_99" data-name="Path 99" d="M529.989,327.45a12.24,12.24,0,0,1-14.123-3.528,14.283,14.283,0,0,1-2.205-12.257,17.176,17.176,0,0,1,22.9-11.7,11.028,11.028,0,0,1,4.835,3.393A6.38,6.38,0,0,1,542.551,309c-.687,2.171-2.782,3.834-2.918,6.107-.153,2.545,2.231,4.691,2.154,7.235a5.267,5.267,0,0,1-2.96,4.241,15.453,15.453,0,0,1-5.174,1.391,14.246,14.246,0,0,1-4.021.2,4.767,4.767,0,0,1-3.393-1.968" transform="translate(-77.889 -45.349)" fill="#3c9cba"/>
          <path id="Path_100" data-name="Path 100" d="M547.244,310.482c-3.028.2-6.3.339-8.821-1.357a7.024,7.024,0,0,1-3.037-5.395,1.3,1.3,0,0,0-1.137,1.2,3.053,3.053,0,0,0,.449,1.7,10.73,10.73,0,0,0,11.095,5.429,2.265,2.265,0,0,0,1.425-.679.908.908,0,0,0-.22-1.366" transform="translate(-81.09 -46.1)" fill="#23607d"/>
          <path id="Path_101" data-name="Path 101" d="M537.1,303.418a8.861,8.861,0,0,0-3.393-3c-1.416-.568-3.342-.178-3.936,1.23a9.544,9.544,0,0,1-.585,1.7c-.729,1.111-2.655.984-3.223,2.188a1.892,1.892,0,0,0,.992,2.307,5.226,5.226,0,0,0,2.706.373c1.018-.051,2.027-.136,3.037-.212a9.33,9.33,0,0,0,3.826-.848,2.656,2.656,0,0,0,1.433-1.747,1.442,1.442,0,0,0-1.2-1.7" transform="translate(-79.818 -45.559)" fill="#338ba0"/>
          <path id="Path_102" data-name="Path 102" d="M544.355,295.273l-10.908-3.554A15.7,15.7,0,0,1,527.832,289c-1.569-1.383-2.545-3.664-1.807-5.624.6-1.578,2.171-2.621,2.841-4.165.611-1.408.4-3.011.5-4.538a11.112,11.112,0,0,1,16.88-8.779c1.7,1.018,3.1,2.5,4.979,3.062,2.909.848,5.938-.679,8.974-1.018a11.264,11.264,0,0,1,5.225,21.74c-1.849.7-4.054,1.026-5.174,2.646-.738,1.069-.806,2.451-1.357,3.63A6.514,6.514,0,0,1,553.8,299.3a19.2,19.2,0,0,1-6.319-.517,11.027,11.027,0,0,1-4.479-1.569,3.752,3.752,0,0,1-1.561-4.165" transform="translate(-79.804 -40.111)" fill="#3c9cba"/>
          <path id="Path_103" data-name="Path 103" d="M978.627,293.059l.187,16.583a3.088,3.088,0,0,1-.365,1.841,1.069,1.069,0,0,1-1.628.212c-.314-6.489-.619-13.046.611-19.424.7.187.5.6,1.2.789" transform="translate(-148.223 -44.361)" fill="#2c7591"/>
          <path id="Path_104" data-name="Path 104" d="M979.3,267.357a15.573,15.573,0,0,1,13.826,13.572c.314,2.545-.127,5.361-2.078,6.981a9.983,9.983,0,0,1-3.393,1.612l-7.812,2.545c-1.6.526-3.393,1.043-4.937.475-1.823-.653-2.867-2.545-4.351-3.758-2.435-2-6.133-2.358-7.956-4.928-1.425-1.985-1.221-4.8-.085-6.964a17.072,17.072,0,0,1,4.97-5.318c2.545-1.951,5.267-3.808,8.414-4.368s6.786.484,8.4,3.223" transform="translate(-145.955 -40.534)" fill="#4abdd8"/>
          <path id="Path_105" data-name="Path 105" d="M1022.162,295.523a11.1,11.1,0,0,1-5.488-3.7c-.212-.271-.534-.585-.848-.441a.509.509,0,0,0-.229.577,1.3,1.3,0,0,0,.339.568,15.477,15.477,0,0,0,5.462,3.563,1.425,1.425,0,0,0,.611.161.474.474,0,0,0,.475-.348c0-.2-.186-.441-.381-.348" transform="translate(-154.148 -44.221)" fill="#23607d"/>
          <path id="Path_106" data-name="Path 106" d="M1015.345,292.041a.89.89,0,0,0,1.264-.611,1.45,1.45,0,0,0-.627-1.425,4.394,4.394,0,0,0-1.519-.611l-3.35-.848c-1.145-.3-2.485-.56-3.393.178a1.926,1.926,0,0,0,0,3.011,3.877,3.877,0,0,0,1.493.619l2.765.713a8.689,8.689,0,0,0,1.976.339,2.307,2.307,0,0,0,1.7-.6,1.239,1.239,0,0,0,0-1.7" transform="translate(-152.846 -43.75)" fill="#3c9cba"/>
          <path id="Path_107" data-name="Path 107" d="M1024.814,274.64l1.136,32.147-4.606-.2-1.281-28.839a3.536,3.536,0,0,1,.306-1.993,2.365,2.365,0,0,1,1.968-1,7.054,7.054,0,0,1,2.239.441" transform="translate(-154.824 -41.685)" fill="#2c7591"/>
          <path id="Path_108" data-name="Path 108" d="M1044.369,305.88l-1.069,19.611a3.02,3.02,0,0,1-3.393-1.883,8.936,8.936,0,0,1-.441-4.19l.747-13.5,4.877.7" transform="translate(-157.762 -46.427)" fill="#2c7591"/>
          <path id="Path_109" data-name="Path 109" d="M1040.089,303.631a12.231,12.231,0,0,0,14.1-3.529,14.259,14.259,0,0,0,2.214-12.257,17.185,17.185,0,0,0-22.9-11.7,10.9,10.9,0,0,0-4.827,3.393,6.37,6.37,0,0,0-1.162,5.649c.7,2.171,2.782,3.825,2.918,6.1.153,2.545-2.231,4.7-2.155,7.244a5.293,5.293,0,0,0,2.96,4.241,15.7,15.7,0,0,0,5.182,1.391,13.882,13.882,0,0,0,4.012.2,4.7,4.7,0,0,0,3.393-1.959" transform="translate(-155.926 -41.734)" fill="#54cee2"/>
          <path id="Path_110" data-name="Path 110" d="M1042.524,313.392c3.02.2,6.3.339,8.813-1.357a7.022,7.022,0,0,0,3.037-5.395,1.3,1.3,0,0,1,1.136,1.2,3.055,3.055,0,0,1-.449,1.7,10.722,10.722,0,0,1-11.086,5.429,2.223,2.223,0,0,1-1.425-.679.907.907,0,0,1,.212-1.374" transform="translate(-158.208 -46.542)" fill="#23607d"/>
          <path id="Path_111" data-name="Path 111" d="M1054.532,306.338a8.856,8.856,0,0,1,3.393-3c1.417-.568,3.342-.178,3.936,1.221a9.4,9.4,0,0,0,.585,1.7c.729,1.1,2.655.984,3.223,2.18a1.874,1.874,0,0,1-.992,2.307,5.089,5.089,0,0,1-2.706.373c-1.009-.051-2.019-.127-3.028-.2a9.5,9.5,0,0,1-3.834-.848,2.647,2.647,0,0,1-1.434-1.756,1.434,1.434,0,0,1,1.2-1.7" transform="translate(-159.927 -46.002)" fill="#338ba0"/>
          <path id="Path_112" data-name="Path 112" d="M1024.371,271.451l10.9-3.554a15.583,15.583,0,0,0,5.615-2.723c1.578-1.383,2.544-3.664,1.807-5.615-.6-1.578-2.163-2.621-2.841-4.173-.6-1.4-.4-3-.492-4.529a11.1,11.1,0,0,0-16.879-8.779c-1.7,1.018-3.1,2.494-4.979,3.062-2.918.848-5.937-.679-8.974-1.018a11.264,11.264,0,0,0-5.225,21.74c1.849.7,4.046,1.018,5.166,2.646.738,1.069.848,2.451,1.357,3.622a6.54,6.54,0,0,0,5.089,3.351,19.2,19.2,0,0,0,6.319-.517,10.976,10.976,0,0,0,4.479-1.578,3.76,3.76,0,0,0,1.569-4.165" transform="translate(-151.175 -36.494)" fill="#4abdd8"/>
          <path id="Path_113" data-name="Path 113" d="M816.71,375.347s46.372-12.528,93.55-45.235,61.072-29.73,77.035-23,140.957,100.225,240.342,100.225L1053.752,546.686Z" transform="translate(-123.963 -45.958)" fill="#4abdd8"/>
          <path id="Path_114" data-name="Path 114" d="M816.71,375.347s46.372-12.528,93.55-45.235,61.072-29.73,77.035-23,140.957,100.225,240.342,100.225L1053.752,546.686Z" transform="translate(-123.963 -45.958)" fill="url(#linear-gradient)"/>
          <path id="Path_115" data-name="Path 115" d="M752.617,337.765a7.36,7.36,0,0,1-.848-2.731,2.435,2.435,0,0,1,1.323-2.358,1.782,1.782,0,0,0,3.486-.314,1.5,1.5,0,0,1,1.569,1.434c-.144-1.442,0-3.062,1.111-4.021a3.393,3.393,0,0,1,4.385.221,5.6,5.6,0,0,1,1.7,4.343A16.175,16.175,0,0,1,764.331,339a1.094,1.094,0,0,1,1.586-.755,1.781,1.781,0,0,1,.848,1.79,5.292,5.292,0,0,1-.772,1.934,2.211,2.211,0,0,0,2.926.976,1.2,1.2,0,0,1,.789.5,1.934,1.934,0,0,1,.093,1.849,5.434,5.434,0,0,1-1.213,1.527,6.151,6.151,0,0,1-3.334,2.222c-1.561.238-3.037-.712-4.334-1.612a21.678,21.678,0,0,1-5.344-4.665,27.574,27.574,0,0,0-2.171-3.02,6.123,6.123,0,0,1-1.247-1.408,1.256,1.256,0,0,1,.331-1.7" transform="translate(-114.105 -49.947)" fill="#23607d"/>
          <path id="Path_116" data-name="Path 116" d="M810.047,376.757a7.186,7.186,0,0,1-.848-2.731,2.443,2.443,0,0,1,1.315-2.358,1.37,1.37,0,1,0,2.721-.15,1.5,1.5,0,0,1,2.335,1.27c-.136-1.442,0-3.062,1.111-4.021a3.444,3.444,0,0,1,4.385.212,5.6,5.6,0,0,1,1.7,4.343,16.74,16.74,0,0,1-1.01,4.674,1.1,1.1,0,0,1,1.586-.763,1.781,1.781,0,0,1,.8,1.8,5.273,5.273,0,0,1-.763,1.934,2.2,2.2,0,0,0,2.918.976,1.2,1.2,0,0,1,.789.5,1.908,1.908,0,0,1,.1,1.849,5.456,5.456,0,0,1-1.187,1.535,6.176,6.176,0,0,1-3.325,2.222c-1.569.237-3.037-.713-4.343-1.62a21.588,21.588,0,0,1-5.335-4.657,25.772,25.772,0,0,0-2.18-3.02,6.327,6.327,0,0,1-1.247-1.408,1.272,1.272,0,0,1,.339-1.7" transform="translate(-122.822 -55.868)" fill="#23607d"/>
          <path id="Path_117" data-name="Path 117" d="M782.128,318.07a377.276,377.276,0,0,1-.305,39.179l3.062-.17a199.285,199.285,0,0,0,0-37.847L781,318.859" transform="translate(-118.543 -48.277)" fill="#23607d"/>
          <path id="Path_118" data-name="Path 118" d="M777.946,327.944a7.634,7.634,0,0,1-8.83-2.706,29.6,29.6,0,0,0-1.781-2.842c-2.468-2.85-7.634-2.341-9.653-5.5-1.264-1.942-.848-4.487-.3-6.786l2.443-10.934c.763-3.452,1.637-7.091,4.1-9.627a12.8,12.8,0,0,1,9.509-3.444,36.52,36.52,0,0,1,10.179,2.1c3.333,1.035,6.4,2.036,9.576,3.113a15.969,15.969,0,0,1,5.14,2.451,9.892,9.892,0,0,1,3.393,7.252,16.279,16.279,0,0,1-1.926,7.939c-2.18,4.351-5.7,8.083-6.9,12.8a22.491,22.491,0,0,1-1.162,4.377c-1.442,3-5.089,4.394-8.423,4.165s-6.387-1.747-9.33-3.232" transform="translate(-114.878 -43.425)" fill="#3c9cba"/>
          <path id="Path_119" data-name="Path 119" d="M802.8,351.45l.356,19.6,2.121.1-.17-19.416-2.248.288" transform="translate(-121.852 -53.343)" fill="#23607d"/>
          <path id="Path_120" data-name="Path 120" d="M800.578,352.022a17.056,17.056,0,0,1-6.15-1.849,5.4,5.4,0,0,1-2.078-1.7,2.324,2.324,0,0,1-.119-2.545c.4-.577,1.111-.848,1.5-1.45.78-1.128,0-2.63-.645-3.834a9.979,9.979,0,0,1-1.442-4.165,4.5,4.5,0,0,1,1.637-3.936,6.954,6.954,0,0,1,2.358-.925l5.089-1.315a9.832,9.832,0,0,1,4.36-.441,6.786,6.786,0,0,1,4.419,3.766,15.323,15.323,0,0,0,1.527,2.884,14.03,14.03,0,0,0,2.655,2.12,4.242,4.242,0,0,1,1.908,2.706,4.35,4.35,0,0,1-1.7,3.461,9.039,9.039,0,0,0-2.545,3.028c-.577,1.391-.305,3.113-1.221,4.309a5.264,5.264,0,0,1-3.215,1.544,9.727,9.727,0,0,1-4.063.305,4.929,4.929,0,0,1-3.546-3.13" transform="translate(-120.156 -50.056)" fill="#3c9cba"/>
          <path id="Path_121" data-name="Path 121" d="M805.775,368.691a4.86,4.86,0,0,0,2.892-4.9.772.772,0,0,1,.781.356,1.7,1.7,0,0,1,.238.848,4.521,4.521,0,0,1-5.166,4.7,1.7,1.7,0,0,1,2.1-1.23" transform="translate(-122.113 -55.215)" fill="#23607d"/>
          <path id="Path_122" data-name="Path 122" d="M808.585,364.891a1.645,1.645,0,0,1-1.925-1.425,2.273,2.273,0,0,1,1.34-2.171,3.716,3.716,0,0,1,2.655-.085,3.028,3.028,0,0,0,1.459.254c.356-.085.653-.331,1.01-.441a1.7,1.7,0,0,1,2.044,1.467,2.545,2.545,0,0,1-1.281,2.4,6.513,6.513,0,0,1-3.037.755,5.77,5.77,0,0,1-1.985-.1,2.054,2.054,0,0,1-1.442-1.281" transform="translate(-122.438 -54.791)" fill="#2f7d9b"/>
          <path id="Path_123" data-name="Path 123" d="M764.15,478.094l1.145,22.138a4.114,4.114,0,0,0,.645,2.426,1.432,1.432,0,0,0,2.188.144c-.127-8.677-.263-17.456-2.443-25.862-.925.305-.619.848-1.535,1.154" transform="translate(-115.986 -72.391)" fill="#23607d"/>
          <path id="Path_124" data-name="Path 124" d="M754.306,444.064a20.815,20.815,0,0,0-17.312,19.212c-.212,3.393.61,7.151,3.393,9.144a13.439,13.439,0,0,0,4.7,1.866l10.569,2.706c2.18.551,4.555,1.1,6.625.212,2.375-1.026,3.6-3.613,5.5-5.378,3.07-2.875,7.973-3.664,10.178-7.244,1.7-2.774,1.221-6.506-.466-9.33s-4.377-4.835-7.083-6.676c-3.529-2.4-7.354-4.64-11.586-5.089s-8.991,1.213-10.951,5" transform="translate(-111.859 -67.302)" fill="#4abdd8"/>
          <path id="Path_125" data-name="Path 125" d="M804.51,472.318l.848,15.734a2.986,2.986,0,0,0,.458,1.7,1.018,1.018,0,0,0,1.561.1c-.094-6.167-.187-12.41-1.739-18.381-.653.221-.433.594-1.094.848" transform="translate(-122.112 -71.56)" fill="#23607d"/>
          <path id="Path_126" data-name="Path 126" d="M800.855,455.338a14.793,14.793,0,0,0-12.3,13.656c-.153,2.4.441,5.089,2.384,6.5a9.485,9.485,0,0,0,3.342,1.323l7.557,1.934c1.552.4,3.24.789,4.708.153,1.7-.729,2.545-2.545,3.91-3.817,2.18-2.053,5.666-2.613,7.252-5.149a6.533,6.533,0,0,0-.339-6.616,16.5,16.5,0,0,0-5.03-4.741c-2.545-1.7-5.225-3.291-8.245-3.639s-6.387.848-7.77,3.554" transform="translate(-119.687 -69.042)" fill="#4abdd8"/>
          <path id="Path_127" data-name="Path 127" d="M768.133,488.859a14.615,14.615,0,0,0,7.2-4.852c.28-.356.7-.772,1.111-.577a.662.662,0,0,1,.305.755,1.81,1.81,0,0,1-.449.738,20.157,20.157,0,0,1-7.159,4.674,1.939,1.939,0,0,1-.806.221.653.653,0,0,1-.628-.458c-.051-.28.255-.577.5-.458" transform="translate(-116.525 -73.368)" fill="#23607d"/>
          <path id="Path_128" data-name="Path 128" d="M776.433,484.283a1.179,1.179,0,0,1-1.7-.8,1.933,1.933,0,0,1,.848-1.875,5.689,5.689,0,0,1,1.993-.8l4.385-1.145c1.51-.39,3.266-.738,4.487.229a2.545,2.545,0,0,1,0,3.953,5.09,5.09,0,0,1-1.968.848l-3.588.891a10.825,10.825,0,0,1-2.6.45,3.036,3.036,0,0,1-2.264-.8,1.62,1.62,0,0,1-.06-2.214" transform="translate(-117.59 -72.745)" fill="#4abdd8"/>
          <path id="Path_129" data-name="Path 129" d="M154,555.644S427.974,366.678,477.17,337.228c50.52-30.23,65.525-38.823,109.878-36.923,61.971,2.646,192.214,124.688,198.567,119.675-40.265,31.384-81.751,51.368-124.569,58.934Z" transform="translate(-23.375 -45.543)" fill="#3c9cba"/>
          <path id="Path_130" data-name="Path 130" d="M139.71,560.86S425.8,366.678,475,337.228c50.52-30.23,65.525-38.823,109.878-36.923,61.971,2.646,192.214,124.688,198.567,119.675-40.265,31.384-81.751,51.368-124.569,58.934Z" transform="translate(-21.206 -45.543)" fill="url(#linear-gradient-2)"/>
          <path id="Path_131" data-name="Path 131" d="M126.751,593.846c-7.524-2.205-11.612-12.07-7.854-18.949s14.292-8.745,20.23-3.656a14.157,14.157,0,0,1,14.683-19.509,25.735,25.735,0,0,1,26.5-41.113,26.456,26.456,0,0,1,19.161,23.3A17.015,17.015,0,0,1,230,527.235c-.475-10.467,8.194-20.535,18.618-21.613s20.968,7,22.639,17.346a13.682,13.682,0,0,1,9.517,25.616c-.806,11.273-11.688,20.832-22.97,20.179-4.971-.288-10.179-2.239-14.75-.263s-6.786,7.193-10,11.027a22.1,22.1,0,0,1-20.408,7.422c-3.69-.653-7.634-2.24-11.027-.6-5.632,2.731-4.725,11.756-9.67,15.607-3.147,2.451-7.634,1.976-11.5.992s-7.9-2.384-11.756-1.374c-4.7,1.222-7.778,5.6-11.722,8.431a19.679,19.679,0,0,1-31.019-18.347" transform="translate(-17.831 -76.73)" fill="#06264c"/>
          <path id="Path_132" data-name="Path 132" d="M740.272,498.549c-1.7-.492,47.551-9.2,100.938-39.943,44.446-28.288,53.124-30.213,86.382-27.075,56.3,5.31,115.968,43.089,169.321,79.037L899.5,626.985Z" transform="translate(-112.355 -65.33)" fill="#2f7d9b"/>
          <path id="Path_133" data-name="Path 133" d="M740.272,498.549c-1.7-.492,47.551-9.2,100.938-39.943,44.446-28.288,53.124-30.213,86.382-27.075,56.3,5.31,115.968,43.089,169.321,79.037L899.5,626.985Z" transform="translate(-112.355 -65.33)" fill="url(#linear-gradient-3)"/>
          <path id="Path_134" data-name="Path 134" d="M219.837,367.42s-15.989,177.32-5.25,200.671l16.71,1.2s3.1-93.3,0-194.241Z" transform="translate(-32.008 -55.767)" fill="#06264c"/>
          <path id="Path_135" data-name="Path 135" d="M230.416,474.113s26.49,2.468,53.217-5.4v5.768s-44.625,16.769-54.413,5.191Z" transform="translate(-34.792 -71.141)" fill="#06264c"/>
          <path id="Path_136" data-name="Path 136" d="M282.565,455.21a3.953,3.953,0,0,1,.153,5.6,10.7,10.7,0,0,0-1.951,2.85,12.266,12.266,0,0,0-.2,10.128c2.545,5.522,8.737,8.711,14.8,8.906s11.943-2.172,17.142-5.3,9.89-7.032,14.971-10.34,10.73-6.082,16.778-6.548c9.822-.746,20.408,4.513,29.128-.093,4.19-2.205,7.049-6.362,11.078-8.855,4.92-3.045,11.069-3.325,16.37-5.666a22.23,22.23,0,1,0-18.084-40.613c-8.3,3.851-13.436,12.443-21.3,17.1-7.388,4.368-16.413,4.852-24.988,4.479s-17.253-1.459-25.676.2a40.9,40.9,0,0,0-29.162,23.75A3.935,3.935,0,0,0,282.565,455.21Z" transform="translate(-42.435 -61.212)" fill="#2f6c70"/>
          <path id="Path_137" data-name="Path 137" d="M260.158,369.86a17.013,17.013,0,0,1-2.333,1.154c-23.852,9.508-51.487,9.814-75.313.068-11.468-4.682-22.554-12.121-28.839-23.08-6.837-11.977-4.241-25.54.483-37.754,4.563-11.875,9.865-24,7.006-36.974-3.02-13.707-12.995-24.6-21.57-35.15-8.9-10.959-17.465-23.411-17.694-38.076-.2-12.723,5.81-24.878,14.2-34.115,17.813-19.577,45.922-28.458,71.708-29.688,23.063-1.077,47.627,7.871,59.926,28.4,6.565,10.951,9.873,24.5,21.587,31.384,10.009,5.878,21.994,5.632,33.08,7.507,22.512,3.8,41.961,21.112,43.844,44.6a49.324,49.324,0,0,1-11,34.87c-8.423,10.263-21,16.3-28.984,26.948-7.439,9.924-8.8,22.859-15.7,33.08s-19.78,12.1-30.807,16.964A140.892,140.892,0,0,0,260.158,369.86Z" transform="translate(-18.502 -20.666)" fill="#2f6c70"/>
          <path id="Path_138" data-name="Path 138" d="M890.391,541.466l2.205,43.14a8.043,8.043,0,0,0,1.256,4.733c1.043,1.34,3.342,1.7,4.241.28-.246-16.913-.518-34.03-4.759-50.409-1.79.611-1.2,1.646-2.994,2.256" transform="translate(-135.139 -81.842)" fill="#06264c"/>
          <path id="Path_139" data-name="Path 139" d="M871.234,475.165A40.537,40.537,0,0,0,837.509,512.6c-.416,6.591,1.2,13.928,6.531,17.813,2.672,1.951,5.938,2.808,9.161,3.63l20.722,5.3c4.241,1.086,8.872,2.154,12.9.416,4.631-1.993,7.04-7.032,10.713-10.475,5.989-5.607,15.539-7.142,19.882-14.106,3.393-5.4,2.375-12.723-.925-18.126s-8.482-9.415-13.792-13c-6.879-4.674-14.326-9.042-22.588-9.983s-17.524,2.358-21.324,9.754" transform="translate(-127.111 -71.93)" fill="#2a6f7a"/>
          <path id="Path_140" data-name="Path 140" d="M898.183,562.449a28.457,28.457,0,0,0,14.021-9.458c.551-.7,1.374-1.5,2.171-1.128a1.306,1.306,0,0,1,.594,1.468,3.459,3.459,0,0,1-.848,1.45c-3.707,4.19-8.838,6.786-13.953,9.1a3.554,3.554,0,0,1-1.561.424,1.264,1.264,0,0,1-1.23-.848c-.11-.534.484-1.12.976-.848" transform="translate(-136.206 -83.749)" fill="#06264c"/>
          <path id="Path_141" data-name="Path 141" d="M914.413,553.532c-1.171.771-2.926-.187-3.24-1.552a3.724,3.724,0,0,1,1.612-3.647,11.027,11.027,0,0,1,3.885-1.569l8.55-2.231c2.935-.763,6.362-1.434,8.745.45a4.928,4.928,0,0,1,0,7.71,9.988,9.988,0,0,1-3.817,1.578l-7.057,1.807a21.483,21.483,0,0,1-5.089.848,5.936,5.936,0,0,1-4.411-1.552,3.157,3.157,0,0,1-.119-4.326" transform="translate(-138.295 -82.533)" fill="#3c9cba"/>
          <path id="Path_142" data-name="Path 142" d="M979.81,465.08l7.422,62.242,8.8-1.764-6.141-55.889a6.787,6.787,0,0,0-1.179-3.741,4.572,4.572,0,0,0-4.08-1.34,13.43,13.43,0,0,0-4.19,1.51" transform="translate(-148.719 -70.506)" fill="#06264c"/>
          <path id="Path_143" data-name="Path 143" d="M947.077,525l2,38.17c2.646.848,5.5-1.145,6.65-3.664s1.018-5.4.848-8.168q-.721-13.148-1.459-26.295L945.61,526.4" transform="translate(-143.528 -79.685)" fill="#06264c"/>
          <path id="Path_144" data-name="Path 144" d="M947.063,520.626a23.831,23.831,0,0,1-27.516-6.871c-5.174-6.591-6.4-15.768-4.3-23.886a33.471,33.471,0,0,1,44.6-22.792,21.357,21.357,0,0,1,9.415,6.65,12.468,12.468,0,0,1,2.256,11.027c-1.349,4.241-5.42,7.456-5.692,11.875-.3,4.954,4.351,9.144,4.2,14.106-.11,3.495-2.689,6.54-5.768,8.2s-6.625,2.2-10.094,2.706a27.283,27.283,0,0,1-7.829.39,9.238,9.238,0,0,1-6.591-3.826" transform="translate(-138.772 -70.545)" fill="#3c9cba"/>
          <path id="Path_145" data-name="Path 145" d="M980.735,487.574c-5.9.382-12.274.653-17.176-2.655a13.63,13.63,0,0,1-5.937-10.509,2.545,2.545,0,0,0-2.222,2.333,5.937,5.937,0,0,0,.848,3.351,20.9,20.9,0,0,0,21.714,10.577,4.453,4.453,0,0,0,2.773-1.315,1.78,1.78,0,0,0-.424-2.68" transform="translate(-145.013 -72.007)" fill="#23607d"/>
          <path id="Path_146" data-name="Path 146" d="M961,473.863c-1.849-2.333-3.817-4.75-6.574-5.861s-6.506-.339-7.634,2.392c-.458,1.077-.484,2.341-1.128,3.317-1.433,2.155-5.174,1.917-6.285,4.241-.772,1.62.331,3.647,1.925,4.5a9.725,9.725,0,0,0,5.285.721c1.968-.1,3.936-.246,5.938-.4,2.544-.2,5.2-.416,7.447-1.637a5.158,5.158,0,0,0,2.808-3.393,2.8,2.8,0,0,0-2.333-3.291" transform="translate(-142.544 -70.96)" fill="#2a6f7a"/>
          <path id="Path_147" data-name="Path 147" d="M975.116,457.937,953.911,451c-3.885-1.272-7.88-2.6-10.95-5.293s-4.979-7.142-3.52-10.951c1.179-3.07,4.241-5.089,5.539-8.117,1.188-2.74.781-5.861.967-8.839a21.646,21.646,0,0,1,32.894-17.108c3.257,1.985,6.048,4.869,9.7,5.937,5.675,1.7,11.6-1.323,17.482-1.985A21.952,21.952,0,0,1,1016.2,447c-3.6,1.349-7.888,1.993-10.076,5.157-1.434,2.078-1.569,4.776-2.638,7.066-1.756,3.749-5.861,5.938-9.949,6.523s-8.253-.22-12.308-1.009c-3.054-.594-6.218-1.238-8.728-3.071s-4.182-5.216-3.053-8.109" transform="translate(-142.516 -60.335)" fill="#2a6f7a"/>
          <path id="Path_148" data-name="Path 148" d="M576.422,487.336c-22.054-5.089-57.772-4.784-83.71-4.139-34.616.848-73.566,13.232-108.181,14.242C229.536,501.968,2.689,658.413,0,659.643H815.178a27.336,27.336,0,0,1,4.317-.153C746.9,588.07,690.846,513.733,576.422,487.336Z" transform="translate(0 -73.287)" fill="#23607d"/>
          <path id="Path_149" data-name="Path 149" d="M576.422,487.336c-22.054-5.089-57.772-4.784-83.71-4.139-34.616.848-73.566,13.232-108.181,14.242C229.536,501.968,2.689,658.413,0,659.643H815.178a27.336,27.336,0,0,1,4.317-.153C746.9,588.07,690.846,513.733,576.422,487.336Z" transform="translate(0 -73.287)" fill="url(#linear-gradient-4)"/>
          <path id="Path_150" data-name="Path 150" d="M1335.862,318.316l2.545,41.953c.2,3.393,1.043,7.558,4.317,8.389,2.469.628,5.013-1.3,5.989-3.656s.764-5,.551-7.549l-3.6-42.233-11.739,3.944" transform="translate(-202.468 -47.844)" fill="#06264c"/>
          <path id="Path_151" data-name="Path 151" d="M1329.329,303.244c-6.786.39-14.539.365-18.958-4.75-2.917-3.393-3.528-8.134-5.589-12.087-4.292-8.211-14.055-11.782-23.131-13.639s-18.8-2.909-26.167-8.482c-8.066-6.133-11.714-17.015-10.476-27.067s6.845-19.221,14.2-26.184,16.371-11.943,25.607-16.116c8.482-3.809,17.507-7.04,26.812-6.938s19.009,4.105,23.9,12.019c3.181,5.149,4.055,11.332,5.479,17.219s3.75,12.011,8.745,15.429c4.4,3.011,10.67,3.817,13.283,8.482,2.366,4.241.5,9.4-.076,14.2-.678,5.641.535,11.324.593,16.964.1,9.992-3.707,20.213-11.222,26.8S1338.413,307.391,1329.329,303.244Z" transform="translate(-188.936 -28.531)" fill="#2f6c70"/>
          <path id="Path_152" data-name="Path 152" d="M664.783,486.3l-149.6,29.857L318.83,505.3,364.3,395.791s111.642-2.053,245.872-46.711C610.175,349.08,626.486,430.008,664.783,486.3Z" transform="translate(-48.393 -52.984)" fill="#f07c41"/>
          <path id="Path_153" data-name="Path 153" d="M618.94,505.494l63.141-12.621L653.971,355.25Z" transform="translate(-93.945 -53.92)" fill="#06264c"/>
          <path id="Path_154" data-name="Path 154" d="M716.895,486.3c.187-.042-42.411-74.032-54.6-137.216-1.06,20.985,8.279,87.858,15.421,145.045Z" transform="translate(-100.513 -52.984)" fill="#d8571e"/>
          <path id="Path_155" data-name="Path 155" d="M643.634,352.34s-18.109,56.152-93.3,164.308l74.761-14.92Z" transform="translate(-83.531 -53.478)" fill="#d8571e"/>
          <path id="Path_156" data-name="Path 156" d="M661.434,350.51s-1.552,121.168,16.116,143.824c0,0,12.723-19.289,21.629-20.4C699.23,473.917,664.038,403.829,661.434,350.51Z" transform="translate(-100.39 -53.201)" fill="#ad4218"/>
          <path id="Path_157" data-name="Path 157" d="M307.4,502.64l10.56.356,2.553,34.192-3.7-.127Z" transform="translate(-46.658 -76.291)" fill="#06264c"/>
          <path id="Path_158" data-name="Path 158" d="M537.19,510.38l10.56.356,2.553,34.2-3.7-.127Z" transform="translate(-81.537 -77.467)" fill="#06264c"/>
          <path id="Path_159" data-name="Path 159" d="M736.544,476.926l-10.561-.356-4.843,33.946,3.7.119Z" transform="translate(-109.457 -72.335)" fill="#06264c"/>
          <path id="Path_160" data-name="Path 160" d="M661.213,349.17l-4.733,11.358,9.848,8.847Z" transform="translate(-99.643 -52.997)" fill="#d8571e"/>
          <path id="Path_161" data-name="Path 161" d="M1603.1,208.58s14.419,159.957,4.742,181.052l-15.064,1.077s-2.8-84.177,0-175.233Z" transform="translate(-241.569 -31.658)" fill="#06264c"/>
          <path id="Path_162" data-name="Path 162" d="M1588.29,304.827s-23.894,2.231-48-4.877v5.208s40.256,15.124,49.078,4.682Z" transform="translate(-233.791 -45.527)" fill="#06264c"/>
          <path id="Path_163" data-name="Path 163" d="M1528.3,287.771a3.563,3.563,0,0,0-.136,5.047,9.823,9.823,0,0,1,1.765,2.545,11.078,11.078,0,0,1,.178,9.135c-2.273,4.979-7.888,7.863-13.359,8.033s-10.772-1.959-15.463-4.784-8.923-6.336-13.5-9.33-9.678-5.488-15.132-5.937c-8.864-.679-18.415,4.063-26.294-.085-3.775-1.993-6.354-5.742-9.992-7.99-4.436-2.748-9.983-3-14.768-5.089a20.128,20.128,0,0,1-3.741-34.709,20.357,20.357,0,0,1,20.061-1.925c7.473,3.478,12.112,11.222,19.212,15.429,6.659,3.944,14.8,4.377,22.537,4.038s15.565-1.315,23.157.178a36.9,36.9,0,0,1,26.294,21.417,3.562,3.562,0,0,1-.848,3.987Z" transform="translate(-213.949 -36.563)" fill="#2f6c70"/>
          <path id="Path_164" data-name="Path 164" d="M1530.771,210.79a15.576,15.576,0,0,0,2.1,1.035c21.519,8.584,46.439,8.855,67.942.068,10.34-4.241,20.357-10.934,25.981-20.824,6.174-10.8,3.817-23.038-.433-34.056-4.114-10.7-8.9-21.655-6.319-33.352,2.723-12.359,11.722-22.172,19.458-31.706,8.024-9.89,15.76-21.121,15.963-34.353.178-11.442-5.242-22.435-12.808-30.765C1626.61,9.169,1601.232,1.162,1577.974.076c-20.807-.967-42.962,7.1-54.057,25.616-5.937,9.882-8.906,22.1-19.509,28.313-9.024,5.31-19.839,5.089-29.865,6.786-20.307,3.393-37.848,19.042-39.552,40.231A44.464,44.464,0,0,0,1445,132.406c7.634,9.271,18.941,14.708,26.142,24.318,6.71,8.949,7.948,20.62,14.165,29.815s17.813,10.933,27.779,15.327a127.1,127.1,0,0,1,17.686,8.923Z" transform="translate(-217.792 0.001)" fill="#2f6c70"/>
          <path id="Path_165" data-name="Path 165" d="M1180.7,430.542a4.969,4.969,0,0,1,.7-5.174,4.393,4.393,0,0,1,4.852-1.145,2.849,2.849,0,0,1,.2-3.189,2.544,2.544,0,0,1,2.985-.568,20.581,20.581,0,0,1-5.165-8.245c-.9-3.155-.476-6.786,1.7-9.033a5.817,5.817,0,0,1,8.33,0,3.5,3.5,0,0,1,1.62-3.825,3.392,3.392,0,0,1,4.037.848,3.542,3.542,0,0,1,5.013-3.266,20.54,20.54,0,0,1-.187-12.859c1.425-4.038,4.691-7.354,8.746-8.168a10.239,10.239,0,0,1,10.807,5.14,6.267,6.267,0,0,1,5.089-5.624,6.786,6.786,0,0,1,6.836,3.859,3.393,3.393,0,0,1,2.468-3.02,3.579,3.579,0,0,1,3.689,1.5c-1.7-5.089-1.56-10.866,1.027-15.268s7.744-7.15,12.723-6.158,9.331,6.022,9.237,11.315a4.605,4.605,0,0,1,2.969-4.538,4.682,4.682,0,0,1,5.216,1.552,6.319,6.319,0,0,1,11.069-4.657,13.174,13.174,0,0,1,5.768-13.631,12.611,12.611,0,0,1,14.487,1.7,14.419,14.419,0,0,1,4.088,14.776,8.229,8.229,0,0,1,3.859-4.555,5.624,5.624,0,0,1,5.8.484,4.929,4.929,0,0,1,1.629,5.683,15.493,15.493,0,0,1,8.372-9.11,11.875,11.875,0,0,1,12.053,1.968c3.333,2.909,4.784,8.151,2.969,12.07Z" transform="translate(-179.147 -52.338)" fill="#06264c"/>
          <path id="Path_166" data-name="Path 166" d="M1616.05,398.1a3.766,3.766,0,0,1,3.52-1.7,3.309,3.309,0,0,1,2.749,2.545,2.137,2.137,0,0,1,2.069-1.2,1.874,1.874,0,0,1,1.612,1.62,15.348,15.348,0,0,1,2.969-6.676c1.586-1.883,4.037-3.155,6.328-2.74a4.351,4.351,0,0,1,3.469,5.191,2.656,2.656,0,0,1,3.071-.594,2.544,2.544,0,0,1,1.179,2.859,2.663,2.663,0,0,1,4.13,1.756,15.43,15.43,0,0,1,7.931-5.5,9.221,9.221,0,0,1,8.762,2.019,7.694,7.694,0,0,1,1.323,8.881,4.716,4.716,0,0,1,5.649.848,5.088,5.088,0,0,1,.458,5.87,2.545,2.545,0,0,1,2.926.28,2.7,2.7,0,0,1,.6,2.926,14.09,14.09,0,0,1,9.949-5.768,9.331,9.331,0,0,1,9.178,5.369,8.9,8.9,0,0,1-3.172,10.493,3.437,3.437,0,0,1,4.063-.051,3.487,3.487,0,0,1,1.221,3.9,4.742,4.742,0,0,1,7.541,4.937,9.873,9.873,0,0,1,10.908-2.12,9.493,9.493,0,0,1,5.03,9.729,10.867,10.867,0,0,1-7.49,8.737,6.139,6.139,0,0,1,4.453.492,4.241,4.241,0,0,1,2.138,3.817,3.7,3.7,0,0,1-2.859,3.393,11.628,11.628,0,0,1,9.178,1.4,8.94,8.94,0,0,1,3.826,8.329c-.416,3.291-3.071,6.4-6.269,6.913Z" transform="translate(-245.29 -59.174)" fill="#06264c"/>
          <path id="Path_167" data-name="Path 167" d="M744.29,638.4s416.152-285.111,607.425-289.471c182.6-4.165,401.257,291.735,401.257,291.735Z" transform="translate(-112.971 -52.955)" fill="#184759"/>
          <path id="Path_168" data-name="Path 168" d="M744.29,638.4s416.152-285.111,607.425-289.471c182.6-4.165,401.257,291.735,401.257,291.735Z" transform="translate(-112.971 -52.955)" fill="url(#linear-gradient-5)"/>
        </g>
      </g>
      <path id="Path_338" data-name="Path 338" d="M140,3240s633.336.336,745.206-71.643S872.2,3371.285,872.2,3371.285Z" fill="#19485a"/>
      <g id="Layer_2-2" data-name="Layer 2" transform="translate(988.971 3179.563)">
        <g id="Layer_1" data-name="Layer 1" transform="translate(0)">
          <path id="Path_275" data-name="Path 275" d="M31.175,26.647l-1.819,1.029-1.843-1.029S.327,20.544,6.884,52.086,10.4,93.32,10.4,93.32s-7.945,8.687,2.968,8.568,9.166-33.5,9.166-33.5S20.142,55.508,29.26,56.035c9-.527,6.7,12.349,6.7,12.349s-1.819,33.5,9.166,33.5S48.19,93.32,48.19,93.32,45.223,83.436,51.8,52.086,31.175,26.647,31.175,26.647Z" transform="translate(8.194 36.461)" fill="#b78b5c"/>
          <path id="Path_276" data-name="Path 276" d="M11.12,85.545a21.084,21.084,0,0,1,11.535-7.538c.191-5.5,0-9.788,0-9.788S20.262,55.343,29.38,55.87c9-.527,6.7,12.349,6.7,12.349s-.239,4.523,0,10.243a26.061,26.061,0,0,1,11.535,5.7A171.541,171.541,0,0,1,51.8,52.041C58.361,20.595,31.175,26.7,31.175,26.7l-1.819,1.029L27.513,26.7S.327,20.5,6.884,52.041a162.926,162.926,0,0,1,4.236,33.5Z" transform="translate(8.194 36.506)" fill="#b78b5c"/>
          <path id="Path_277" data-name="Path 277" d="M15.186,51.529s24.386,8.232,38.53-.862S65.3,16.828,59.579,13.861c-15.1-7.8-40.205-9.884-53.056,3.662S15.186,51.529,15.186,51.529Z" transform="translate(3.41 10.693)" fill="#d0a267"/>
          <path id="Path_278" data-name="Path 278" d="M7.931,25.879,7.5,25.64l.622.862Z" transform="translate(10.474 35.721)" fill="#d0a267"/>
          <path id="Path_279" data-name="Path 279" d="M23.59,26.5l.646-.862-.431.239Z" transform="translate(32.89 35.721)" fill="#d0a267"/>
          <path id="Path_280" data-name="Path 280" d="M62.205,18.021S61.8,5,55.5,0c0,0-6.438,2.537-7.658,13.952a14.742,14.742,0,0,0-11.487-1.125,14.766,14.766,0,0,0-11.511,1.125C23.627,2.537,17.214,0,17.214,0,10.8,5,10.489,18.021,10.489,18.021c-23.429,23.62,2.7,41.043,6.294,43.34-17.949-24.506-3.207-33.887,2.25-27.45,6.1,7.179,17.326,5.6,17.326,5.6s11.2,1.579,17.3-5.6c5.48-6.438,20.294,2.944,2.274,27.45C59.62,59.063,85.634,41.641,62.205,18.021Z" transform="translate(1.191 0)" fill="#d0a267"/>
          <path id="Path_281" data-name="Path 281" d="M14.695,14.59h9.573c1.34,0,2.178,1.173,1.508,2.13l-4.786,6.7a1.962,1.962,0,0,1-3.015,0l-4.786-6.7C12.517,15.763,13.355,14.59,14.695,14.59Z" transform="translate(18.068 20.326)" fill="#d0a267"/>
          <path id="Path_282" data-name="Path 282" d="M68.555,83.146c8.759-4.188,13.521-11.056,6.366-21.778C60.561,39.83,49.72,65.8,49.72,65.8l1.221-19.863L40.315,38.466V36.91l-1.125.79-1.1-.79v1.556L27.464,45.932l1.268,19.911S17.844,39.83,3.485,61.368C-3.695,72.018,1.091,78.862,9.659,83.05c-3.685,1.532-7.467,4.116-6.39,8.089H25.885L21.553,86.9A91.442,91.442,0,0,0,38.09,88.818h2.226a94.457,94.457,0,0,0,16.034-1.795l-4.236,4.116H74.729C75.782,87.238,72.168,84.677,68.555,83.146Z" transform="translate(0.01 51.422)" fill="#d0a267"/>
          <path id="Path_283" data-name="Path 283" d="M59.652,91.139q5.624-3.374,11.2-6.844a20.558,20.558,0,0,0-2.393-1.149c8.759-4.188,13.521-11.056,6.366-21.778C60.466,39.83,49.625,65.8,49.625,65.8l1.221-19.863L40.22,38.466V36.91l-1.125.79-1.1-.79v1.556L27.368,45.932l1.364,19.911S17.844,39.83,3.485,61.368C-3.695,72.018,1.091,78.862,9.659,83.05a17.59,17.59,0,0,0-3.733,1.938A8.307,8.307,0,0,1,7,85.611a50.665,50.665,0,0,0,9.214,5.432h9.573L21.553,86.9c2.154.479,4.356.814,6.533,1.1a20.677,20.677,0,0,1-.144-9.214,8.041,8.041,0,0,1-6.557,2.082A25.8,25.8,0,0,1,10.544,76.23a8.209,8.209,0,0,1,10.1-12.923l.263.168a19.388,19.388,0,0,0,2.2.909h.5a8.4,8.4,0,0,1,6.725,5.935,21.538,21.538,0,0,0,.79-5.576c0-5.073-1.962-9.573-.933-14.622,2.058-10.315,18.332-8.137,16.25,2.2-.933,4.643,1.388,9.956,1.005,14.838a2.036,2.036,0,0,1-.12.838l.311.55.168-.12,1.173-.814c.862-.622,1.7-1.268,2.585-1.867a25.368,25.368,0,0,1,7.179-3.614,8.472,8.472,0,0,1,10.673,4.595c1.675,3.733-.431,9.573-4.571,10.65-.694.191-1.316.431-1.962.67h-.239c-.814.5-1.6,1.029-2.393,1.6a67.25,67.25,0,0,1-6.82,4.356,5.887,5.887,0,0,1-3.518.67,25.1,25.1,0,0,1-.479,3.35c2.274-.287,4.595-.646,6.892-1.1L52.09,91.043Z" transform="translate(0.01 51.422)" fill="#d0a267"/>
          <path id="Path_284" data-name="Path 284" d="M8.74,61.7s.191-26.564,17.087-28S43.56,69.147,43.56,69.147l-27.4,7.036Z" transform="translate(12.201 46.898)" fill="#d0a267"/>
          <path id="Path_285" data-name="Path 285" d="M15.74,79.185S66.619,72.843,46.061,28.45C46.061,28.45,98.328,72.293,15.74,79.185Z" transform="translate(21.953 39.635)" fill="#b78b5c"/>
        </g>
      </g>
      <g id="Layer_2-3" data-name="Layer 2" transform="translate(846.404 2990.258)">
        <g id="CampDrawing-2" data-name="CampDrawing" transform="translate(0 0)">
          <path id="Path_286" data-name="Path 286" d="M34.716,102.45c-.591,1.314,1.139,95.832,11.412,106.631s4.381-102.776,2.826-104.353S34.716,102.45,34.716,102.45Z" transform="translate(41.209 121.921)" fill="#f46476"/>
          <path id="Path_287" data-name="Path 287" d="M45.782,103.333c-.329,1.4,19.867,93.751,32.046,102.316S62.057,104.012,60.173,102.7,45.782,103.333,45.782,103.333Z" transform="translate(54.501 121.673)" fill="#f46476"/>
          <path id="Path_288" data-name="Path 288" d="M39.712,82.085c-8.871,15.749-20.108,57.083-12.7,69.788S52.9,86.466,52.9,86.466,48.189,67.124,39.712,82.085Z" transform="translate(29.291 90.92)" fill="#f46476"/>
          <path id="Path_289" data-name="Path 289" d="M55.912,81.645c15.333,9.616,44.948,40.567,44.51,55.243S46.34,91.678,46.34,91.678,41.28,72.489,55.912,81.645Z" transform="translate(54.162 94.207)" fill="#f46476"/>
          <path id="Path_290" data-name="Path 290" d="M57.895,63.32c-1.555.394-36.887,59.821-23.284,90.115S83.9,178.34,87.027,154.6C89.744,134.006,57.895,63.32,57.895,63.32Z" transform="translate(37.503 75.339)" fill="#401b7a"/>
          <path id="Path_291" data-name="Path 291" d="M127.048,39.91C125.515,38.9,100.587-19.823,56.319,7.053S36.5,97.1,20.724,109.5.659,114.21,0,114.714,73.645,187.5,164.745,155.938c0,0-16.275-8.127-13.734-22.386s38.157-47.335,28.607-72.767C166.016,25.278,127.048,39.91,127.048,39.91Z" transform="translate(0.002 -0.018)" fill="#9b2d81"/>
        </g>
      </g>
    </g>
  </g>
</svg>
