<svg xmlns="http://www.w3.org/2000/svg" xmlns:xlink="http://www.w3.org/1999/xlink" viewBox="0 0 284.6 457.77"><defs><style>.cls-1{fill:#1b063d;}.cls-11,.cls-15,.cls-16,.cls-2{fill:#ff8b78;}.cls-14,.cls-3,.cls-6{fill:#591b7a;}.cls-10,.cls-12,.cls-16,.cls-3,.cls-9{opacity:0.67;}.cls-12,.cls-13,.cls-4{fill:#d34a75;}.cls-10,.cls-5{fill:#51239b;}.cls-7,.cls-8,.cls-9{fill:#2e1059;}.cls-11,.cls-13,.cls-14,.cls-7{opacity:0.4;}.cls-15{opacity:0.76;}.cls-17{fill:#f24e41;}.cls-18{fill:#f46353;}.cls-19{opacity:0.29;fill:url(#linear-gradient);}.cls-20{fill:#f46476;}.cls-21{fill:#9b2d81;}.cls-22{fill:#2b0f60;}.cls-23{fill:#401b7a;}</style><linearGradient id="linear-gradient" x1="126.29" y1="265.83" x2="27.68" y2="367.12" gradientUnits="userSpaceOnUse"><stop offset="0.17" stop-color="#fcee71"/><stop offset="0.7" stop-color="#2e1059" stop-opacity="0"/></linearGradient></defs><title>nehaWorking</title><g id="Layer_2" data-name="Layer 2"><g id="roomDrawing"><path class="cls-1" d="M60.16,313.16s7.62,1.79,12.29,0c0,0,3.16,10.41-5.41,11.88-7.22,1.24-9.21-5.44-7.93-9.77A6.42,6.42,0,0,1,60.16,313.16Z"/><path class="cls-1" d="M60.73,320.39s-3.11,3.87-6,.45,2-8,5.44-5.21-4.75-1.85-4.46,2.68c.26,4.14,5.37.77,5.37.77Z"/><rect class="cls-2" x="82.65" y="299.43" width="19.86" height="7.74"/><rect class="cls-1" x="79.87" y="303.31" width="15.92" height="19.71"/><rect class="cls-1" x="80.81" y="297.32" width="1.89" height="9.62" transform="translate(-140.11 81.36) rotate(-30)"/><rect class="cls-1" x="83.49" y="293.22" width="0.95" height="16.41" transform="translate(-116.51 61.18) rotate(-24.28)"/><rect class="cls-1" x="85.38" y="294.22" width="1" height="12.72" transform="translate(-115.99 61.89) rotate(-24.28)"/><rect class="cls-1" x="87.17" y="291.7" width="1.37" height="16.66" transform="translate(88.55 -12.6) rotate(16.45)"/><rect class="cls-1" x="89.64" y="287.86" width="1.94" height="24.44" transform="translate(64.26 -12.27) rotate(11.98)"/><rect class="cls-1" x="92.32" y="292.59" width="2.26" height="25.43" transform="translate(45.36 -10.34) rotate(8.36)"/><rect class="cls-2" x="126.95" y="238.42" width="28.85" height="27.43"/><rect class="cls-2" x="169.42" y="259.39" width="33.36" height="38.78"/><rect class="cls-3" x="56.34" y="83.6" width="33.36" height="38.78"/><rect class="cls-4" x="59.95" y="233.85" width="40.04" height="60.22"/><rect class="cls-5" x="164.29" y="197.75" width="41.48" height="48.82"/><rect class="cls-6" x="38.66" y="235.11" width="16.71" height="27.12"/><rect class="cls-7" x="175.82" width="38.06" height="61.75"/><rect class="cls-2" x="43.71" y="266.64" width="11.67" height="9.77"/><rect class="cls-6" x="37.4" y="281.94" width="17.97" height="8.83"/><rect class="cls-8" x="30.15" y="242.21" width="5.36" height="8.51"/><rect class="cls-6" x="104.09" y="223.76" width="15.29" height="31.53"/><rect class="cls-6" x="209.87" y="291.08" width="50.76" height="25.07"/><rect class="cls-9" y="75.08" width="50.76" height="25.07"/><rect class="cls-6" x="207.67" y="273.58" width="21.76" height="14.35"/><rect class="cls-10" x="29.01" y="108.03" width="21.76" height="14.35"/><rect class="cls-2" x="219.65" y="199.8" width="44.46" height="69.68"/><rect class="cls-8" x="253.16" y="122.23" width="24.73" height="64.48"/><rect class="cls-11" x="220.59" y="10.86" width="44.46" height="69.68"/><rect class="cls-8" x="112.45" y="193.65" width="46.65" height="23.02"/><rect class="cls-4" x="131.84" y="223.13" width="19.86" height="8.51"/><rect class="cls-4" x="83.59" y="201.69" width="24.12" height="18.45"/><rect class="cls-4" x="177.71" y="170.32" width="67.87" height="22.39"/><rect class="cls-12" x="210.74" y="91.79" width="64.16" height="22.39"/><rect class="cls-4" x="269.47" y="202.16" width="15.13" height="9.46"/><rect class="cls-4" x="101.54" y="82.66" width="67.87" height="104.05"/><rect class="cls-13" x="58.75" y="21.31" width="35.07" height="53.77"/><rect class="cls-6" x="177.71" y="119.66" width="67.87" height="43.91"/><rect class="cls-14" x="101.83" y="28.77" width="67.87" height="43.91"/><rect class="cls-15" x="19.59" y="131.69" width="59.91" height="91.44"/><rect class="cls-16" x="177.71" y="69.6" width="29.09" height="44.39"/><rect class="cls-1" x="64.57" y="329.13" width="119.61" height="116.24"/><rect class="cls-17" x="47.55" y="324.56" width="217.98" height="4.56"/><rect class="cls-17" x="59.11" y="329.13" width="5.47" height="116.24"/><rect class="cls-17" x="184.18" y="329.13" width="71.89" height="116.24"/><rect class="cls-18" x="184.18" y="329.13" width="71.89" height="35.42"/><rect class="cls-1" x="185.61" y="304.86" width="11.66" height="19.71"/><polygon class="cls-1" points="189.35 307.43 188.16 308.31 185.62 301.74 186.82 300.85 189.35 307.43"/><polygon class="cls-1" points="187.94 309.69 188.68 309.72 192.97 294.56 192.23 294.53 187.94 309.69"/><polygon class="cls-1" points="192.27 307.71 191.6 308.13 187.77 296.53 188.44 296.12 192.27 307.71"/><polygon class="cls-1" points="196.21 313.11 194.49 313.38 189.12 295.22 190.84 294.95 196.21 313.11"/><polygon class="cls-1" points="195.03 319.6 192.67 319.15 195.72 288.71 198.08 289.17 195.03 319.6"/><rect class="cls-1" x="209.87" y="345" width="21.91" height="1.84"/><rect class="cls-1" x="193.58" y="384.25" width="2.58" height="35.79"/><path class="cls-19" d="M80.22,372.57c5.52-2.87,10.44-6.48,16.17-9.06s12.28-3.9,17.17-7.68c2-1.59,3.71-3.6,6.41-4.43,2.09-.64,4.77.08,6.9.24,6.53.5,13.09.45,19.64.43l71-105-8.75-11.91L16.55,271.53,73.19,376.34Q76.67,374.42,80.22,372.57Z"/><polygon class="cls-1" points="194.69 234.57 207.67 260.9 237.78 231.05 194.69 234.57"/><polygon class="cls-1" points="237.15 231.47 242.82 271.35 223.06 299.26 223.06 319.91 238.62 319.91 238.62 324.38 206.8 324.38 206.8 319.7 220.75 319.7 220.75 299.26 240.51 271.35 235.25 232.03 237.15 231.47"/><path class="cls-20" d="M166.17,313a5.77,5.77,0,0,0-3.81-1.21s-3.74,1.69-1.22-.89c2.16-2.21,4.28-.11,4.85.54Z"/><polygon class="cls-6" points="173.36 297.47 158.07 317.65 159.25 324.84 173.36 297.47"/><path class="cls-20" d="M158.8,379s16.76-10.14,22.16-1.52-3.88,14-3.88,14-11.26,8-23.37,9.32S158.8,379,158.8,379Z"/><path class="cls-20" d="M81,315.5a182.26,182.26,0,0,0,26.45,2.43c16.27.48,0,11.2,0,11.2Z"/><path class="cls-4" d="M105.1,324.84s-24.88-11-31.71-11c-3.48,0-4.43.42-8.46,3.11-3.47,2.31,4.62,9.61,4.62,9.61s8.62,6.83,42.41,12.3S105.1,324.84,105.1,324.84Z"/><path class="cls-20" d="M165.32,312.89c.07.05,0,.09.1.15l-3.51-.51s-1.62.16-1.28,1.08,3.85,1.51,3.85,1.51,0,1.82,3.08,1.8l4.24,1,17.47-1.3s3.6-6.17-6.77-4.4-16.79.18-16.79.18,0,.36-.12.25Z"/><path class="cls-20" d="M104.86,379S88.1,368.9,82.69,377.52s3.89,14,3.89,14,11.25,8,23.37,9.32S104.86,379,104.86,379Z"/><path class="cls-4" d="M158.8,322.53s24.88-11,31.71-11c3.48,0,4.43.42,8.46,3.1,3.47,2.32-4.62,9.62-4.62,9.62s-8.62,6.83-42.41,12.3S158.8,322.53,158.8,322.53Z"/><path class="cls-21" d="M139.47,263c-.67-.24-15.7-19.93-29.77-5.58s1.2,35.81-3.54,42-7.09,3.71-7.29,4,34.7,20.29,65.93-.34c0,0-6.91-1.5-7.32-7.1s9.8-21.47,3.72-30.11C152.71,253.7,139.47,263,139.47,263Z"/><path class="cls-22" d="M106.15,395.33s-7.39,10.35,5.95,13,39.45-.23,43.8-1c1.94-.35,9.39-2.22,2.9-12"/><path class="cls-23" d="M102,315.31s27.46-14,56.8-.15V395.6s-23.3,10.18-52.64-.27Z"/><polygon class="cls-22" points="107.45 405.16 111.98 454.13 117.93 454.13 120.08 405.16 107.45 405.16"/><polygon class="cls-22" points="111.98 454.88 118 454.88 117.41 457.77 112.65 457.77 111.98 454.88"/><polygon class="cls-22" points="146.17 405.16 150.7 454.13 156.64 454.13 158.8 405.16 146.17 405.16"/><polygon class="cls-22" points="150.7 454.88 156.72 454.88 156.12 457.77 151.37 457.77 150.7 454.88"/><polygon class="cls-22" points="117.84 408.99 120.55 438.23 124.1 438.23 125.39 408.99 117.84 408.99"/><polygon class="cls-22" points="120.55 438.67 124.14 438.67 123.79 440.4 120.95 440.4 120.55 438.67"/><polygon class="cls-22" points="140.06 408.37 142.77 437.61 146.32 437.61 147.61 408.37 140.06 408.37"/><polygon class="cls-22" points="142.77 438.06 146.37 438.06 146.01 439.79 143.17 439.79 142.77 438.06"/><rect class="cls-23" x="102" y="304.81" width="5.04" height="14.6" rx="2.47"/><rect class="cls-23" x="153.75" y="304.81" width="5.04" height="14.6" rx="2.47"/></g></g></svg>