<svg xmlns="http://www.w3.org/2000/svg" viewBox="0 0 81.94 178.46"><defs><style>.cls-1{fill:#f46476;}.cls-2{fill:#401b7a;}.cls-3{fill:#9b2d81;}</style></defs><title>nehaSideRight</title><g id="Layer_2" data-name="Layer 2"><g id="Layer_1-2" data-name="Layer 1"><path class="cls-1" d="M25.82,166.4a49.27,49.27,0,0,0,15.27-32.13c.17-2.58.16-5.22,1.1-7.63a9,9,0,0,1,.56-1.12c3.35-.48,7.52,3.41,8.15,6.47h0a43.43,43.43,0,0,1-19.25,42.26,10.82,10.82,0,0,1-4.93,2,4.47,4.47,0,0,1-4.46-2.34C21.08,171.16,23.66,168.42,25.82,166.4Z"/><path class="cls-1" d="M56.85,86.58A113.19,113.19,0,0,1,79,113.82a5.39,5.39,0,0,1,.89,2.28,1.89,1.89,0,0,1-1.16,2c-.93.28-1.83-.43-2.53-1.08l-16-14.89a46,46,0,0,1-3.75-3.77A10.17,10.17,0,0,1,53.9,93.5a4.84,4.84,0,0,1,2-4.84c1.57-1,4-.33,4.59,1.42"/><path class="cls-2" d="M46.08,55.81,62.69,95.68c2.49,5.95,5,12.1,5.07,18.55s-2.93,13.37-8.81,16c-8,3.6-17.61-2.28-21.26-10.21S34.74,103,35.52,94.27L39,55l8-.27"/><path class="cls-1" d="M48.77,127.71c-.94-2.44-1.86-5,.63-6.89,2.68-2,5.6-.59,8.13.81,16.4,11,26.12,31.34,24.17,51-.21,2.07-.73,4.43-2.56,5.41-2.1,1.14-4.84-.3-6-2.39s-1.24-4.59-1.44-7a55.44,55.44,0,0,0-18.62-36.81A29.19,29.19,0,0,1,48.77,127.71Z"/><path class="cls-1" d="M31.48,121.81Q34.2,110,36.89,98.26a50.67,50.67,0,0,1,1.54-5.68,11.14,11.14,0,0,1,3.23-5.1,5.34,5.34,0,0,1,5.71-.81A3.65,3.65,0,0,1,49,88.55,4.79,4.79,0,0,0,49.24,90a2.92,2.92,0,0,1-.54,1.64,125.56,125.56,0,0,1-12.63,31.1,5.94,5.94,0,0,1-1.69,2.11,2.11,2.11,0,0,1-2.54,0C31.07,124.1,31.24,122.85,31.48,121.81Z"/><path class="cls-1" d="M41.38,11c14.28-1,27.88,11.17,29.38,25.41s-8.48,28.55-22.07,33C41.89,71.64,34,71.54,28,67.62c-4.8-3.15-7.9-8.43-9.49-14A35.46,35.46,0,0,1,45.47,9.12"/><path class="cls-3" d="M53.92,11.21C49.76,3.68,40.73-.49,32.14.05S15.56,5.32,9.91,11.82c-10.74,12.37-13,31.4-5.51,46C7.18,63.16,11.09,67.85,15,72.49c2.24,2.68,1.84,4.37-3.71,8.37,14.94,4.11,20-7.66,20.89-13.6s-.41-12-.72-18,.6-12.56,4.85-16.8c2.75-2.74,6.51-4.13,10-5.83s7-4,8.41-7.63-.57-8.64-4.43-9"/></g></g></svg>