<svg xmlns="http://www.w3.org/2000/svg" viewBox="0 0 82.71 151.46"><defs><style>.cls-1{fill:#f46476;}.cls-2{fill:#401b7a;}.cls-3{fill:#9b2d81;}</style></defs><title>nehaBack</title><g id="Layer_2" data-name="Layer 2"><g id="CampDrawing"><path class="cls-1" d="M34.66,102.45c-.27.6.52,43.75,5.21,48.68s2-46.92,1.29-47.64S34.66,102.45,34.66,102.45Z"/><path class="cls-1" d="M45.78,102.74c-.15.64,9.07,42.8,14.63,46.71s-7.2-46.4-8.06-47S45.78,102.74,45.78,102.74Z"/><path class="cls-1" d="M31.5,79c-4.05,7.19-9.18,26.06-5.8,31.86S37.52,81,37.52,81,35.37,72.17,31.5,79Z"/><path class="cls-1" d="M50.25,80.3c7,4.39,20.52,18.52,20.32,25.22S45.88,84.88,45.88,84.88,43.57,76.12,50.25,80.3Z"/><path class="cls-2" d="M43.55,63.32c-.71.18-16.84,27.31-10.63,41.14s22.5,11.37,23.93.53C58.09,95.59,43.55,63.32,43.55,63.32Z"/><path class="cls-3" d="M58,18.23c-.7-.46-12.08-27.27-32.29-15S16.66,44.34,9.46,50,.3,52.15,0,52.38,33.62,85.61,75.21,71.2c0,0-7.43-3.71-6.27-10.22S86.36,39.37,82,27.76C75.79,11.55,58,18.23,58,18.23Z"/></g></g></svg>