<svg xmlns="http://www.w3.org/2000/svg" xmlns:xlink="http://www.w3.org/1999/xlink" viewBox="0 0 1941.44 873.72"><defs><style>.cls-1{fill:none;}.cls-2{opacity:0.74;}.cls-3{fill:#fabd03;stroke:#fff;stroke-miterlimit:10;stroke-width:4px;}.cls-4{fill:#f46476;}.cls-5{fill:#401b7a;}.cls-6{fill:#9b2d81;}.cls-7{clip-path:url(#clip-path);}.cls-8{fill:#383838;}.cls-9{fill:#a57d51;}.cls-10{fill:#ccc8c8;}.cls-11{fill:#e8e3e3;}.cls-12{fill:#d0a267;}.cls-13{fill:#000300;}</style><clipPath id="clip-path"><path class="cls-1" d="M0,672.34H1941.44l-.65,201.18c.7,10.46-906.28-381.73-1940.79,0Z"/></clipPath></defs><title>nehaAndDogWalking</title><g id="Layer_2" data-name="Layer 2"><g id="Layer_1-2" data-name="Layer 1"><g class="cls-2"><rect class="cls-3" x="23.26" y="315.24" width="179.91" height="357.33"/><rect class="cls-3" x="62.44" y="344.62" width="31.19" height="50.36"/><rect class="cls-3" x="132.81" y="344.62" width="31.19" height="50.36"/><rect class="cls-3" x="62.44" y="423.76" width="31.19" height="50.36"/><rect class="cls-3" x="132.81" y="423.76" width="31.19" height="50.36"/><rect class="cls-3" x="62.44" y="502.9" width="31.19" height="50.36"/><rect class="cls-3" x="132.81" y="502.9" width="31.19" height="50.36"/><rect class="cls-3" x="62.44" y="580.24" width="46.43" height="92.33"/><rect class="cls-3" x="117.57" y="580.24" width="46.43" height="92.33"/><rect class="cls-3" x="651.7" y="314.04" width="179.91" height="357.33"/><rect class="cls-3" x="690.88" y="343.42" width="31.19" height="50.36"/><rect class="cls-3" x="761.25" y="343.42" width="31.19" height="50.36"/><rect class="cls-3" x="690.88" y="422.56" width="31.19" height="50.36"/><rect class="cls-3" x="761.25" y="422.56" width="31.19" height="50.36"/><rect class="cls-3" x="690.88" y="501.7" width="31.19" height="50.36"/><rect class="cls-3" x="761.25" y="501.7" width="31.19" height="50.36"/><rect class="cls-3" x="690.88" y="579.04" width="46.43" height="92.33"/><rect class="cls-3" x="746.01" y="579.04" width="46.43" height="92.33"/><rect class="cls-3" x="203.18" y="250.49" width="165.79" height="422.08"/><rect class="cls-3" x="246.66" y="366.95" width="80.49" height="6.74"/><rect class="cls-3" x="258.5" y="294.56" width="54.59" height="72.4"/><rect class="cls-3" x="266.46" y="300.85" width="38.3" height="66.1"/><rect class="cls-3" x="246.66" y="467.38" width="80.49" height="6.74"/><rect class="cls-3" x="258.5" y="394.98" width="54.59" height="72.4"/><rect class="cls-3" x="266.46" y="401.28" width="38.3" height="66.1"/><rect class="cls-3" x="245.36" y="567.35" width="80.49" height="6.74"/><rect class="cls-3" x="257.21" y="494.96" width="54.59" height="72.4"/><rect class="cls-3" x="265.16" y="501.25" width="38.3" height="66.1"/><path class="cls-3" d="M258.5,672.57V610s3.09-18.38,28.4-18.38c20.08,0,26.19,17.58,26.19,17.58v63.35Z"/><rect class="cls-3" x="349.72" y="130.58" width="324.18" height="28.18"/><rect class="cls-3" x="368.97" y="158.76" width="282.73" height="513.81"/><rect class="cls-3" x="469.87" y="580.24" width="80.92" height="92.33"/><rect class="cls-3" x="394.38" y="179.34" width="72.53" height="9.19"/><rect class="cls-3" x="394.38" y="272.08" width="72.53" height="9.19"/><rect class="cls-3" x="402.77" y="188.54" width="54.28" height="83.54"/><rect class="cls-3" x="409.18" y="193.73" width="41.45" height="40.77"/><rect class="cls-3" x="409.18" y="240.1" width="41.45" height="25.58"/><rect class="cls-3" x="394.38" y="311.85" width="72.53" height="9.19"/><rect class="cls-3" x="394.38" y="404.58" width="72.53" height="9.19"/><rect class="cls-3" x="402.77" y="321.04" width="54.28" height="83.54"/><rect class="cls-3" x="409.18" y="326.23" width="41.45" height="40.77"/><rect class="cls-3" x="409.18" y="372.6" width="41.45" height="25.58"/><rect class="cls-3" x="394.38" y="451.94" width="72.53" height="9.19"/><rect class="cls-3" x="394.38" y="544.67" width="72.53" height="9.19"/><rect class="cls-3" x="402.77" y="461.13" width="54.28" height="83.54"/><rect class="cls-3" x="409.18" y="466.33" width="41.45" height="40.77"/><rect class="cls-3" x="409.18" y="512.69" width="41.45" height="25.58"/><rect class="cls-3" x="478.26" y="451.94" width="72.53" height="9.19"/><rect class="cls-3" x="478.26" y="544.67" width="72.53" height="9.19"/><rect class="cls-3" x="486.65" y="461.13" width="54.28" height="83.54"/><rect class="cls-3" x="493.06" y="466.33" width="41.45" height="40.77"/><rect class="cls-3" x="493.06" y="512.69" width="41.45" height="25.58"/><rect class="cls-3" x="563.87" y="451.94" width="72.53" height="9.19"/><rect class="cls-3" x="563.87" y="544.67" width="72.53" height="9.19"/><rect class="cls-3" x="572.26" y="461.13" width="54.28" height="83.54"/><rect class="cls-3" x="578.67" y="466.33" width="41.45" height="40.77"/><rect class="cls-3" x="578.67" y="512.69" width="41.45" height="25.58"/><rect class="cls-3" x="478.26" y="311.85" width="72.53" height="9.19"/><rect class="cls-3" x="478.26" y="404.58" width="72.53" height="9.19"/><rect class="cls-3" x="486.65" y="321.04" width="54.28" height="83.54"/><rect class="cls-3" x="493.06" y="326.23" width="41.45" height="40.77"/><rect class="cls-3" x="493.06" y="372.6" width="41.45" height="25.58"/><rect class="cls-3" x="564.61" y="311.85" width="72.53" height="9.19"/><rect class="cls-3" x="564.61" y="404.58" width="72.53" height="9.19"/><rect class="cls-3" x="573" y="321.04" width="54.28" height="83.54"/><rect class="cls-3" x="579.41" y="326.23" width="41.45" height="40.77"/><rect class="cls-3" x="579.41" y="372.6" width="41.45" height="25.58"/><rect class="cls-3" x="479" y="179.34" width="72.53" height="9.19"/><rect class="cls-3" x="479" y="272.08" width="72.53" height="9.19"/><rect class="cls-3" x="487.39" y="188.54" width="54.28" height="83.54"/><rect class="cls-3" x="493.8" y="193.73" width="41.45" height="40.77"/><rect class="cls-3" x="493.8" y="240.1" width="41.45" height="25.58"/><rect class="cls-3" x="565.35" y="179.34" width="72.53" height="9.19"/><rect class="cls-3" x="565.35" y="272.08" width="72.53" height="9.19"/><rect class="cls-3" x="573.74" y="188.54" width="54.28" height="83.54"/><rect class="cls-3" x="580.15" y="193.73" width="41.45" height="40.77"/><rect class="cls-3" x="580.15" y="240.1" width="41.45" height="25.58"/></g><g class="cls-2"><rect class="cls-3" x="798.64" y="2" width="389.11" height="34.8"/><polygon class="cls-3" points="1155.04 36.8 830.68 36.8 830.68 671.39 1156.24 671.39 1155.04 36.8"/><rect class="cls-3" x="936.43" y="557.36" width="134.76" height="114.03"/><rect class="cls-3" x="863" y="62.23" width="120.79" height="11.35"/><rect class="cls-3" x="863" y="176.75" width="120.79" height="11.35"/><rect class="cls-3" x="876.96" y="73.58" width="90.39" height="103.17"/><rect class="cls-3" x="887.65" y="80" width="69.02" height="50.35"/><rect class="cls-3" x="887.65" y="137.26" width="69.02" height="31.59"/><rect class="cls-3" x="863" y="225.87" width="120.79" height="11.35"/><rect class="cls-3" x="863" y="340.4" width="120.79" height="11.35"/><rect class="cls-3" x="876.96" y="237.23" width="90.39" height="103.17"/><rect class="cls-3" x="887.65" y="243.64" width="69.02" height="50.35"/><rect class="cls-3" x="887.65" y="300.91" width="69.02" height="31.59"/><rect class="cls-3" x="863" y="398.9" width="120.79" height="11.35"/><rect class="cls-3" x="863" y="513.43" width="120.79" height="11.35"/><rect class="cls-3" x="876.96" y="410.25" width="90.39" height="103.17"/><rect class="cls-3" x="887.65" y="416.67" width="69.02" height="50.35"/><rect class="cls-3" x="887.65" y="473.93" width="69.02" height="31.59"/><rect class="cls-3" x="1002.68" y="398.9" width="120.79" height="11.35"/><rect class="cls-3" x="1002.68" y="513.43" width="120.79" height="11.35"/><rect class="cls-3" x="1016.65" y="410.25" width="90.39" height="103.17"/><rect class="cls-3" x="1027.33" y="416.67" width="69.02" height="50.35"/><rect class="cls-3" x="1027.33" y="473.93" width="69.02" height="31.59"/><rect class="cls-3" x="1002.68" y="225.87" width="120.79" height="11.35"/><rect class="cls-3" x="1002.68" y="340.4" width="120.79" height="11.35"/><rect class="cls-3" x="1016.65" y="237.23" width="90.39" height="103.17"/><rect class="cls-3" x="1027.33" y="243.64" width="69.02" height="50.35"/><rect class="cls-3" x="1027.33" y="300.91" width="69.02" height="31.59"/><rect class="cls-3" x="1003.91" y="62.23" width="120.79" height="11.35"/><rect class="cls-3" x="1003.91" y="176.75" width="120.79" height="11.35"/><rect class="cls-3" x="1017.88" y="73.58" width="90.39" height="103.17"/><rect class="cls-3" x="1028.57" y="80" width="69.02" height="50.35"/><rect class="cls-3" x="1028.57" y="137.26" width="69.02" height="31.59"/></g><g class="cls-2"><rect class="cls-3" x="1157.11" y="313.91" width="402.65" height="357.33"/><rect class="cls-3" x="1244.78" y="343.28" width="69.81" height="50.36"/><rect class="cls-3" x="1402.27" y="343.28" width="69.81" height="50.36"/><rect class="cls-3" x="1244.78" y="422.42" width="69.81" height="50.36"/><rect class="cls-3" x="1402.27" y="422.42" width="69.81" height="50.36"/><rect class="cls-3" x="1244.78" y="501.56" width="69.81" height="50.36"/><rect class="cls-3" x="1402.27" y="501.56" width="69.81" height="50.36"/><rect class="cls-3" x="1244.78" y="578.91" width="103.91" height="92.33"/><rect class="cls-3" x="1368.17" y="578.91" width="103.91" height="92.33"/></g><g class="cls-2"><rect class="cls-3" x="1559.75" y="256.78" width="165.56" height="415.11"/><rect class="cls-3" x="1603.18" y="371.32" width="80.38" height="6.63"/><rect class="cls-3" x="1615" y="300.12" width="54.51" height="71.2"/><rect class="cls-3" x="1622.95" y="306.31" width="38.25" height="65.01"/><rect class="cls-3" x="1603.18" y="470.09" width="80.38" height="6.63"/><rect class="cls-3" x="1615" y="398.89" width="54.51" height="71.2"/><rect class="cls-3" x="1622.95" y="405.08" width="38.25" height="65.01"/><rect class="cls-3" x="1601.88" y="568.41" width="80.38" height="6.63"/><rect class="cls-3" x="1613.71" y="497.21" width="54.51" height="71.2"/><rect class="cls-3" x="1621.65" y="503.4" width="38.25" height="65.01"/><path class="cls-3" d="M1615,671.9V610.38s3.08-18.09,28.37-18.09c20,0,26.14,17.3,26.14,17.3V671.9Z"/><rect class="cls-3" x="1706.1" y="219.92" width="233.34" height="23.5"/><polygon class="cls-3" points="1919.83 243.42 1725.32 243.42 1725.32 671.89 1920.55 671.89 1919.83 243.42"/><rect class="cls-3" x="1788.73" y="594.9" width="80.81" height="77"/><rect class="cls-3" x="1744.69" y="260.58" width="72.43" height="7.67"/><rect class="cls-3" x="1744.69" y="337.91" width="72.43" height="7.67"/><rect class="cls-3" x="1753.07" y="268.25" width="54.2" height="69.66"/><rect class="cls-3" x="1759.48" y="272.58" width="41.39" height="34"/><rect class="cls-3" x="1759.48" y="311.25" width="41.39" height="21.33"/><rect class="cls-3" x="1744.69" y="371.08" width="72.43" height="7.67"/><rect class="cls-3" x="1744.69" y="448.41" width="72.43" height="7.67"/><rect class="cls-3" x="1753.07" y="378.74" width="54.2" height="69.66"/><rect class="cls-3" x="1759.48" y="383.08" width="41.39" height="34"/><rect class="cls-3" x="1759.48" y="421.74" width="41.39" height="21.33"/><rect class="cls-3" x="1744.69" y="487.9" width="72.43" height="7.67"/><rect class="cls-3" x="1744.69" y="565.23" width="72.43" height="7.67"/><rect class="cls-3" x="1753.07" y="495.57" width="54.2" height="69.66"/><rect class="cls-3" x="1759.48" y="499.9" width="41.39" height="34"/><rect class="cls-3" x="1759.48" y="538.57" width="41.39" height="21.33"/><rect class="cls-3" x="1828.46" y="487.9" width="72.43" height="7.67"/><rect class="cls-3" x="1828.46" y="565.23" width="72.43" height="7.67"/><rect class="cls-3" x="1836.84" y="495.57" width="54.2" height="69.66"/><rect class="cls-3" x="1843.24" y="499.9" width="41.39" height="34"/><rect class="cls-3" x="1843.24" y="538.57" width="41.39" height="21.33"/><rect class="cls-3" x="1828.46" y="371.08" width="72.43" height="7.67"/><rect class="cls-3" x="1828.46" y="448.41" width="72.43" height="7.67"/><rect class="cls-3" x="1836.84" y="378.74" width="54.2" height="69.66"/><rect class="cls-3" x="1843.24" y="383.08" width="41.39" height="34"/><rect class="cls-3" x="1843.24" y="421.74" width="41.39" height="21.33"/><rect class="cls-3" x="1829.2" y="260.58" width="72.43" height="7.67"/><rect class="cls-3" x="1829.2" y="337.91" width="72.43" height="7.67"/><rect class="cls-3" x="1837.58" y="268.25" width="54.2" height="69.66"/><rect class="cls-3" x="1843.98" y="272.58" width="41.39" height="34"/><rect class="cls-3" x="1843.98" y="311.25" width="41.39" height="21.33"/></g><path class="cls-4" d="M1445.94,657.42a49.22,49.22,0,0,0,15.27-32.14c.18-2.57.17-5.22,1.11-7.62a8.29,8.29,0,0,1,.55-1.12c3.35-.48,7.52,3.4,8.16,6.46h0a43.44,43.44,0,0,1-19.24,42.27,11,11,0,0,1-4.94,2,4.51,4.51,0,0,1-4.46-2.34C1441.21,662.17,1443.79,659.44,1445.94,657.42Z"/><path class="cls-4" d="M1477,577.6a113.18,113.18,0,0,1,22.12,27.23,5.41,5.41,0,0,1,.88,2.29,1.9,1.9,0,0,1-1.16,2c-.92.28-1.82-.43-2.53-1.09l-16-14.88a47.52,47.52,0,0,1-3.74-3.77,10.08,10.08,0,0,1-2.53-4.84,4.81,4.81,0,0,1,1.94-4.83c1.58-1,4-.33,4.6,1.42"/><path class="cls-5" d="M1466.2,546.82l16.62,39.87c2.48,6,5,12.1,5.07,18.56s-2.94,13.37-8.82,16c-8,3.6-17.6-2.28-21.26-10.21s-3-17.09-2.17-25.79l3.51-39.23,8-.27"/><path class="cls-4" d="M1468.9,618.72c-.94-2.43-1.87-5,.63-6.89,2.68-2,5.6-.58,8.13.81,16.4,11,26.12,31.34,24.16,51-.21,2.07-.72,4.42-2.55,5.41-2.11,1.14-4.85-.31-6-2.39s-1.25-4.59-1.44-7a55.44,55.44,0,0,0-18.62-36.8A29.26,29.26,0,0,1,1468.9,618.72Z"/><path class="cls-4" d="M1451.61,612.82q2.7-11.77,5.41-23.54a50.1,50.1,0,0,1,1.54-5.68,11.09,11.09,0,0,1,3.23-5.1,5.34,5.34,0,0,1,5.71-.82,3.74,3.74,0,0,1,1.59,1.89,5.57,5.57,0,0,0,.27,1.45,2.78,2.78,0,0,1-.54,1.64,125.31,125.31,0,0,1-12.62,31.1,6,6,0,0,1-1.7,2.11,2.1,2.1,0,0,1-2.53,0C1451.19,615.12,1451.37,613.86,1451.61,612.82Z"/><path class="cls-4" d="M1461.5,502c14.28-1,27.89,11.16,29.39,25.4s-8.48,28.55-22.08,33c-6.79,2.24-14.68,2.14-20.66-1.78-4.81-3.15-7.91-8.42-9.5-14a35.48,35.48,0,0,1,26.94-44.55"/><path class="cls-6" d="M1474.05,502.23c-4.16-7.54-13.19-11.7-21.79-11.17s-16.58,5.27-22.22,11.77c-10.75,12.37-13,31.41-5.52,46,2.78,5.38,6.7,10.08,10.58,14.72,2.24,2.68,1.84,4.37-3.7,8.36,14.93,4.12,20-7.65,20.89-13.59s-.42-12-.72-18,.59-12.56,4.85-16.8c2.74-2.73,6.51-4.13,10-5.82s7-4,8.41-7.63-.57-8.65-4.43-9"/><g class="cls-7"><rect class="cls-8" y="672.34" width="20.27" height="201.38"/><rect class="cls-8" x="29.42" y="672.34" width="20.27" height="201.38"/><rect class="cls-8" x="58.84" y="672.34" width="20.27" height="201.38"/><rect class="cls-8" x="88.26" y="672.34" width="20.27" height="201.38"/><rect class="cls-8" x="117.69" y="672.34" width="20.27" height="201.38"/><rect class="cls-8" x="147.11" y="672.34" width="20.27" height="201.38"/><rect class="cls-8" x="176.53" y="672.34" width="20.27" height="201.38"/><rect class="cls-8" x="205.95" y="672.34" width="20.27" height="201.38"/><rect class="cls-8" x="235.37" y="672.34" width="20.27" height="201.38"/><rect class="cls-8" x="264.79" y="672.34" width="20.27" height="201.38"/><rect class="cls-8" x="294.22" y="672.34" width="20.27" height="201.38"/><rect class="cls-8" x="323.64" y="672.34" width="20.27" height="201.38"/><rect class="cls-8" x="353.06" y="672.34" width="20.27" height="201.38"/><rect class="cls-8" x="382.48" y="672.34" width="20.27" height="201.38"/><rect class="cls-8" x="411.9" y="672.34" width="20.27" height="201.38"/><rect class="cls-8" x="441.32" y="672.34" width="20.27" height="201.38"/><rect class="cls-8" x="470.74" y="672.34" width="20.27" height="201.38"/><rect class="cls-8" x="500.17" y="672.34" width="20.27" height="201.38"/><rect class="cls-8" x="529.59" y="672.34" width="20.27" height="201.38"/><rect class="cls-8" x="559.01" y="672.34" width="20.27" height="201.38"/><rect class="cls-8" x="588.43" y="672.34" width="20.27" height="201.38"/><rect class="cls-8" x="617.85" y="672.34" width="20.27" height="201.38"/><rect class="cls-8" x="647.27" y="672.34" width="20.27" height="201.38"/><rect class="cls-8" x="676.69" y="672.34" width="20.27" height="201.38"/><rect class="cls-8" x="706.12" y="672.34" width="20.27" height="201.38"/><rect class="cls-8" x="735.54" y="672.34" width="20.27" height="201.38"/><rect class="cls-8" x="764.96" y="672.34" width="20.27" height="201.38"/><rect class="cls-8" x="794.38" y="672.34" width="20.27" height="201.38"/><rect class="cls-8" x="823.8" y="672.34" width="20.27" height="201.38"/><rect class="cls-8" x="853.22" y="672.34" width="20.27" height="201.38"/><rect class="cls-8" x="882.65" y="672.34" width="20.27" height="201.38"/><rect class="cls-8" x="912.07" y="672.34" width="20.27" height="201.38"/><rect class="cls-8" x="941.49" y="672.34" width="20.27" height="201.38"/><rect class="cls-8" x="970.91" y="672.34" width="20.27" height="201.38"/><rect class="cls-8" x="1000.33" y="672.34" width="20.27" height="201.38"/><rect class="cls-8" x="1029.75" y="672.34" width="20.27" height="201.38"/><rect class="cls-8" x="1059.17" y="672.34" width="20.27" height="201.38"/><rect class="cls-8" x="1088.6" y="672.34" width="20.27" height="201.38"/><rect class="cls-8" x="1118.02" y="672.34" width="20.27" height="201.38"/><rect class="cls-8" x="1147.44" y="672.34" width="20.27" height="201.38"/><rect class="cls-8" x="1176.86" y="672.34" width="20.27" height="201.38"/><rect class="cls-8" x="1206.28" y="672.34" width="20.27" height="201.38"/><rect class="cls-8" x="1235.7" y="672.34" width="20.27" height="201.38"/><rect class="cls-8" x="1265.13" y="672.34" width="20.27" height="201.38"/><rect class="cls-8" x="1294.55" y="672.34" width="20.27" height="201.38"/><rect class="cls-8" x="1323.97" y="672.34" width="20.27" height="201.38"/><rect class="cls-8" x="1353.39" y="672.34" width="20.27" height="201.38"/><rect class="cls-8" x="1382.81" y="672.34" width="20.27" height="201.38"/><rect class="cls-8" x="1412.23" y="672.34" width="20.27" height="201.38"/><rect class="cls-8" x="1441.65" y="672.34" width="20.27" height="201.38"/><rect class="cls-8" x="1471.08" y="672.34" width="20.27" height="201.38"/><rect class="cls-8" x="1500.5" y="672.34" width="20.27" height="201.38"/><rect class="cls-8" x="1529.92" y="672.34" width="20.27" height="201.38"/><rect class="cls-8" x="1559.34" y="672.34" width="20.27" height="201.38"/><rect class="cls-8" x="1588.76" y="672.34" width="20.27" height="201.38"/><rect class="cls-8" x="1618.18" y="672.34" width="20.27" height="201.38"/><rect class="cls-8" x="1647.6" y="672.34" width="20.27" height="201.38"/><rect class="cls-8" x="1677.03" y="672.34" width="20.27" height="201.38"/><rect class="cls-8" x="1706.45" y="672.34" width="20.27" height="201.38"/><rect class="cls-8" x="1735.87" y="672.34" width="20.27" height="201.38"/><rect class="cls-8" x="1765.29" y="672.34" width="20.27" height="201.38"/><rect class="cls-8" x="1794.71" y="672.34" width="20.27" height="201.38"/><rect class="cls-8" x="1824.13" y="672.34" width="20.27" height="201.38"/><rect class="cls-8" x="1853.56" y="672.34" width="20.27" height="201.38"/><rect class="cls-8" x="1882.98" y="672.34" width="20.27" height="201.38"/><rect class="cls-8" x="1912.4" y="672.34" width="20.27" height="201.38"/></g></g><g id="CampDrawing"><path class="cls-9" d="M1348.44,661.8c-1-2.85-1.9-5.54-3-6.7-1.83-2-4.9-3.2-7.58-5.14,3.16-1.74,6.25-3.58,9.31-5.5l11.67,1.46c2.83,6-4.84,16-6.85,18.29C1350.06,664.51,1350.39,661.54,1348.44,661.8Z"/><path class="cls-10" d="M1353.43,662.67c0,1.07.55,2.79,4.6,2.9,5.9.15,3.61,4.06,3.61,4.06-7.32,4.59-10.5-.83-12.68-6.43C1350.45,663,1352,662.86,1353.43,662.67Z"/><path class="cls-9" d="M1345.46,655.1c-1.83-2-4.9-3.2-7.58-5.14q4.74-2.61,9.31-5.5l11.67,1.46c-1.4,3.59-1.28,4.76-2.52,6.91a21.2,21.2,0,0,0-2.73,7.83c-.1.6,0,.67-.18,2,0,1.07.54,2.8,4.6,2.91,2,0,3.08.55,3.59,1.19a10.05,10.05,0,0,0-2,1.46c-.61.53-3,2.74-3.63,3.09-3.34.53-5.84-1-7.8-4.11C1345.21,663.69,1347.08,656.85,1345.46,655.1Z"/><path class="cls-10" d="M1381.67,647.75s-8.82,12.37-5.51,18.36-4,4.18-4,4.18c-7-8.72-3.21-27.64-3.21-27.64"/><path class="cls-9" d="M1381.67,647.75c-2.22,2.93-5.61,11.44-6.19,15.21-1.81-1.68-5-2-7.18-3.25-1-7.52.66-17.05.66-17.05"/><path class="cls-11" d="M1331.14,631.65c-6-6.34-7.06-11.87-6.22-16.16,1.42-7.19,8.66-11.57,15.89-10.37,2.22.37,5,.74,6.94,2.71,5.53,5.51-1.45,11.45-1.45,11.45,3.28-4.4-4.43-15.51-12.92-3.88-3.4,4.66-2.92,9.44-1.12,13.5,1.76-3,5.84-5.43,19.5-5,20,.59,23.52-7,23.52-7-1.26-12.52,8.22-17.2,8.22-17.2-.12-4.43,4.18-8.1,4.18-8.1l.88,8.22c14.42.13,14.8,7.59,16.82,13.91s4.68,5.19,4.68,5.19c1.77,11.13-14.54,8.47-14.54,8.47,4.3,10.12-5.82,19.48-5.82,19.48s-.5,15.18,5.57,18.34-1,5.69-1,5.69c-10.62-3.41-18-21.25-18-21.25-9.87,1.52-24.54-1.39-24.54-1.39-.63,8.1-12.43,11.26-12.43,11.26s-3,2.4,2,5.44,1.14,5.31,1.14,5.31c-13.79.63-5.79-15.81-6.93-20.62s-7.21-9.48-4.76-16.94C1330.93,632.34,1331,632,1331.14,631.65Z"/><path class="cls-12" d="M1330.46,630.91c-5.41-6-6.35-11.3-5.54-15.42,1.42-7.19,8.66-11.57,15.89-10.37,2.22.37,5,.74,6.94,2.71,5.53,5.51-1.45,11.45-1.45,11.45,3.28-4.4-4.43-15.51-12.92-3.88-3.4,4.66-2.92,9.44-1.12,13.5,1.76-3,5.84-5.43,19.5-5a55.65,55.65,0,0,0,11.23-.68c3.28,4.23,10.18.85,12.67-3.13,2.64-4.24,2.22-9.65,5.08-13.83,1.36-2,3.23-3.51,4.35-5.67,1.31-2.53,1.75-5.81,2.47-8.54a1.32,1.32,0,0,0,0-.34l.1-.09.88,8.22c14.42.13,14.8,7.59,16.82,13.91s4.68,5.19,4.68,5.19,0,.25,0,.37a59.51,59.51,0,0,1-9.62-.45,7.48,7.48,0,0,0-3.09,0c-1.65.61-2,2.34-2.21,3.91-.54,3.25-.33,4,.6,6.18a7,7,0,0,1,.57,2.85c0,1.4,0,3.32-.11,3.71-6.18,1.1-9,5.92-6.55,11.37-.22,3.67,1.65,12.63,3.26,16.09-2.44-.4-5.26,1.08-7.78,1.26-5-5.68-8.88-14.57-8.88-14.57-9.87,1.52-24.54-1.39-24.54-1.39-3,2.44-3.47,3.52-5.6,4.78a21,21,0,0,0-6.23,5.46c-.39.48-.36.57-1.14,1.66-.56.92-.91,2.71,2.57,4.8,1.74,1,2.4,2,2.54,2.8a10,10,0,0,0-2.48.28c-.79.16-4,.89-4.68.9-3.17-1.18-4.62-3.72-4.77-7.42-.84-4.51,4.15-9.55,3.6-11.87-1.14-4.8-7.21-9.48-4.75-17Z"/><circle class="cls-13" cx="1409.66" cy="619.79" r="2.01"/></g></g></svg>