<svg xmlns="http://www.w3.org/2000/svg" xmlns:xlink="http://www.w3.org/1999/xlink" viewBox="0 0 302.26 457.77"><defs><style>.cls-1{fill:#1b063d;}.cls-11,.cls-15,.cls-16,.cls-2{fill:#ff8b78;}.cls-14,.cls-3,.cls-6{fill:#591b7a;}.cls-10,.cls-12,.cls-16,.cls-3,.cls-9{opacity:0.67;}.cls-12,.cls-13,.cls-4{fill:#d34a75;}.cls-10,.cls-5{fill:#51239b;}.cls-7,.cls-8,.cls-9{fill:#2e1059;}.cls-11,.cls-13,.cls-14,.cls-7{opacity:0.4;}.cls-15{opacity:0.76;}.cls-17{fill:#f24e41;}.cls-18{fill:#f46353;}.cls-19{opacity:0.29;fill:url(#linear-gradient);}.cls-20{fill:#f46476;}.cls-21{fill:#9b2d81;}.cls-22{fill:#2b0f60;}.cls-23{fill:#401b7a;}</style><linearGradient id="linear-gradient" x1="133.41" y1="264.81" x2="33.52" y2="367.42" gradientUnits="userSpaceOnUse"><stop offset="0.17" stop-color="#fcee71"/><stop offset="0.7" stop-color="#2e1059" stop-opacity="0"/></linearGradient></defs><title>nehaWorking</title><g id="Layer_2" data-name="Layer 2"><g id="roomDrawing"><path class="cls-1" d="M77.82,313.16s7.62,1.79,12.29,0c0,0,3.16,10.41-5.41,11.88-7.23,1.24-9.22-5.44-7.93-9.77A6.23,6.23,0,0,1,77.82,313.16Z"/><path class="cls-1" d="M78.39,320.39s-3.12,3.87-6,.45,2-8,5.44-5.21-4.75-1.85-4.46,2.68c.26,4.14,5.37.77,5.37.77Z"/><rect class="cls-2" x="100.31" y="299.43" width="19.86" height="7.74"/><rect class="cls-1" x="97.52" y="303.31" width="15.92" height="19.71"/><rect class="cls-1" x="98.47" y="297.32" width="1.89" height="9.62" transform="translate(-137.75 90.19) rotate(-30)"/><rect class="cls-1" x="101.15" y="293.22" width="0.95" height="16.41" transform="translate(-114.95 68.44) rotate(-24.28)"/><rect class="cls-1" x="103.04" y="294.22" width="1" height="12.72" transform="translate(-114.43 69.15) rotate(-24.28)"/><rect class="cls-1" x="104.83" y="291.7" width="1.37" height="16.66" transform="translate(89.27 -17.6) rotate(16.45)"/><rect class="cls-1" x="107.3" y="287.86" width="1.94" height="24.44" transform="translate(64.64 -15.94) rotate(11.98)"/><rect class="cls-1" x="109.98" y="292.59" width="2.26" height="25.43" transform="translate(45.55 -12.91) rotate(8.36)"/><rect class="cls-2" x="144.61" y="238.42" width="28.85" height="27.43"/><rect class="cls-2" x="187.08" y="259.39" width="33.36" height="38.78"/><rect class="cls-3" x="74" y="83.6" width="33.36" height="38.78"/><rect class="cls-4" x="77.61" y="233.85" width="40.04" height="60.22"/><rect class="cls-5" x="181.95" y="197.75" width="41.48" height="48.82"/><rect class="cls-6" x="56.32" y="235.11" width="16.71" height="27.12"/><rect class="cls-7" x="193.48" width="38.06" height="61.75"/><rect class="cls-2" x="61.37" y="266.64" width="11.67" height="9.77"/><rect class="cls-6" x="55.06" y="281.94" width="17.97" height="8.83"/><rect class="cls-8" x="47.81" y="242.21" width="5.36" height="8.51"/><rect class="cls-6" x="121.75" y="223.76" width="15.29" height="31.53"/><rect class="cls-6" x="227.53" y="291.08" width="50.76" height="25.07"/><rect class="cls-9" x="17.66" y="75.08" width="50.76" height="25.07"/><rect class="cls-6" x="225.32" y="273.58" width="21.76" height="14.35"/><rect class="cls-10" x="46.67" y="108.03" width="21.76" height="14.35"/><rect class="cls-2" x="237.31" y="199.8" width="44.46" height="69.68"/><rect class="cls-8" x="270.82" y="122.23" width="24.73" height="64.48"/><rect class="cls-11" x="238.25" y="10.86" width="44.46" height="69.68"/><rect class="cls-8" x="130.1" y="193.65" width="46.65" height="23.02"/><rect class="cls-4" x="149.49" y="223.13" width="19.86" height="8.51"/><rect class="cls-4" x="101.25" y="201.69" width="24.12" height="18.45"/><rect class="cls-4" x="195.37" y="170.32" width="67.87" height="22.39"/><rect class="cls-12" x="228.4" y="91.79" width="64.16" height="22.39"/><rect class="cls-4" x="287.12" y="202.16" width="15.13" height="9.46"/><rect class="cls-4" x="119.2" y="82.66" width="67.87" height="104.05"/><rect class="cls-13" x="76.41" y="21.31" width="35.07" height="53.77"/><rect class="cls-6" x="195.37" y="119.66" width="67.87" height="43.91"/><rect class="cls-14" x="119.49" y="28.77" width="67.87" height="43.91"/><rect class="cls-15" x="37.25" y="131.69" width="59.91" height="91.44"/><rect class="cls-16" x="195.37" y="69.6" width="29.09" height="44.39"/><rect class="cls-1" x="82.23" y="329.13" width="119.61" height="116.24"/><rect class="cls-17" x="65.2" y="324.56" width="217.98" height="4.56"/><rect class="cls-17" x="76.76" y="329.13" width="5.47" height="116.24"/><rect class="cls-17" x="201.83" y="329.13" width="71.89" height="116.24"/><rect class="cls-18" x="201.83" y="329.13" width="71.89" height="35.42"/><rect class="cls-1" x="203.27" y="304.86" width="11.66" height="19.71"/><polygon class="cls-1" points="207.01 307.43 205.82 308.31 203.28 301.74 204.48 300.85 207.01 307.43"/><polygon class="cls-1" points="205.59 309.69 206.34 309.72 210.63 294.56 209.89 294.53 205.59 309.69"/><polygon class="cls-1" points="209.93 307.71 209.26 308.13 205.43 296.53 206.1 296.12 209.93 307.71"/><polygon class="cls-1" points="213.86 313.11 212.15 313.38 206.78 295.22 208.5 294.95 213.86 313.11"/><polygon class="cls-1" points="212.69 319.6 210.33 319.15 213.38 288.71 215.74 289.17 212.69 319.6"/><rect class="cls-1" x="227.53" y="345" width="21.91" height="1.84"/><rect class="cls-1" x="211.24" y="384.25" width="2.58" height="35.79"/><path class="cls-19" d="M84,366.6c5.77-2.74,10.92-6.19,16.92-8.66s12.83-3.73,17.95-7.35c2.15-1.52,3.89-3.44,6.7-4.23,2.19-.62,5,.07,7.23.23,6.83.47,13.69.43,20.54.41l74.24-100.43-9.15-11.39L0,299.24l76.59,71C79,369,81.47,367.78,84,366.6Z"/><polygon class="cls-1" points="212.34 234.57 225.32 260.9 255.44 231.05 212.34 234.57"/><polygon class="cls-1" points="254.81 231.47 260.48 271.35 240.72 299.26 240.72 319.91 256.28 319.91 256.28 324.38 224.46 324.38 224.46 319.7 238.41 319.7 238.41 299.26 258.17 271.35 252.91 232.03 254.81 231.47"/><path class="cls-20" d="M183.83,313a5.77,5.77,0,0,0-3.81-1.21s-3.75,1.69-1.22-.89c2.16-2.21,4.28-.11,4.84.54Z"/><polygon class="cls-6" points="191.02 297.47 175.73 317.65 176.91 324.84 191.02 297.47"/><path class="cls-20" d="M176.46,379s16.75-10.14,22.16-1.52-3.88,14-3.88,14-11.26,8-23.37,9.32S176.46,379,176.46,379Z"/><path class="cls-20" d="M98.66,315.5a182.26,182.26,0,0,0,26.45,2.43c16.27.48,0,11.2,0,11.2Z"/><path class="cls-4" d="M122.76,324.84s-24.88-11-31.71-11c-3.48,0-4.44.42-8.46,3.11-3.47,2.31,4.62,9.61,4.62,9.61s8.62,6.83,42.41,12.3S122.76,324.84,122.76,324.84Z"/><path class="cls-20" d="M183,312.89c.07.05,0,.09.09.15l-3.51-.51s-1.61.16-1.27,1.08,3.85,1.51,3.85,1.51,0,1.82,3.08,1.8l4.24,1,17.47-1.3s3.6-6.17-6.77-4.4-16.79.18-16.79.18,0,.36-.12.25Z"/><path class="cls-20" d="M122.51,379s-16.75-10.14-22.16-1.52,3.89,14,3.89,14,11.25,8,23.36,9.32S122.51,379,122.51,379Z"/><path class="cls-4" d="M176.46,322.53s24.88-11,31.71-11c3.48,0,4.43.42,8.46,3.1,3.47,2.32-4.63,9.62-4.63,9.62s-8.61,6.83-42.4,12.3S176.46,322.53,176.46,322.53Z"/><path class="cls-21" d="M157.13,263c-.67-.24-15.7-19.93-29.77-5.58s1.2,35.81-3.54,42-7.09,3.71-7.29,4,34.7,20.29,65.93-.34c0,0-6.91-1.5-7.32-7.1s9.8-21.47,3.72-30.11C170.37,253.7,157.13,263,157.13,263Z"/><path class="cls-22" d="M123.81,395.33s-7.39,10.35,5.95,13,39.45-.23,43.8-1c1.94-.35,9.39-2.22,2.9-12"/><path class="cls-23" d="M119.66,315.31s27.46-14,56.8-.15V395.6s-23.3,10.18-52.64-.27Z"/><polygon class="cls-22" points="125.11 405.16 129.64 454.13 135.59 454.13 137.74 405.16 125.11 405.16"/><polygon class="cls-22" points="129.64 454.88 135.66 454.88 135.06 457.77 130.31 457.77 129.64 454.88"/><polygon class="cls-22" points="163.82 405.16 168.36 454.13 174.3 454.13 176.46 405.16 163.82 405.16"/><polygon class="cls-22" points="168.36 454.88 174.38 454.88 173.78 457.77 169.03 457.77 168.36 454.88"/><polygon class="cls-22" points="135.5 408.99 138.21 438.23 141.76 438.23 143.04 408.99 135.5 408.99"/><polygon class="cls-22" points="138.21 438.67 141.8 438.67 141.45 440.4 138.61 440.4 138.21 438.67"/><polygon class="cls-22" points="157.72 408.37 160.43 437.61 163.98 437.61 165.27 408.37 157.72 408.37"/><polygon class="cls-22" points="160.43 438.06 164.02 438.06 163.67 439.79 160.83 439.79 160.43 438.06"/><rect class="cls-23" x="119.66" y="304.81" width="5.04" height="14.6" rx="2.47"/><rect class="cls-23" x="171.41" y="304.81" width="5.04" height="14.6" rx="2.47"/></g></g></svg>