<svg xmlns="http://www.w3.org/2000/svg" viewBox="0 0 110 155.63"><defs><style>.cls-1{fill:#9b2d81;}.cls-2{fill:#f46476;}.cls-3{fill:#401b7a;}.cls-4{fill:#383838;opacity:0.29;}.cls-5{fill:#e8e3e3;}.cls-6{fill:#d0a267;}.cls-7{fill:#000300;}</style></defs><title>nehaAndDogFront</title><g id="Layer_2" data-name="Layer 2"><g id="CampDrawing"><path class="cls-1" d="M58,18.23c-.7-.46-12.08-27.27-32.29-15S16.66,44.34,9.46,50,.3,52.15,0,52.38,33.62,85.61,75.21,71.2c0,0-7.43-3.71-6.27-10.22S86.36,39.37,82,27.76C75.79,11.55,58,18.23,58,18.23Z"/><path class="cls-2" d="M34.66,102.45c-.27.6.52,43.75,5.21,48.68s2-46.92,1.29-47.64S34.66,102.45,34.66,102.45Z"/><path class="cls-2" d="M45.78,102.74c-.15.64,9.07,42.8,14.63,46.71s-7.2-46.4-8.06-47S45.78,102.74,45.78,102.74Z"/><path class="cls-2" d="M31.5,79c-4.05,7.19-9.18,26.06-5.8,31.86S37.52,81,37.52,81,35.37,72.17,31.5,79Z"/><path class="cls-2" d="M50.25,80.3c7,4.39,20.52,18.52,20.32,25.22S45.88,84.88,45.88,84.88,43.57,76.12,50.25,80.3Z"/><path class="cls-3" d="M43.55,63.32c-.71.18-16.84,27.31-10.63,41.14s22.5,11.37,23.93.53C58.09,95.59,43.55,63.32,43.55,63.32Z"/><circle class="cls-2" cx="44.21" cy="44.78" r="23.33"/><ellipse class="cls-4" cx="60.38" cy="151.03" rx="49.62" ry="4.6"/><path class="cls-5" d="M96.18,146c3.66-1.75,5.65-4.61,2.66-9.1-6-9-10.53,1.85-10.53,1.85l.51-8.29-4.44-3.12v-.65l-.46.32-.46-.32v.65L79,130.41l.51,8.29S75,127.85,69,136.85c-3,4.46-1,7.31,2.57,9.06-1.53.64-3.12,1.72-2.67,3.39h9.45l-1.81-1.77a40.08,40.08,0,0,0,6.92.8h.92a39.42,39.42,0,0,0,6.7-.76l-1.76,1.73h9.44C99.21,147.66,97.69,146.6,96.18,146Z"/><path class="cls-6" d="M92.47,149.3q2.34-1.41,4.67-2.86a8.67,8.67,0,0,0-1-.49c3.66-1.75,5.65-4.61,2.66-9.1-6-9-10.53,1.85-10.53,1.85l.51-8.29-4.44-3.12v-.65l-.46.32-.46-.32v.65L79,130.41l.51,8.29S75,127.85,69,136.85c-3,4.46-1,7.31,2.57,9.06a7.78,7.78,0,0,0-1.55.86,3.37,3.37,0,0,1,.44.26,22.21,22.21,0,0,0,3.86,2.27h4l-1.81-1.77c.91.19,1.82.33,2.73.45a8.6,8.6,0,0,1-.06-3.84.13.13,0,0,0,0-.06,3.28,3.28,0,0,1-2.73.87,10.64,10.64,0,0,1-4.55-1.89,3.43,3.43,0,1,1,4.22-5.4l.12.08a7.22,7.22,0,0,0,.91.37l.22,0a3.49,3.49,0,0,1,2.81,2.48,9.6,9.6,0,0,0,.37-2.38c0-2.11-.83-4-.4-6.1.87-4.32,7.66-3.41,6.79.92-.39,1.94.59,4.16.42,6.2,0,.11,0,.23-.05.35a1.71,1.71,0,0,1,.13.23l.08-.05.48-.34c.36-.26.72-.53,1.09-.78a9.86,9.86,0,0,1,3-1.51,3.52,3.52,0,0,1,4.45,1.92,3.43,3.43,0,0,1-1.92,4.45,7.92,7.92,0,0,0-.82.28l-.1,0q-.51.31-1,.66a28.33,28.33,0,0,1-2.86,1.83,2.52,2.52,0,0,1-1.46.28A12.57,12.57,0,0,1,88.2,148c1-.12,1.92-.26,2.88-.46l-1.76,1.73Z"/><path class="cls-5" d="M84,116.13l-.77.51-.77-.51s-11.36-3-8.61,12.45,1.47,20.29,1.47,20.29-3.32,4.28,1.27,4.22,3.83-16.47,3.83-16.47-1-6.32,2.81-6.06C87,130.3,86,136.62,86,136.62s-.77,16.4,3.83,16.47,1.28-4.22,1.28-4.22S89.86,144,92.6,128.58,84,116.13,84,116.13Z"/><path class="cls-6" d="M75.6,145.13a9,9,0,0,1,4.82-3.71c.09-2.7,0-4.8,0-4.8s-1-6.32,2.81-6.06C87,130.3,86,136.62,86,136.62s-.1,2.22,0,5a10.24,10.24,0,0,1,4.82,2.78,98.25,98.25,0,0,1,1.76-15.86C95.35,113.13,84,116.13,84,116.13l-.77.51-.77-.51s-11.36-3-8.61,12.45A94.16,94.16,0,0,1,75.6,145.13Z"/><path class="cls-5" d="M75.31,115.73s10.19,3.44,16.09-.37,4.85-14.14,2.46-15.38c-6.3-3.28-16.81-4.13-22.17,1.53S75.31,115.73,75.31,115.73Z"/><path class="cls-6" d="M75.22,115.47l-.18-.11.27.37Z"/><path class="cls-6" d="M91.14,115.73l.26-.37-.18.11Z"/><path class="cls-6" d="M94,97.26s-.17-5.45-2.81-7.53c0,0-2.68,1.06-3.19,5.83a6.19,6.19,0,0,0-4.81-.47,6.19,6.19,0,0,0-4.81.47c-.51-4.77-3.19-5.83-3.19-5.83-2.64,2.08-2.81,7.53-2.81,7.53-9.79,9.87,1.09,17.15,2.63,18.1-7.53-10.23-1.34-14.16.95-11.46,2.54,3,7.23,2.34,7.23,2.34s4.69.66,7.23-2.34c2.29-2.7,8.48,1.23,1,11.46C92.94,114.41,103.82,107.13,94,97.26Z"/><path class="cls-6" d="M89.69,132.49s14.66-1.81,8.72-14.52c0,0,15.71,15.37-8.06,17.34Z"/><path class="cls-7" d="M81.22,104.31h4c.56,0,.91.5.62.89l-2,2.8a.81.81,0,0,1-1.26,0l-2-2.8C80.32,104.81,80.67,104.31,81.22,104.31Z"/></g></g></svg>