<svg xmlns="http://www.w3.org/2000/svg" viewBox="0 0 165.17 121.87"><defs><style>.cls-1{fill:#7b9f1b;}.cls-2{fill:#aedd2c;}.cls-3{fill:#f2f2f2;}.cls-4{fill:#e5e5e5;}.cls-5{fill:#4c6312;}</style></defs><title>origami</title><g id="Layer_2" data-name="Layer 2"><g id="footer"><path class="cls-1" d="M83.54,97.54A83.88,83.88,0,0,1,80,82.75c-.71-4-2.31-7.74-2.4-11.82-2-6.62-3.06-13.46-4.73-20.16-1-4.12-2.14-8.23-3.23-12.34-.17-.64-.13-1.46-1-1.66-4.4,7.09-9.46,13.7-14.27,20.49-1.46,2-2.94,4.07-4.42,6.09l1.58.56a69.87,69.87,0,0,1,6.86-5l.6-.41A4.93,4.93,0,0,1,61,56.88c.49-.64,1-1.24,1.95-1.05l.14-.22c.93-1.58,2.47-3.26,4-2.92,1.16.26,0,2.49-.06,3.84-.54,8.41-1.06,16.81-1.69,25.22C64.5,92.88,63.7,104,62.6,115.13c-.14,1.42-.2,2.84-.27,4.26,3.77,1,7.6,1.81,11.46,2.48l.55-.47c.42-.34.85-.67,1.28-1a12.59,12.59,0,0,1,.11-1.85c.06-.34.19-.79,0-1-3.15-4.47-.53-8,1.89-11.53C79.6,103.18,81.88,100.58,83.54,97.54Z"/><path class="cls-2" d="M44.56,85.23c-4.8-3.22-10.07-5.6-15.12-8.38-6.92-3.82-14-7.43-21-11.13A4,4,0,0,0,6,64.88H6C4.4,63,1.82,62.74,0,61.24l.5-1.3a7.86,7.86,0,0,0,3.31.65l2.06.4a4.58,4.58,0,0,0,2.75.71l1.54.31a5.1,5.1,0,0,0,3.27.82l1,.22a6.7,6.7,0,0,0,3.27.82l1.54.31a6.63,6.63,0,0,0,3.8.86l1,.24a10.82,10.82,0,0,0,2.31,1.2c7.41,1.83,15,3,22.31,5.19,3.85,1.11,7.93,1.75,11.89,2.64a2.85,2.85,0,0,1-.85,2.42c-1.4,1.73-2.75,3.5-4.11,5.26-1.67,2.25-4.08,4-4.8,6.91a.46.46,0,0,0-.3.08c0-.47-.16-.87-.69-1a1,1,0,0,0-1.06-.56l-.5-.1,0,.07-.6-.52a1,1,0,0,0-1-.54,1.18,1.18,0,0,0-1.08-.56l0,0-.52-.38Z"/><path class="cls-1" d="M57.73,93.53c1.32.82.61,2.61.48,4-.62,6.34-1.24,12.68-2.07,19,0,.34-.08.68-.11,1,2.08.7,4.18,1.32,6.3,1.89.07-1.42.13-2.84.27-4.26,1.1-11.11,1.9-22.25,2.73-33.38C66,73.34,66.48,64.94,67,56.53c.09-1.35,1.22-3.58.06-3.84-1.5-.34-3,1.34-4,2.92l-.14.22L62.7,56.9a8.81,8.81,0,0,1-.44,3.78l-.19,2.11A6.48,6.48,0,0,1,61.65,66l-.09,1,0,.54-.12,1a15.47,15.47,0,0,1-.83,5.65,2.85,2.85,0,0,1-.85,2.42c-1.4,1.73-2.75,3.5-4.11,5.26.29,2.82-.12,5.67.57,8.49C56.47,91.68,56.38,92.69,57.73,93.53Z"/><path class="cls-3" d="M61.56,67.07l0,.54a2.17,2.17,0,0,1-.15-.4S61.49,67.12,61.56,67.07Z"/><path class="cls-4" d="M100.63,56.4l-.4.59Z"/><path class="cls-1" d="M128,30.23l.12-.16c.36-2,.72-4,1.14-6A21.92,21.92,0,0,0,128,30.23Z"/><path class="cls-1" d="M129.91,13.72c.63-.1,2,.13,1.43.59-2.33,2-1.22,4.61-1.5,6.9,0,.09,0,.18,0,.27.42-1.78.91-3.56,1.49-5.33,1.72-5.21,4-10.59,4.3-16.15a7.07,7.07,0,0,0-.38.61c-1.27,2.09-2.61,4.15-3.92,6.21a.25.25,0,0,1-.18.32c-.62,1-.83,2.25-2,2.81a.5.5,0,0,1-.1.41c.09.38-.14.51-.43.6,0,1.2-1,1.81-1.53,2.73v0c-.26.64-.53,1.29-.79,1.94C127.84,15.7,128.47,13.94,129.91,13.72Z"/><path class="cls-1" d="M128,30.7c-2,3.49-2.52,7.48-3.72,11.24-.18.58.33.93.91,1.05a15.38,15.38,0,0,1,.73-4.13c.46-1.65,1.07-3.26,1.52-4.91C127.61,32.86,127.8,31.78,128,30.7Z"/><path class="cls-4" d="M129,10.36c.09.38-.15.51-.44.6Z"/><path class="cls-5" d="M75.73,118.55a12.59,12.59,0,0,0-.11,1.85A116.89,116.89,0,0,1,92,110.26c2.88-1.56,5.64-3.35,8.4-5.11.69-3.09,1.46-6.15,2.35-9.19.07-.75-.21-1.56.4-2.22.18-.82.36-1.65.53-2.47-4.43.91-8.51,2.88-12.8,4.22a48.41,48.41,0,0,1-7.36,2.05c-1.66,3-3.94,5.64-5.89,8.47-2.42,3.49-5,7.06-1.89,11.53C75.92,117.76,75.79,118.21,75.73,118.55Z"/><path class="cls-2" d="M103.7,91.27c-4.43.91-8.51,2.88-12.8,4.22a48.41,48.41,0,0,1-7.36,2.05A83.88,83.88,0,0,1,80,82.75c-.71-4-2.31-7.74-2.4-11.82Q84.76,68.74,92,66.55a7.16,7.16,0,0,1,3-.69,34.43,34.43,0,0,1,4.16,1.68c4.14,2.33,5.31-3.39,2.67.55-.29.43,2.78-2.13,2.61-1.63a2.38,2.38,0,0,0,.64,2.91c1,.78,0-.54,1.17.7,2.23-3.36-.06.37,4.37,1.2,2.09.39,4.23-.13,6.33-.48,14.33.24,28.62-.9,42.93-1.43,1.76-.06,3.56-.33,5.29.25l-8.41,3.24c-8.2,2.32-16.19,5.27-24.23,8.05q-13.87,4.8-27.69,9.72A6.82,6.82,0,0,0,103.7,91.27Z"/><path class="cls-2" d="M49.88,63.35c1.48-2,3-4.05,4.42-6.09,4.81-6.79,9.87-13.4,14.27-20.49-2.4-1-5-.92-7.52-1.66-1.74-.52-2.76,0-3.51,1.72-2.11,4.9-4.39,9.71-6.59,14.57q-2.43,5.35-4.82,10.75C47.4,62.51,48.64,62.92,49.88,63.35Z"/><path class="cls-4" d="M62.7,56.9l-1.68,0c.49-.64,1-1.24,1.95-1.05Z"/><path class="cls-5" d="M123.83,19.42c.3-.44.6-.89.89-1.34C124.71,18.72,124.66,19.33,123.83,19.42Z"/><path class="cls-5" d="M125.72,16.77a1,1,0,0,1,.6-1.13C126.32,16.12,126.26,16.57,125.72,16.77Z"/><path class="cls-5" d="M121.86,22.65l.74-1.1C122.54,22.05,122.42,22.49,121.86,22.65Z"/><path class="cls-5" d="M122.56,21.6l.6-1Z"/><path class="cls-5" d="M125.17,17.3c.11-.31.21-.62.64-.57Z"/><path class="cls-5" d="M123.18,20.53l.48-.73Z"/><path class="cls-1" d="M56,117.5c0-.34.06-.68.11-1,.83-6.31,1.45-12.65,2.07-19,.13-1.35.84-3.14-.48-4s-1.26-1.85-1.55-3c-.69-2.82-.28-5.67-.57-8.49-1.67,2.25-4.08,4-4.8,6.91.68,9.3,2.22,18.52,3,27.81C54.53,117,55.28,117.25,56,117.5Z"/><path class="cls-3" d="M50.51,89c-.52-.14-.64-.54-.69-1C50.35,88.11,50.47,88.51,50.51,89Z"/><path class="cls-3" d="M46.64,86.33a1.11,1.11,0,0,1-1.08-.56A1.18,1.18,0,0,1,46.64,86.33Z"/><path class="cls-3" d="M48.29,87.39l-.6-.52Z"/><path class="cls-3" d="M48.76,87.42c-.25.38-.41.28-.5-.1Z"/><path class="cls-3" d="M45.58,85.79l-.52-.38Z"/><path class="cls-1" d="M129.91,13.72c-1.42.21-2,1.93-3.59,1.94,0,.45-.06.86-.52,1.07l-.63.57a.63.63,0,0,0-.45.78c0,.64-.06,1.25-.89,1.34a.27.27,0,0,0-.17.38l-.48.73,0,.06-.6,1,0-.05c-.06.5-.18.94-.74,1.1q-8.69,14-17.37,28c-1.16,1.86-2.44,3.64-3.67,5.46a.3.3,0,0,1-.19.32l-.4.59v0c-1.31,3.2-3.51,5.87-5.22,8.84a34.43,34.43,0,0,1,4.16,1.68l1.36.78a7.28,7.28,0,0,1,1,.44,7.3,7.3,0,0,1,5.25,2.07,8.51,8.51,0,0,1,1.7.29,9.59,9.59,0,0,1,2.16.15c2.09.39,4.23-.13,6.33-.48a271.94,271.94,0,0,1,7.81-26.7c.14-.36.27-.73.41-1.1-.58-.12-1.09-.47-.91-1.05,1.2-3.76,1.74-7.75,3.72-11.24l0-.14a1.86,1.86,0,0,0,0-.33,21.92,21.92,0,0,1,1.26-6.2q.27-1.28.57-2.55c0-.09,0-.18,0-.27.28-2.29-.83-4.88,1.5-6.9C131.88,13.85,130.54,13.62,129.91,13.72Z"/></g></g></svg>