<svg xmlns="http://www.w3.org/2000/svg" viewBox="0 0 53.22 230.54"><defs><style>.cls-1{fill:#a72e30;}.cls-2{fill:#fabd03;}.cls-3{fill:#c96f74;}</style></defs><title>paintbrush</title><g id="Layer_2" data-name="Layer 2"><g id="footer"><path class="cls-1" d="M13.42,93.44s.88,91.4,12.68,137.1c0,0,11.43-86,10.17-137.1Z"/><rect class="cls-2" x="13.42" y="73.57" width="22.95" height="16.72"/><path class="cls-3" d="M14.84,0c5.2,2.68,7.52,9.21,6.78,15s-4,11-7.51,15.63-7.55,9-10.26,14.21A33.87,33.87,0,0,0,0,61.13c0,3.15.73,6.62,3.21,8.57,2.3,1.81,5.49,1.82,8.42,1.75l27.45-.68c3.9-.1,8.18-.34,11-3,3.16-3,3.36-7.92,3-12.25C50.88,31.69,35.56,11.94,14.84,0"/></g></g></svg>