<svg xmlns="http://www.w3.org/2000/svg" viewBox="0 0 123.61 128.58"><defs><style>.cls-1{fill:#f46476;}.cls-2{fill:#401b7a;}.cls-3{fill:#9b2d81;}.cls-4{fill:#383838;}.cls-5{stroke:#383838;}.cls-5,.cls-6,.cls-7{stroke-miterlimit:10;}.cls-5,.cls-6{stroke-width:0.25px;}.cls-6,.cls-7{fill:none;}.cls-6{stroke:#fff;}.cls-7{stroke:#2dbc0f;stroke-linecap:round;}.cls-8{fill:#35140c;}.cls-9{fill:#f4f445;}</style></defs><title>photographer</title><g id="Layer_2" data-name="Layer 2"><g id="Layer_1-2" data-name="Layer 1"><path class="cls-1" d="M20,96.81s3.89,23-1.09,24.16C10.5,122.91-.73,116.37,0,120s14.64,10.46,22.07,8.17,7.29-11.62,4.74-29.75S20,96.81,20,96.81Z"/><path class="cls-1" d="M24.28,71.74a113.45,113.45,0,0,1,35.09.46,5.3,5.3,0,0,1,2.31.79,1.89,1.89,0,0,1,.78,2.15C62.08,76,61,76.27,60,76.39L38.34,79.12a45,45,0,0,1-5.3.47,10.17,10.17,0,0,1-5.33-1.16,4.82,4.82,0,0,1-2.47-4.59c.28-1.82,2.32-3.3,4-2.62"/><path class="cls-2" d="M45.06,49.05,39.94,85.47c-.77,5.44-1.58,11-4.36,15.79s-8,8.52-13.55,7.91c-7.47-.83-12.06-9.34-11.3-16.73S16,78.64,20.4,72.62l19.78-27.2,6,3.27"/><path class="cls-1" d="M64.29,18.3c10,7.77,11.76,23.84,4.33,34.1S46.16,66.18,34.55,61.1C28.76,58.55,23.62,53.82,22,47.71c-1.3-4.92-.22-10.23,2-14.8A31.39,31.39,0,0,1,68.07,19.5"/><path class="cls-3" d="M72.4,25.88c1.72-7.42-1.77-15.5-7.74-20.23S50.62-.68,43.06.26a37.42,37.42,0,0,0-30.8,27c-1.35,5.18-1.54,10.59-1.73,15.94-.11,3.09-1.37,4-7.39,3.32,7.41,11.54,17.72,6.81,21.8,3.4s6.8-8.12,10.14-12.25,7.82-7.92,13.13-8.2c3.43-.18,6.73,1.13,10,2.08s7,1.51,10.05-.05,4.73-6,2.42-8.57"/><path class="cls-1" d="M23.36,101.09a4.59,4.59,0,0,1,3.23-3.3c5.4-1.62,20.28-5.42,23.51.61,3.95,7.41,3.32,31-1.28,30.13s-1.79-25.4-6.38-24.64C38.32,104.58,21.92,107.62,23.36,101.09Z"/><rect class="cls-4" x="55.63" y="68.14" width="10.38" height="14.51" rx="1.7" transform="translate(33.02 -17.4) rotate(22.21)"/><rect class="cls-4" x="65.62" y="73.97" width="2.13" height="7.23" transform="translate(34.28 -19.45) rotate(22.21)"/><path class="cls-1" d="M63,78.61c.09,1-.78,2.19-2.08,3.12C56.46,84.89,44,93.27,39.6,91.5c-5.4-2.17-10.72-14.79-6.37-16.3s8,12.52,11.9,10.14C48.66,83.21,62.66,74.58,63,78.61Z"/><path class="cls-5" d="M63.46,68.64s-12.33,3.23-20-3.66-13.34-5.69-13.34-5.69L27.54,62.8s9.84-1.14,13.8,5.62S66.79,70,66.79,70Z"/><polygon class="cls-6" points="59.12 73.92 62.21 75.3 61.76 76.2 58.66 74.88 59.12 73.92"/><line class="cls-6" x1="68.03" y1="74.23" x2="65.34" y2="80.94"/><path class="cls-7" d="M93.19,122.27s-11.36.48-12.26-8.45"/><path class="cls-7" d="M93.19,121.22S80,112.54,83.87,91.09"/><path class="cls-7" d="M94,122.27s-2.93-11.13,0-17.9"/><path class="cls-8" d="M94.34,125.24a4.5,4.5,0,0,1-3.22-6.72c4.46-7.6,14.13-18.53,28-4.37C134.37,129.77,107.07,127.15,94.34,125.24Z"/><path class="cls-9" d="M85.08,90.53S66.49,95.7,70.32,92.67,85.08,90.53,85.08,90.53Z"/><path class="cls-9" d="M83.52,90.13s-17.15,1-15.17-1.41S83.52,90.13,83.52,90.13Z"/><path class="cls-9" d="M84.49,90.33s-18-3.25-15.47-6.86S84.49,90.33,84.49,90.33Z"/><path class="cls-9" d="M72.86,77.82c3.64-3,11.63,11.93,11.63,11.93s-15.27-9-11.63-11.93"/><path class="cls-9" d="M84.84,90s-8.1-12.73-4.51-13.25S84.84,90,84.84,90Z"/><path class="cls-9" d="M84.17,91.23s.57-15.75,2-12S84.17,91.23,84.17,91.23Z"/><path class="cls-9" d="M82.76,91s7.57-11.85,7-8.34S82.76,91,82.76,91Z"/><path class="cls-9" d="M83.49,90.28s7-4.81,5.89-2.92S83.49,90.28,83.49,90.28Z"/><circle class="cls-8" cx="83.9" cy="89.98" r="2.36"/><path class="cls-9" d="M81.28,113.62s-4.21,7.13-3.92,5S81.28,113.62,81.28,113.62Z"/><path class="cls-9" d="M80.68,114s-5,5.41-5.11,4.08S80.68,114,80.68,114Z"/><path class="cls-9" d="M81,113.73s-6.52,4.35-6.83,2.49S81,113.73,81,113.73Z"/><path class="cls-9" d="M73.72,113.33c.24-2,7.15.22,7.15.22s-7.39,1.78-7.15-.22"/><path class="cls-9" d="M81,113.52s-6.29-1.53-5.33-2.76S81,113.52,81,113.52Z"/><path class="cls-9" d="M81.21,114.1s-4.51-5-3-4.3S81.21,114.1,81.21,114.1Z"/><path class="cls-9" d="M80.71,114.46s-1.19-5.92-.33-4.66S80.71,114.46,80.71,114.46Z"/><path class="cls-9" d="M80.72,114s.74-3.57,1-2.65S80.72,114,80.72,114Z"/><circle class="cls-8" cx="80.75" cy="113.8" r="1.01"/><path class="cls-9" d="M94,105s-4.63-6.87-2.87-5.72S94,105,94,105Z"/><path class="cls-9" d="M93.94,104.31s-2.72-6.85-1.48-6.37S93.94,104.31,93.94,104.31Z"/><path class="cls-9" d="M94,104.73s-1.12-7.76.69-7.23S94,104.73,94,104.73Z"/><path class="cls-9" d="M97.51,98.29c1.7,1.08-3.28,6.36-3.28,6.36s1.58-7.44,3.28-6.36"/><path class="cls-9" d="M94.19,104.83s4.08-5,4.78-3.64S94.19,104.83,94.19,104.83Z"/><path class="cls-9" d="M93.59,104.72s6.49-1.91,5.16-.83S93.59,104.72,93.59,104.72Z"/><path class="cls-9" d="M93.48,104.12s5.86,1.47,4.35,1.7S93.48,104.12,93.48,104.12Z"/><path class="cls-9" d="M93.88,104.32s2.91,2.2,2,2S93.88,104.32,93.88,104.32Z"/><circle class="cls-8" cx="94.06" cy="104.44" r="1.01"/></g></g></svg>